<svg width="95" height="115" viewBox="0 0 95 115" fill="none" xmlns="http://www.w3.org/2000/svg">
<circle cx="46.5804" cy="54.936" r="42.9534" fill="#DEF0E2" stroke="#C8E1CC" stroke-width="6"/>
<path d="M81.9765 114.422H12.7388V92.8727H81.9765V114.422Z" fill="#F7B32A"/>
<path d="M81.9765 110.832H12.7388V114.422H81.9765V110.832Z" fill="#2BC2A7"/>
<path d="M77.1577 78.9175H19.8368V61.0736H77.1577V78.9175Z" fill="#F7B32A"/>
<path d="M77.1577 75.9383H19.8368V78.9175H77.1577V75.9383Z" fill="#2BC2A7"/>
<path d="M71.3979 48.3833H25.5966V34.1249H71.3979V48.3833Z" fill="#F7B32A"/>
<path d="M71.3979 46.0051H25.5966V48.3833H71.3979V46.0051Z" fill="#2BC2A7"/>
<path d="M20.5632 96.1341C18.3105 96.1341 17.307 97.514 17.307 100.519C17.307 103.525 17.307 109.034 17.307 109.034H23.8194C23.8194 109.034 23.8194 103.525 23.8194 100.519C23.8194 97.514 22.8211 96.1341 20.5632 96.1341Z" fill="#4D3A29"/>
<path d="M29.5478 96.1341C27.2951 96.1341 26.2864 97.514 26.2864 100.519C26.2864 103.525 26.2864 109.034 26.2864 109.034H32.804C32.804 109.034 32.804 103.525 32.804 100.519C32.804 97.514 31.8005 96.1341 29.5478 96.1341Z" fill="#4D3A29"/>
<path d="M38.5272 96.1341C36.2745 96.1341 35.271 97.514 35.271 100.519C35.271 103.525 35.271 109.034 35.271 109.034H41.7887C41.7887 109.034 41.7887 103.525 41.7887 100.519C41.7887 97.514 40.7851 96.1341 38.5272 96.1341Z" fill="#4D3A29"/>
<path d="M47.512 96.1341C45.254 96.1341 44.2557 97.514 44.2557 100.519C44.2557 103.525 44.2557 109.034 44.2557 109.034H50.7682C50.7682 109.034 50.7682 103.525 50.7682 100.519C50.7682 97.514 49.7646 96.1341 47.512 96.1341Z" fill="#4D3A29"/>
<path d="M56.4913 96.1341C54.2386 96.1341 53.2351 97.514 53.2351 100.519C53.2351 103.525 53.2351 109.034 53.2351 109.034H59.7475C59.7475 109.034 59.7475 103.525 59.7475 100.519C59.7475 97.514 58.7492 96.1341 56.4913 96.1341Z" fill="#4D3A29"/>
<path d="M34.1368 34.9455C32.3336 34.9455 31.5339 35.9804 31.5339 38.2331C31.5339 40.491 31.5339 44.6201 31.5339 44.6201H36.7397C36.7397 44.6201 36.7397 40.491 36.7397 38.2331C36.7397 35.9804 35.9348 34.9455 34.1368 34.9455Z" fill="#4D3A29"/>
<path d="M41.3182 34.9455C39.515 34.9455 38.7101 35.9804 38.7101 38.2331C38.7101 40.491 38.7101 44.6201 38.7101 44.6201H43.9211C43.9211 44.6201 43.9211 40.491 43.9211 38.2331C43.9211 35.9804 43.1214 34.9455 41.3182 34.9455Z" fill="#4D3A29"/>
<path d="M48.4945 34.9455C46.6965 34.9455 45.8916 35.9804 45.8916 38.2331C45.8916 40.491 45.8916 44.6201 45.8916 44.6201H51.0974C51.0974 44.6201 51.0974 40.491 51.0974 38.2331C51.0974 35.9804 50.2977 34.9455 48.4945 34.9455Z" fill="#4D3A29"/>
<path d="M55.6759 34.9455C53.8727 34.9455 53.073 35.9804 53.073 38.2331C53.073 40.491 53.073 44.6201 53.073 44.6201H58.2788C58.2788 44.6201 58.2788 40.491 58.2788 38.2331C58.2788 35.9804 57.4791 34.9455 55.6759 34.9455Z" fill="#4D3A29"/>
<path d="M62.8574 34.9455C61.0542 34.9455 60.2545 35.9804 60.2545 38.2331C60.2545 40.491 60.2545 44.6201 60.2545 44.6201H65.4655C65.4655 44.6201 65.4655 40.491 65.4655 38.2331C65.4655 35.9804 64.6606 34.9455 62.8574 34.9455Z" fill="#4D3A29"/>
<path d="M30.5305 61.774C28.2778 61.774 27.2743 63.1486 27.2743 66.154C27.2743 69.1593 27.2743 74.6682 27.2743 74.6682H33.7919C33.7919 74.6682 33.7919 69.1593 33.7919 66.154C33.7919 63.1486 32.7884 61.774 30.5305 61.774Z" fill="#4D3A29"/>
<path d="M39.5151 61.774C37.2624 61.774 36.2589 63.1486 36.2589 66.154C36.2589 69.1593 36.2589 74.6682 36.2589 74.6682H42.7713C42.7713 74.6682 42.7713 69.1593 42.7713 66.154C42.7713 63.1486 41.7678 61.774 39.5151 61.774Z" fill="#4D3A29"/>
<path d="M48.4997 61.774C46.2418 61.774 45.2435 63.1486 45.2435 66.154C45.2435 69.1593 45.2435 74.6682 45.2435 74.6682H51.756C51.756 74.6682 51.756 69.1593 51.756 66.154C51.756 63.1486 50.7524 61.774 48.4997 61.774Z" fill="#4D3A29"/>
<path d="M57.4791 61.774C55.2264 61.774 54.2229 63.1486 54.2229 66.154C54.2229 69.1593 54.2229 74.6682 54.2229 74.6682H60.7353C60.7353 74.6682 60.7353 69.1593 60.7353 66.154C60.7353 63.1486 59.7318 61.774 57.4791 61.774Z" fill="#4D3A29"/>
<path d="M80.5236 78.9227C69.7409 78.9227 47.5119 78.9227 47.5119 78.9227C47.5119 78.9227 25.2829 78.9227 14.5003 78.9227C3.71765 78.9227 0.633911 70.5391 0.633911 70.5391C1.95103 92.3448 14.2807 92.7629 14.2807 92.7629H80.7431C80.7431 92.7629 93.0676 92.3448 94.3899 70.5391C94.3899 70.5391 91.3062 78.9227 80.5236 78.9227Z" fill="#D91100"/>
<path d="M77.6908 48.5871C68.1573 48.5871 48.4946 48.5871 48.4946 48.5871C48.4946 48.5871 28.8371 48.5871 19.2984 48.5871C9.76496 48.5871 7.04187 41.1757 7.04187 41.1757C8.20742 60.4569 19.1102 60.828 19.1102 60.828H77.8841C77.8841 60.828 88.7818 60.4569 89.9578 41.1757C89.9578 41.1757 87.2294 48.5871 77.6908 48.5871Z" fill="#D91100"/>
<path d="M23.9815 24.6176C23.9397 24.6124 23.8979 24.6019 23.8508 24.5967L23.9815 24.6176ZM73.1279 24.5967C73.0965 24.6072 73.0652 24.6124 73.0338 24.6176L73.1279 24.5967ZM73.1697 24.5863C61.8121 23.8179 52.4825 20.8178 49.5033 14.1016V8.74944C50.1671 8.3888 50.6271 7.68843 50.6271 6.8783C50.6271 6.06816 50.1671 5.36779 49.5033 5.01238V4.65696C50.3501 4.27019 50.9407 3.42347 50.9407 2.43563C50.9407 1.09237 49.8483 0 48.4998 0C47.1566 0 46.0642 1.09237 46.0642 2.43563C46.0642 3.42347 46.6548 4.27019 47.4963 4.65174V5.01238C46.8273 5.36779 46.3673 6.06816 46.3673 6.8783C46.3673 7.68843 46.8273 8.3888 47.4963 8.74944V14.1016C44.5119 20.8178 35.1823 23.8179 23.8247 24.5863C18.6608 23.4887 17.0875 19.2341 17.0875 19.2341C17.9708 33.8427 26.2342 34.1249 26.2342 34.1249H70.7654C70.7654 34.1249 79.0183 33.8427 79.9016 19.2341C79.9016 19.2341 78.3336 23.4834 73.1697 24.5863Z" fill="#D91100"/>
</svg>
