<svg width="104" height="119" viewBox="0 0 104 119" fill="none" xmlns="http://www.w3.org/2000/svg">
<path d="M52.5594 101C76.3077 101 95.5594 81.7482 95.5594 58C95.5594 34.2518 76.3077 15 52.5594 15C28.8112 15 9.55945 34.2518 9.55945 58C9.55945 81.7482 28.8112 101 52.5594 101Z" fill="#DEF0E2" stroke="#C8E1CC" stroke-width="6"/>
<path d="M93.1339 33.5955L88.9241 51.0019H93.1477L97.3714 50.9973L93.1339 33.5955Z" fill="#1A9D95"/>
<path d="M10.722 33.6416L14.9549 51.0434L10.7359 51.0481H6.51221L10.722 33.6416Z" fill="#1A9D95"/>
<path d="M85.0601 66.6055L83.5108 66.6101L83.5246 66.5962L81.4451 64.5213L83.52 62.4464L83.5108 62.4325H85.0555L85.0601 66.6055ZM79.3609 66.6101L81.1131 64.8533L82.8699 66.6101H79.3609ZM76.9632 64.5259L78.8722 62.6124L80.7857 64.5213L78.8768 66.4302L76.9632 64.5259ZM74.8791 66.6147L76.6312 64.8579L78.388 66.6101L74.8791 66.6147ZM72.4814 64.5259L74.3903 62.617L76.2992 64.5259L74.3903 66.4349L72.4814 64.5259ZM70.3972 66.6147L72.1494 64.8579L73.9061 66.6147H70.3972ZM67.9995 64.5305L69.9084 62.6216L71.8174 64.5259L69.9084 66.4349L67.9995 64.5305ZM65.9153 66.6147L67.6675 64.8625L69.4243 66.6147H65.9153ZM63.5176 64.5305L65.422 62.6216L67.3355 64.5305L65.4266 66.4395L63.5176 64.5305ZM61.4289 66.6239L63.1856 64.8625L64.9378 66.6193L61.4289 66.6239ZM59.0358 64.5351L60.9447 62.6216L62.8536 64.5351L60.9447 66.4441L59.0358 64.5351ZM56.947 66.6239L58.7038 64.8671L60.4559 66.6239H56.947ZM54.5493 64.5351L56.4582 62.6262L58.3672 64.5351L56.4628 66.4441L54.5493 64.5351ZM53.996 66.6239L52.4651 66.6285L54.2173 64.8717L55.9741 66.6239H53.996ZM49.74 66.6285H47.9233L49.6801 64.8717L51.4323 66.6285H49.74ZM45.5256 64.5444L47.4346 62.6308L49.3481 64.5444L47.4346 66.4533L45.5256 64.5444ZM43.4415 66.6331L45.1936 64.8717L46.9504 66.6285L43.4415 66.6331ZM41.0438 64.549L42.9527 62.6354L44.8616 64.5444L42.9527 66.4533L41.0438 64.549ZM38.9596 66.6331L40.7118 64.8763L42.4685 66.6331H38.9596ZM36.5619 64.549L38.4708 62.6354L40.3798 64.549L38.4708 66.4533L36.5619 64.549ZM34.4777 66.6331L36.2299 64.881L37.9867 66.6331H34.4777ZM32.08 64.549L33.9844 62.64L35.8979 64.549L33.989 66.4579L32.08 64.549ZM29.9959 66.6377L31.748 64.881L33.5048 66.6377H29.9959ZM18.8419 66.647L18.8373 62.4694L29.3503 62.4648L29.3411 62.4786L31.4161 64.549L29.3411 66.6285L29.3549 66.6377L18.8419 66.647ZM33.5002 62.4602L31.748 64.217L29.9913 62.4648L33.5002 62.4602ZM37.9867 62.4602L36.2299 64.217L34.4731 62.4602H37.9867ZM42.4639 62.4556L40.7118 64.2124L38.9596 62.4602L42.4639 62.4556ZM46.9504 62.4556L45.1936 64.2078L43.4415 62.4556H46.9504ZM49.7354 62.451H51.4323L49.6755 64.2078L47.9233 62.4556L49.7354 62.451ZM53.83 64.5351L51.9487 66.421L50.0674 64.5397L51.9441 62.6585L53.83 64.5351ZM53.996 62.451H55.9741L54.2173 64.2031L52.4651 62.451H53.996ZM60.4559 62.451L58.6992 64.2031L56.947 62.451H60.4559ZM64.9378 62.4464L63.1856 64.1985L61.4242 62.4464H64.9378ZM69.4197 62.4418L67.6675 64.1985L65.9107 62.4464L69.4197 62.4418ZM73.9015 62.4371L72.1494 64.1939L70.3926 62.4418L73.9015 62.4371ZM78.388 62.4371L76.6312 64.1939L74.8745 62.4371H78.388ZM82.8699 62.4325L81.1131 64.1893L79.3563 62.4371L82.8699 62.4325ZM53.996 61.9807L49.7354 61.9853L18.367 62.0037L18.3716 67.1173L19.8978 67.1127V67.0666L49.74 67.0527L53.996 67.0481L84.0042 67.0297V67.0758H85.5304L85.5258 61.9668L53.996 61.9807Z" fill="#1A9D95"/>
<path d="M53.996 67.0481L49.7401 67.0527L19.8979 67.0666V67.6798L49.7401 67.6614H53.996L84.0042 67.6429V67.0297L53.996 67.0481Z" fill="white"/>
<path d="M84.0042 67.334V67.6429L50.57 67.6614H49.1637L15.6143 67.6844V67.3755H14.3232V68.9617L49.1683 68.9432H50.5746L85.2952 68.9202V67.334H84.0042Z" fill="#1A9D95"/>
<path d="M3.11851 71.3133H3.58883L3.57961 50.4302H3.10468L3.11851 71.3133Z" fill="white"/>
<path d="M100.788 71.2579H100.318L100.304 50.3702H100.774L100.788 71.2579Z" fill="white"/>
<path d="M101.83 76.0672L84.493 76.081L84.4883 70.6816L101.83 70.6723V76.0672Z" fill="#1A9D95"/>
<path d="M102.545 71.2579L83.769 71.2672L83.7598 50.3795L102.536 50.3702L102.545 71.2579Z" fill="#A3612A"/>
<path d="M101.042 102.945L85.3137 102.949L85.2953 74.5502L101.023 74.5456L101.042 102.945Z" fill="#1A9D95"/>
<path d="M100.064 42.0382L97.6019 50.3702H102.536L100.064 42.0382Z" fill="#1A9D95"/>
<path d="M86.2175 42.0474L83.7598 50.3795H88.689L86.2175 42.0474Z" fill="#1A9D95"/>
<path d="M97.9478 50.527H96.7812V46.6815H97.9432L97.9478 50.527Z" fill="#1A9D95"/>
<path d="M89.5051 50.5316H88.3431L88.3385 46.6861H89.5005L89.5051 50.5316Z" fill="#1A9D95"/>
<path d="M90.4457 80.8626H91.1512L91.1466 78.0315H90.4457V80.8626ZM91.6169 81.3329L89.9754 81.3375V77.5611H91.6123L91.6169 81.3329Z" fill="white"/>
<path d="M91.3818 79.6822H90.2106V79.2119H91.3818V79.6822Z" fill="white"/>
<path d="M95.1766 80.8626H95.882V78.0315H95.1719L95.1766 80.8626ZM96.3524 81.3329H94.7062V77.5611H96.3477L96.3524 81.3329Z" fill="white"/>
<path d="M96.1172 79.6776H94.9414V79.2119H96.1172V79.6776Z" fill="white"/>
<path d="M92.659 81.2822H93.6918V77.6119H92.659V81.2822ZM94.1575 81.7525H92.1887V77.1415H94.1575V81.7525Z" fill="white"/>
<path d="M93.927 79.6776H92.4238V79.2119H93.9224L93.927 79.6776Z" fill="white"/>
<path d="M90.4319 57.2083H91.1327V54.3772H90.4319V57.2083ZM91.6077 57.674H89.9615V53.9022H91.6031L91.6077 57.674Z" fill="white"/>
<path d="M91.3679 56.0233L90.1967 56.0279L90.1921 55.5576H91.3679V56.0233Z" fill="white"/>
<path d="M95.1627 57.2037H95.8682V54.3726H95.1627V57.2037ZM96.3385 57.674H94.6924V53.9022H96.3339L96.3385 57.674Z" fill="white"/>
<path d="M96.1033 56.0233H94.9276V55.553H96.1033V56.0233Z" fill="white"/>
<path d="M92.6451 57.6279H93.678L93.6734 53.953H92.6451V57.6279ZM94.1483 58.0936H92.1794L92.1748 53.4873L94.1437 53.4826L94.1483 58.0936Z" fill="white"/>
<path d="M93.9085 56.0233H92.4146L92.41 55.553H93.9085V56.0233Z" fill="white"/>
<path d="M90.4365 67.334H91.142L91.1374 64.5029L90.4365 64.5075V67.334ZM91.6123 67.8043H89.9662V64.0325H91.6077L91.6123 67.8043Z" fill="white"/>
<path d="M91.3772 66.1536H90.2014V65.6879L91.3772 65.6833V66.1536Z" fill="white"/>
<path d="M95.172 67.3294H95.8774L95.8728 64.4983H95.1673L95.172 67.3294ZM96.3431 67.7997H94.7016L94.697 64.0325H96.3431V67.7997Z" fill="white"/>
<path d="M96.108 66.149L94.9322 66.1536V65.6833H96.108V66.149Z" fill="white"/>
<path d="M92.6498 67.7536H93.6872L93.6826 64.0787H92.6498V67.7536ZM94.1529 68.2239H92.1841L92.1794 63.6129H94.1529V68.2239Z" fill="white"/>
<path d="M93.9178 66.1536H92.4146V65.6833H93.9178V66.1536Z" fill="white"/>
<path d="M90.4503 91.2096H91.1512V88.3831H90.4457L90.4503 91.2096ZM91.6261 91.6799H89.98V87.9128H91.6215L91.6261 91.6799Z" fill="white"/>
<path d="M91.3864 90.0292H90.2152L90.2106 89.5589H91.3864V90.0292Z" fill="white"/>
<path d="M95.1812 91.2096H95.8867V88.3785H95.1812V91.2096ZM96.357 91.6753H94.7155L94.7109 87.9082H96.3524L96.357 91.6753Z" fill="white"/>
<path d="M96.1218 90.0292H94.946V89.5589H96.1218V90.0292Z" fill="white"/>
<path d="M92.6636 91.6292H93.6964V87.9589H92.6636V91.6292ZM94.1667 92.0995H92.1978L92.1932 87.4886H94.1621L94.1667 92.0995Z" fill="white"/>
<path d="M93.9316 90.0292H92.4284V89.5589H93.9316V90.0292Z" fill="white"/>
<path d="M90.4549 101.695H91.1604L91.1558 98.8638H90.4549V101.695ZM91.6307 102.165H89.9846V98.3935H91.6261L91.6307 102.165Z" fill="white"/>
<path d="M91.3956 100.515H90.2198V100.044H91.3956V100.515Z" fill="white"/>
<path d="M95.1858 101.695H95.8913V98.8592H95.1858V101.695ZM96.3616 102.161H94.7201V98.3935H96.3616V102.161Z" fill="white"/>
<path d="M96.1264 100.51H94.9506V100.04H96.1264V100.51Z" fill="white"/>
<path d="M92.6728 102.115H93.7057L93.7011 98.4396H92.6682L92.6728 102.115ZM94.1714 102.58H92.2025L92.1979 97.9739H94.1714V102.58Z" fill="white"/>
<path d="M93.9362 100.51L92.433 100.515L92.4377 100.044L93.9362 100.04V100.51Z" fill="white"/>
<path d="M102.54 61.6948L83.7644 61.704V60.0763L102.54 60.0671V61.6948Z" fill="white"/>
<path d="M101.849 108.575L84.5068 108.584V102.013L101.849 102.004V108.575Z" fill="#1A9D95"/>
<path d="M2.07648 76.1271L19.4183 76.1179V70.7185L2.07648 70.7323V76.1271Z" fill="#1A9D95"/>
<path d="M1.35712 71.3133L20.133 71.304L20.1238 50.4164L1.3479 50.4302L1.35712 71.3133Z" fill="#A3612A"/>
<path d="M2.90644 103L18.6299 102.986L18.6114 74.5917L2.888 74.6009L2.90644 103Z" fill="#1A9D95"/>
<path d="M3.80555 42.0982L6.27703 50.4256L3.81016 50.4302H1.3479L3.80555 42.0982Z" fill="#1A9D95"/>
<path d="M17.6523 42.0843L20.1238 50.4164L17.6615 50.421H15.1946L17.6523 42.0843Z" fill="#1A9D95"/>
<path d="M5.93585 50.5823H7.09782V46.7322L5.93585 46.7368V50.5823Z" fill="#1A9D95"/>
<path d="M14.3785 50.5777H15.5405L15.5359 46.7276L14.3739 46.7322L14.3785 50.5777Z" fill="#1A9D95"/>
<path d="M16.1676 112.226L48.1493 88.5399L47.3885 87.5208L15.4068 111.198L16.1676 112.226ZM48.7395 88.6321L16.0754 112.821L14.812 111.115L47.4761 86.9214L48.7395 88.6321Z" fill="#1A9D95"/>
<path d="M16.4212 112.568L18.7036 115.652L48.8271 89.4667L48.3983 88.8903L16.4212 112.568ZM18.6345 116.275L15.8218 112.48L48.4859 88.2909L49.4081 89.5312L49.2605 89.6603L18.6345 116.275Z" fill="#1A9D95"/>
<path d="M18.8788 115.934L18.4592 115.994L17.7814 110.788L21.7376 112.213L21.1244 108.57L24.8224 109.861L24.329 106.237L27.8241 107.15L27.6812 103.788L30.8674 104.568L30.4063 101.64L33.1314 102.345L32.9146 99.8045L35.5982 100.551L35.5567 97.8817L37.8345 98.4119L37.7884 96.3139L39.6651 96.7566L39.7619 94.8661L41.302 95.2488L41.1821 93.718L42.7913 93.9854L42.713 92.5745L44.2346 92.9064L44.1331 91.5278L45.5625 91.7906L45.7193 90.4027L47.0242 90.601L47.015 89.4067L48.1262 89.6327L48.1308 88.8442H48.5551V90.1583L47.4484 89.9278L47.4576 91.0989L46.0928 90.8868L45.9314 92.2932L44.5988 92.0442L44.7003 93.4459L43.1694 93.1139L43.2478 94.4926L41.6524 94.2252L41.7723 95.8021L40.1631 95.401L40.0663 97.2915L38.2219 96.8534L38.2726 98.9514L35.9902 98.4212L36.0363 101.114L33.3896 100.376L33.6063 102.908L30.9273 102.216L31.3884 105.139L28.1331 104.342L28.276 107.708L24.8408 106.809L25.3342 110.488L21.6639 109.206L22.2725 112.863L18.2933 111.424L18.8788 115.934Z" fill="#1A9D95"/>
<path d="M18.2609 111.106L18.0442 111.263L16.873 109.681L17.0898 109.524L18.2609 111.106Z" fill="#1A9D95"/>
<path d="M19.9716 109.843L19.7595 109.999L18.5883 108.418L18.8004 108.261L19.9716 109.843Z" fill="#1A9D95"/>
<path d="M21.6823 108.575L21.4656 108.731L20.2944 107.15L20.5065 106.993L21.6823 108.575Z" fill="#1A9D95"/>
<path d="M23.3884 107.307L23.1763 107.463L22.0051 105.882L22.2218 105.725L23.3884 107.307Z" fill="#1A9D95"/>
<path d="M25.1037 106.043L24.8869 106.2L23.7158 104.618L23.9279 104.462L25.1037 106.043Z" fill="#1A9D95"/>
<path d="M26.8097 104.775L26.5976 104.932L25.4264 103.35L25.6385 103.194L26.8097 104.775Z" fill="#1A9D95"/>
<path d="M28.5204 103.507L28.3083 103.668L27.1371 102.082L27.3492 101.926L28.5204 103.507Z" fill="#1A9D95"/>
<path d="M30.2311 102.239L30.0144 102.4L28.8478 100.819L29.0599 100.662L30.2311 102.239Z" fill="#1A9D95"/>
<path d="M31.9417 100.976L31.725 101.132L30.5584 99.5508L30.7705 99.3941L31.9417 100.976Z" fill="#1A9D95"/>
<path d="M33.6524 99.7076L33.4403 99.869L32.2691 98.2875L32.4812 98.1261L33.6524 99.7076Z" fill="#1A9D95"/>
<path d="M35.3584 98.4396L35.1463 98.601L33.9752 97.0194L34.1873 96.8627L35.3584 98.4396Z" fill="#1A9D95"/>
<path d="M37.0691 97.1808L36.857 97.333L35.6858 95.756L35.8979 95.5946L37.0691 97.1808Z" fill="#1A9D95"/>
<path d="M38.7844 95.9082L38.5677 96.0696L37.3965 94.4834L37.6132 94.3266L38.7844 95.9082Z" fill="#1A9D95"/>
<path d="M40.4904 94.6402L40.2783 94.8016L39.1025 93.22L39.3193 93.0632L40.4904 94.6402Z" fill="#1A9D95"/>
<path d="M42.2011 93.3768L41.989 93.5335L40.8178 91.952L41.0299 91.7952L42.2011 93.3768Z" fill="#1A9D95"/>
<path d="M43.9118 92.1088L43.6951 92.2701L42.5239 90.684L42.7406 90.5318L43.9118 92.1088Z" fill="#1A9D95"/>
<path d="M45.6178 90.8453L45.4057 91.0021L44.2346 89.4206L44.4513 89.2638L45.6178 90.8453Z" fill="#1A9D95"/>
<path d="M47.3332 89.5773L47.1164 89.7387L45.9453 88.1525L46.162 87.9958L47.3332 89.5773Z" fill="#1A9D95"/>
<path d="M88.6613 111.157L56.6519 87.5116L55.8911 88.5399L87.9051 112.18L88.6613 111.157ZM56.5597 86.9168L89.2561 111.069L87.9927 112.78L55.3009 88.6275L56.5597 86.9168Z" fill="#1A9D95"/>
<path d="M55.6421 88.8857L55.2133 89.462L85.369 115.615L87.6468 112.531L55.6421 88.8857ZM54.7845 89.6557L54.6369 89.5312L55.5545 88.2909L88.2417 112.439L85.4382 116.233L54.7845 89.6557Z" fill="#1A9D95"/>
<path d="M85.1892 115.897L85.6134 115.952L86.282 110.746L82.335 112.18L82.9391 108.533L79.2457 109.829L79.7298 106.204L76.2393 107.127L76.3777 103.761L73.1915 104.549L73.648 101.617L70.9275 102.327L71.1442 99.7814L68.456 100.533L68.4975 97.8632L66.2197 98.3935L66.2658 96.2955L64.3845 96.7428L64.2877 94.8569L62.7476 95.235L62.8629 93.7041L61.2537 93.9716L61.3321 92.5652L59.8104 92.8972L59.9119 91.5185L58.4825 91.7814L58.3211 90.3981L57.0162 90.5963L57.0254 89.3975L55.9142 89.628V88.8396H55.4854L55.49 90.1537L56.5966 89.9231L56.5874 91.0943L57.9522 90.8822L58.1136 92.2886L59.4462 92.0396L59.3447 93.4367L60.8802 93.1001L60.7972 94.4788L62.3972 94.2113L62.2773 95.7929L63.8865 95.3918L63.9834 97.273L65.8231 96.8396L65.7816 98.933L68.0641 98.4027L68.0226 101.096L70.6647 100.358L70.448 102.885L73.1269 102.193L72.6704 105.116L75.9258 104.309L75.7875 107.685L79.2226 106.776L78.7293 110.456L82.4042 109.169L81.7955 112.826L85.7748 111.387L85.1892 115.897Z" fill="#1A9D95"/>
<path d="M85.8071 111.064L86.0192 111.226L87.1904 109.64L86.9783 109.487L85.8071 111.064Z" fill="#1A9D95"/>
<path d="M84.0918 109.806L84.3085 109.958L85.4797 108.376L85.263 108.219L84.0918 109.806Z" fill="#1A9D95"/>
<path d="M82.3811 108.538L82.5978 108.694L83.769 107.108L83.5523 106.956L82.3811 108.538Z" fill="#1A9D95"/>
<path d="M80.6705 107.274L80.8872 107.431L82.0538 105.849L81.837 105.688L80.6705 107.274Z" fill="#1A9D95"/>
<path d="M78.9598 106.006L79.1765 106.168L80.3431 104.586L80.131 104.425L78.9598 106.006Z" fill="#1A9D95"/>
<path d="M77.2491 104.743L77.4613 104.9L78.6324 103.318L78.4203 103.161L77.2491 104.743Z" fill="#1A9D95"/>
<path d="M75.5385 103.479L75.7506 103.636L76.9217 102.055L76.705 101.898L75.5385 103.479Z" fill="#1A9D95"/>
<path d="M73.8278 102.216L74.0399 102.373L75.2111 100.791L74.9943 100.634L73.8278 102.216Z" fill="#1A9D95"/>
<path d="M72.1125 100.953L72.3292 101.109L73.5004 99.5232L73.2837 99.371L72.1125 100.953Z" fill="#1A9D95"/>
<path d="M70.4019 99.6846L70.614 99.846L71.7851 98.2644L71.573 98.1076L70.4019 99.6846Z" fill="#1A9D95"/>
<path d="M68.6912 98.4212L68.9033 98.5779L70.0745 97.001L69.8623 96.8396L68.6912 98.4212Z" fill="#1A9D95"/>
<path d="M66.9805 97.1624L67.1926 97.3191L68.3638 95.7376L68.1517 95.5762L66.9805 97.1624Z" fill="#1A9D95"/>
<path d="M65.2698 95.8944L65.4819 96.0511L66.6531 94.4696L66.4364 94.3128L65.2698 95.8944Z" fill="#1A9D95"/>
<path d="M63.5545 94.6263L63.7712 94.7877L64.9424 93.2062L64.7257 93.0494L63.5545 94.6263Z" fill="#1A9D95"/>
<path d="M61.8439 93.3675L62.0606 93.5243L63.2318 91.9381L63.0151 91.7814L61.8439 93.3675Z" fill="#1A9D95"/>
<path d="M60.1332 92.1041L60.3453 92.2563L61.5165 90.6747L61.3044 90.518L60.1332 92.1041Z" fill="#1A9D95"/>
<path d="M58.4225 90.8407L58.6347 90.9929L59.8058 89.4113L59.5937 89.2546L58.4225 90.8407Z" fill="#1A9D95"/>
<path d="M56.7119 89.5727L56.924 89.7295L58.0951 88.1479L57.883 87.9911L56.7119 89.5727Z" fill="#1A9D95"/>
<path d="M13.4702 78.0776H12.7647V80.9087H13.4702V78.0776ZM12.2944 77.6072H13.9405V81.379H12.299L12.2944 77.6072Z" fill="white"/>
<path d="M12.5295 79.7283H13.7053V79.258H12.5295V79.7283Z" fill="white"/>
<path d="M8.7347 78.0822H8.02922L8.03383 80.9133H8.73931L8.7347 78.0822ZM7.5589 77.6119H9.20502V81.3836H7.56351L7.5589 77.6119Z" fill="white"/>
<path d="M7.79865 79.7329H8.96983V79.258L7.79865 79.2626V79.7329Z" fill="white"/>
<path d="M11.2523 77.658H10.2194L10.224 81.3329L11.2569 81.3283L11.2523 77.658ZM9.74908 77.1923L11.7226 77.1876L11.7272 81.7986H9.7537L9.74908 77.1923Z" fill="white"/>
<path d="M9.98889 79.7283H11.4921V79.258H9.98889V79.7283Z" fill="white"/>
<path d="M13.4563 54.4187L12.7508 54.4233L12.7554 57.2544H13.4563V54.4187ZM12.2805 53.953H13.9266V57.7201H12.2851L12.2805 53.953Z" fill="white"/>
<path d="M12.5203 56.0694H13.6915V55.5991L12.5157 55.6037L12.5203 56.0694Z" fill="white"/>
<path d="M8.72548 54.4233H8.01539L8.02 57.2544H8.72548V54.4233ZM7.54968 53.953H9.19119L9.1958 57.7201L7.54968 57.7247V53.953Z" fill="white"/>
<path d="M7.78485 56.074H8.96065V55.6037H7.78485V56.074Z" fill="white"/>
<path d="M11.243 54.0037H10.2102V57.674H11.243V54.0037ZM9.73987 53.5334H11.7088L11.7134 58.1397H9.74448L9.73987 53.5334Z" fill="white"/>
<path d="M9.97504 56.074L11.4782 56.0694V55.6037H9.97504V56.074Z" fill="white"/>
<path d="M13.4609 64.549H12.7601V67.3801H13.4609V64.549ZM12.2897 64.0787H13.9312V67.8458L12.2897 67.8504V64.0787Z" fill="white"/>
<path d="M12.5249 66.1997H13.6961V65.7294H12.5249V66.1997Z" fill="white"/>
<path d="M8.73012 64.549H8.02464V67.3847H8.73473L8.73012 64.549ZM7.55432 64.0787H9.20044V67.8504H7.55432V64.0787Z" fill="white"/>
<path d="M7.78943 66.1997H8.96523V65.7294H7.78943V66.1997Z" fill="white"/>
<path d="M11.2476 64.1294H10.2148V67.7997H11.2476V64.1294ZM9.74908 63.6637H11.718V68.27H9.74908V63.6637Z" fill="white"/>
<path d="M9.97968 66.1997H11.4829V65.7294H9.97968V66.1997Z" fill="white"/>
<path d="M13.4747 88.4246H12.7693V91.2557L13.4747 91.2603V88.4246ZM12.299 87.9543H13.9451V91.726H12.3036L12.299 87.9543Z" fill="white"/>
<path d="M12.5388 90.0753H13.7099V89.605H12.5388V90.0753Z" fill="white"/>
<path d="M8.74391 88.4292H8.03382L8.03843 91.2603H8.74391V88.4292ZM7.56812 87.9589H9.20962L9.21423 91.726L7.56812 91.7307V87.9589Z" fill="white"/>
<path d="M7.80328 90.0799H8.97908V89.6096H7.80328V90.0799Z" fill="white"/>
<path d="M11.2615 88.0096H10.2287V91.6753H11.2615V88.0096ZM9.75836 87.5393L11.7272 87.5347L11.7319 92.1502H9.76297L9.75836 87.5393Z" fill="white"/>
<path d="M9.99347 90.0753H11.4966V89.605L9.99347 89.6096V90.0753Z" fill="white"/>
<path d="M13.4794 98.9053H12.7785V101.741H13.484L13.4794 98.9053ZM12.3082 98.4396H13.9497L13.9543 102.211H12.3128L12.3082 98.4396Z" fill="white"/>
<path d="M12.5433 100.561H13.7145L13.7191 100.086L12.5433 100.09V100.561Z" fill="white"/>
<path d="M8.74855 98.9099H8.04307V101.746H8.74855V98.9099ZM7.57275 98.4396H9.21887L9.22348 102.211H7.57275V98.4396Z" fill="white"/>
<path d="M7.80792 100.561H8.98372V100.095H7.80792V100.561Z" fill="white"/>
<path d="M11.2661 98.4903H10.2333L10.2379 102.161H11.2661V98.4903ZM9.76294 98.02H11.7364L11.741 102.631H9.76755L9.76294 98.02Z" fill="white"/>
<path d="M10.0027 100.561H11.5013V100.09H10.0027V100.561Z" fill="white"/>
<path d="M1.35254 61.7501L20.1284 61.7409V60.1132L1.35254 60.1224V61.7501Z" fill="white"/>
<path d="M2.09491 108.63L19.4368 108.625V102.05L2.09491 102.059V108.63Z" fill="#1A9D95"/>
<path d="M20.7094 66.9651L25.1912 62.4786L24.8546 62.1467L20.3774 66.6331L20.7094 66.9651Z" fill="#1A9D95"/>
<path d="M24.8593 66.9605L25.1913 66.6285L20.7048 62.1513L20.3728 62.4833L24.8593 66.9605Z" fill="#1A9D95"/>
<path d="M25.1912 66.9605L29.6685 62.4786L29.3411 62.1467L24.8593 66.6285L25.1912 66.9605Z" fill="#1A9D95"/>
<path d="M29.3411 66.9559L29.6731 66.6285L25.1913 62.1467L24.8547 62.4786L29.3411 66.9559Z" fill="#1A9D95"/>
<path d="M103.393 118.235L82.9759 118.244L82.9713 107.062L103.389 107.048L103.393 118.235Z" fill="#A3612A"/>
<path d="M0.56867 118.294L20.9814 118.281L20.9768 107.094L0.559448 107.104L0.56867 118.294Z" fill="#A3612A"/>
<path d="M61.4565 118.419H42.3671V57.5541H61.4565V118.419Z" fill="#1A9D95"/>
<path d="M61.4565 32.535H42.3671V28.6664H61.4565V32.535Z" fill="#1A9D95"/>
<path d="M45.1199 71.7375H44.087V59.8735H45.1199V71.7375Z" fill="white"/>
<path d="M46.7475 71.7375H45.7147V59.8735H46.7475V71.7375Z" fill="white"/>
<path d="M48.3706 71.7375H47.3378V59.8735H48.3706V71.7375Z" fill="white"/>
<path d="M49.9937 71.7375H48.9608V59.8735H49.9937V71.7375Z" fill="white"/>
<path d="M51.6167 71.7375H50.5839V59.8735H51.6167V71.7375Z" fill="white"/>
<path d="M53.2398 71.7375H52.2069V59.8735H53.2398V71.7375Z" fill="white"/>
<path d="M54.8629 71.7375H53.83V59.8735H54.8629V71.7375Z" fill="white"/>
<path d="M56.4859 71.7375H55.4576V59.8735H56.4859V71.7375Z" fill="white"/>
<path d="M58.1136 71.7375H57.0807V59.8735H58.1136V71.7375Z" fill="white"/>
<path d="M59.7367 71.7375H58.7038V59.8735H59.7367V71.7375Z" fill="white"/>
<path d="M45.1199 86.5249H44.087V74.6608H45.1199V86.5249Z" fill="white"/>
<path d="M46.7475 86.5249H45.7147V74.6608H46.7475V86.5249Z" fill="white"/>
<path d="M48.3706 86.5249H47.3378V74.6608H48.3706V86.5249Z" fill="white"/>
<path d="M49.9937 86.5249H48.9608V74.6608H49.9937V86.5249Z" fill="white"/>
<path d="M51.6167 86.5249H50.5839V74.6608H51.6167V86.5249Z" fill="white"/>
<path d="M53.2398 86.5249H52.2069V74.6608H53.2398V86.5249Z" fill="white"/>
<path d="M54.8629 86.5249H53.83V74.6608H54.8629V86.5249Z" fill="white"/>
<path d="M56.4859 86.5249H55.4576V74.6608H56.4859V86.5249Z" fill="white"/>
<path d="M58.1136 86.5249H57.0807V74.6608H58.1136V86.5249Z" fill="white"/>
<path d="M59.7367 86.5249H58.7038V74.6608H59.7367V86.5249Z" fill="white"/>
<path d="M45.1199 101.308H44.087V89.4482H45.1199V101.308Z" fill="white"/>
<path d="M46.7475 101.308H45.7147V89.4482H46.7475V101.308Z" fill="white"/>
<path d="M48.3706 101.308H47.3378V89.4482H48.3706V101.308Z" fill="white"/>
<path d="M49.9937 101.308H48.9608V89.4482H49.9937V101.308Z" fill="white"/>
<path d="M51.6167 101.308H50.5839V89.4482H51.6167V101.308Z" fill="white"/>
<path d="M53.2398 101.308H52.2069V89.4482H53.2398V101.308Z" fill="white"/>
<path d="M54.8629 101.308H53.83V89.4482H54.8629V101.308Z" fill="white"/>
<path d="M56.4859 101.308H55.4576V89.4482H56.4859V101.308Z" fill="white"/>
<path d="M58.1136 101.308H57.0807V89.4482H58.1136V101.308Z" fill="white"/>
<path d="M59.7367 101.308H58.7038V89.4482H59.7367V101.308Z" fill="white"/>
<path d="M45.1199 116.095H44.087V104.236H45.1199V116.095Z" fill="white"/>
<path d="M46.7475 116.095H45.7147V104.236H46.7475V116.095Z" fill="white"/>
<path d="M48.3706 116.095H47.3378V104.236H48.3706V116.095Z" fill="white"/>
<path d="M49.9937 116.095H48.9608V104.236H49.9937V116.095Z" fill="white"/>
<path d="M51.6167 116.095H50.5839V104.236H51.6167V116.095Z" fill="white"/>
<path d="M53.2398 116.095H52.2069V104.236H53.2398V116.095Z" fill="white"/>
<path d="M54.8629 116.095H53.83V104.236H54.8629V116.095Z" fill="white"/>
<path d="M56.4859 116.095H55.4576V104.236H56.4859V116.095Z" fill="white"/>
<path d="M58.1136 116.095H57.0807V104.236H58.1136V116.095Z" fill="white"/>
<path d="M59.7367 116.095H58.7038V104.236H59.7367V116.095Z" fill="white"/>
<path d="M63.1303 58.8406H40.6934V56.7795H63.1303V58.8406Z" fill="#1A9D95"/>
<path d="M63.1303 54.7138H40.6934V32.535H63.1303V54.7138Z" fill="#A3612A"/>
<path d="M62.2266 26.4347L61.3275 32.535H63.1303L62.2266 26.4347Z" fill="#A3612A"/>
<path d="M41.5925 26.4347L42.4962 32.535H40.6934L41.5925 26.4347Z" fill="#A3612A"/>
<path d="M62.2266 56.7795H41.5925V54.7138H62.2266V56.7795Z" fill="#1A9D95"/>
<path d="M42.6391 56.3922H42.1089V55.1057H42.6391V56.3922Z" fill="white"/>
<path d="M43.6398 56.3922H43.1187V55.1057H43.6398V56.3922Z" fill="white"/>
<path d="M44.6449 56.3922H44.1193V55.1057H44.6449V56.3922Z" fill="white"/>
<path d="M45.6501 56.3922H45.1245V55.1057H45.6501V56.3922Z" fill="white"/>
<path d="M46.6553 56.3922H46.1251V55.1057H46.6553V56.3922Z" fill="white"/>
<path d="M47.6559 56.3922H47.1302V55.1057H47.6559V56.3922Z" fill="white"/>
<path d="M48.6611 56.3922H48.1354V55.1057H48.6611V56.3922Z" fill="white"/>
<path d="M49.6663 56.3922H49.1406V55.1057H49.6663V56.3922Z" fill="white"/>
<path d="M50.6715 56.3922H50.1412V55.1057H50.6715V56.3922Z" fill="white"/>
<path d="M51.6721 56.3922H51.1464V55.1057H51.6721V56.3922Z" fill="white"/>
<path d="M52.6773 56.3922H52.1516V55.1057H52.6773V56.3922Z" fill="white"/>
<path d="M53.6824 56.3922H53.1522V55.1057H53.6824V56.3922Z" fill="white"/>
<path d="M54.683 56.3922H54.162V55.1057H54.683V56.3922Z" fill="white"/>
<path d="M55.6882 56.3922H55.1625V55.1057H55.6882V56.3922Z" fill="white"/>
<path d="M56.6934 56.3922H56.1677V55.1057H56.6934V56.3922Z" fill="white"/>
<path d="M57.6986 56.3922H57.173V55.1057H57.6986V56.3922Z" fill="white"/>
<path d="M58.6992 56.3922H58.1782V55.1057H58.6992V56.3922Z" fill="white"/>
<path d="M59.709 56.3922H59.1787V55.1057H59.709V56.3922Z" fill="white"/>
<path d="M60.7095 56.3922H60.1839V55.1057H60.7095V56.3922Z" fill="white"/>
<path d="M61.7147 56.3922H61.1891V55.1057H61.7147V56.3922Z" fill="white"/>
<path d="M51.9118 51.878C47.3562 51.878 43.6582 48.1846 43.6582 43.6244C43.6582 39.0688 47.3562 35.3754 51.9118 35.3754C56.4675 35.3754 60.1655 39.0688 60.1655 43.6244C60.1655 48.1846 56.4675 51.878 51.9118 51.878ZM42.7545 34.6007V52.6527H61.0692V34.6007H42.7545Z" fill="#1A9D95"/>
<path d="M51.9118 36.3022C47.8726 36.3022 44.585 39.5852 44.585 43.6244C44.585 47.6682 47.8726 50.9512 51.9118 50.9512C55.951 50.9512 59.2386 47.6682 59.2386 43.6244C59.2386 39.5852 55.951 36.3022 51.9118 36.3022ZM51.9118 51.4677C47.5867 51.4677 44.0685 47.9495 44.0685 43.6244C44.0685 39.2993 47.5867 35.7811 51.9118 35.7811C56.2369 35.7811 59.7551 39.2993 59.7551 43.6244C59.7551 47.9495 56.2369 51.4677 51.9118 51.4677Z" fill="white"/>
<path d="M52.087 38.2711H51.7412V36.8601H52.087V38.2711Z" fill="white"/>
<path d="M48.2461 39.7189L48.0017 39.9633L47.0057 38.9627L47.2501 38.7229L48.2461 39.7189Z" fill="white"/>
<path d="M46.5585 43.4538V43.7996H45.1475V43.4538H46.5585Z" fill="white"/>
<path d="M48.0017 47.2947L48.2461 47.5345L47.2501 48.5305L47.0057 48.2907L48.0017 47.2947Z" fill="white"/>
<path d="M51.7412 48.9823H52.087V50.3933H51.7412V48.9823Z" fill="white"/>
<path d="M55.5776 47.5345L55.822 47.2947L56.8179 48.2907L56.5735 48.5305L55.5776 47.5345Z" fill="white"/>
<path d="M57.2651 43.7996V43.4538H58.6761V43.7996H57.2651Z" fill="white"/>
<path d="M55.822 39.9633L55.5776 39.7189L56.5735 38.7229L56.8179 38.9627L55.822 39.9633Z" fill="white"/>
<path d="M52.3407 43.6244C52.3407 43.8642 52.147 44.0532 51.9119 44.0532C51.6721 44.0532 51.483 43.8642 51.483 43.6244C51.483 43.3892 51.6721 43.2002 51.9119 43.2002C52.147 43.2002 52.3407 43.3892 52.3407 43.6244Z" fill="white"/>
<path d="M54.7199 40.8209L51.9118 43.3616L52.1746 43.6244L54.7199 40.8209Z" fill="white"/>
<path d="M48.8962 38.3033L51.589 43.3846L51.7504 43.2878L51.9118 43.2002L48.8962 38.3033Z" fill="white"/>
<path d="M43.5844 32.12H43.1049V29.086H43.5844V32.12Z" fill="white"/>
<path d="M44.4881 32.12H44.0086V29.086H44.4881V32.12Z" fill="white"/>
<path d="M45.3919 32.12H44.9078V29.086H45.3919V32.12Z" fill="white"/>
<path d="M46.2911 32.12H45.8115V29.086H46.2911V32.12Z" fill="white"/>
<path d="M47.1948 32.12H46.7106V29.086H47.1948V32.12Z" fill="white"/>
<path d="M48.0939 32.12H47.6144V29.086H48.0939V32.12Z" fill="white"/>
<path d="M48.9977 32.12H48.5135V29.086H48.9977V32.12Z" fill="white"/>
<path d="M49.8968 32.12H49.4173V29.086H49.8968V32.12Z" fill="white"/>
<path d="M50.8006 32.12H50.321V29.086H50.8006V32.12Z" fill="white"/>
<path d="M51.7043 32.12H51.2202V29.086H51.7043V32.12Z" fill="white"/>
<path d="M52.6035 32.12H52.124V29.086H52.6035V32.12Z" fill="white"/>
<path d="M53.5072 32.12H53.0231V29.086H53.5072V32.12Z" fill="white"/>
<path d="M54.4064 32.12H53.9222V29.086H54.4064V32.12Z" fill="white"/>
<path d="M55.3101 32.12H54.826V29.086H55.3101V32.12Z" fill="white"/>
<path d="M56.2093 32.12H55.7297V29.086H56.2093V32.12Z" fill="white"/>
<path d="M57.113 32.12H56.6335V29.086H57.113V32.12Z" fill="white"/>
<path d="M58.0167 32.12H57.5326V29.086H58.0167V32.12Z" fill="white"/>
<path d="M58.9159 32.12H58.4363V29.086H58.9159V32.12Z" fill="white"/>
<path d="M59.8151 32.12H59.3355V29.086H59.8151V32.12Z" fill="white"/>
<path d="M60.7188 32.12H60.2393V29.086H60.7188V32.12Z" fill="white"/>
<path d="M47.0012 19.4814L46.6784 22.3079H47.3239L47.0012 19.4814Z" fill="#1A9D95"/>
<path d="M56.8271 19.4814L56.5043 22.3079H57.1499L56.8271 19.4814Z" fill="#1A9D95"/>
<path d="M56.532 22.3079H47.2824V17.9228H56.532V22.3079Z" fill="#1A9D95"/>
<path d="M47.8772 21.8283H47.6467V18.3978H47.8772V21.8283Z" fill="white"/>
<path d="M48.472 21.8283H48.2369V18.3978H48.472V21.8283Z" fill="white"/>
<path d="M49.0669 21.8283H48.8317V18.3978H49.0669V21.8283Z" fill="white"/>
<path d="M49.657 21.8283H49.4219V18.3978H49.657V21.8283Z" fill="white"/>
<path d="M50.2473 21.8283H50.0167V18.3978H50.2473V21.8283Z" fill="white"/>
<path d="M50.8421 21.8283H50.6115V18.3978H50.8421V21.8283Z" fill="white"/>
<path d="M51.4369 21.8283H51.2017V18.3978H51.4369V21.8283Z" fill="white"/>
<path d="M52.0271 21.8283H51.7966V18.3978H52.0271V21.8283Z" fill="white"/>
<path d="M52.6219 21.8283H52.3868V18.3978H52.6219V21.8283Z" fill="white"/>
<path d="M53.2167 21.8283H52.9816V18.3978H53.2167V21.8283Z" fill="white"/>
<path d="M53.807 21.8283H53.5764V18.3978H53.807V21.8283Z" fill="white"/>
<path d="M54.4017 21.8283H54.1666V18.3978H54.4017V21.8283Z" fill="white"/>
<path d="M54.992 21.8283H54.7614V18.3978H54.992V21.8283Z" fill="white"/>
<path d="M55.5868 21.8283H55.3562V18.3978H55.5868V21.8283Z" fill="white"/>
<path d="M56.1816 21.8283H55.9464V18.3978H56.1816V21.8283Z" fill="white"/>
<path d="M57.1499 22.3079H46.6784L42.3763 28.6664H61.4473L57.1499 22.3079Z" fill="#1A9D95"/>
<path d="M51.8288 5.71299L47.3055 17.9228H56.5228L51.8288 5.71299Z" fill="#A3612A"/>
<path d="M52.0778 6.48764H51.5983V1.16196H52.0778V6.48764Z" fill="#A3612A"/>
<path d="M52.4836 0.645536C52.4836 1.00058 52.1977 1.29107 51.838 1.29107C51.483 1.29107 51.1925 1.00058 51.1925 0.645536C51.1925 0.29049 51.483 0 51.838 0C52.1977 0 52.4836 0.29049 52.4836 0.645536Z" fill="#1A9D95"/>
</svg>
