<svg width="93" height="120" viewBox="0 0 93 120" fill="none" xmlns="http://www.w3.org/2000/svg">
<path d="M46.9531 115C70.7014 115 89.9531 95.7482 89.9531 72C89.9531 48.2518 70.7014 29 46.9531 29C23.2049 29 3.95312 48.2518 3.95312 72C3.95312 95.7482 23.2049 115 46.9531 115Z" fill="#DEF0E2" stroke="#C8E1CC" stroke-width="6"/>
<path d="M72.4463 72.0517H22.551V61.0968H72.4463V72.0517Z" fill="#0D706A"/>
<path d="M47.4986 74.1876H26.6045V119.925H36.2067V93.297C36.2067 83.0446 47.4986 83.2202 47.4986 83.2202C47.4986 83.2202 58.7905 83.0446 58.7905 93.297V119.925H68.3879V74.1876H47.4986Z" fill="#1A9D95"/>
<path d="M47.4986 70.1436H22.551V92.96H34.0138C34.0138 80.7235 47.4986 80.9276 47.4986 80.9276C47.4986 80.9276 60.9835 80.7235 60.9835 92.96H72.4463V70.1436H47.4986Z" fill="#5BC9C3"/>
<path d="M72.4463 77.7143H22.551V76.3568H72.4463V77.7143Z" fill="#1A9D95"/>
<path d="M72.4463 76.4327H22.551V75.7635H72.4463V76.4327Z" fill="#5BC9C3"/>
<path d="M73.3434 66.9967H21.54V62.9764H73.3434V66.9967Z" fill="#5BC9C3"/>
<path d="M73.3433 64.0776H21.6539L18.9531 65.6487L47.4986 66.9967L76.0393 65.6487L73.3433 64.0776Z" fill="#0D706A"/>
<path d="M47.4986 65.6487H18.9531L22.551 71.2638H72.4462L76.0393 65.6487H47.4986Z" fill="#1A9D95"/>
<path d="M34.0138 92.96V119.925H22.551V92.96H34.0138Z" fill="#0D706A"/>
<path d="M60.9834 92.96V119.925H72.4462V92.96H60.9834Z" fill="#0D706A"/>
<path d="M31.9917 117.561H24.236V95.2099H31.9917V117.561Z" fill="#5BC9C3"/>
<path d="M31.1848 116.403H25.0428V96.2921H31.1848V116.403Z" fill="#5BC9C3"/>
<path d="M31.9917 90.8099H24.236V80.4815H31.9917V90.8099Z" fill="#5BC9C3"/>
<path d="M31.1848 89.7372H25.0428V81.5542H31.1848V89.7372Z" fill="#0D706A"/>
<path d="M63.0054 90.8099H70.7612V80.4815H63.0054V90.8099Z" fill="#5BC9C3"/>
<path d="M63.0054 117.561H70.7612V95.2099H63.0054V117.561Z" fill="#5BC9C3"/>
<path d="M34.4647 93.5201H21.7631V92.7749H34.4647V93.5201Z" fill="#1A9D95"/>
<path d="M34.4647 93.1451H21.7631V92.4047H34.4647V93.1451Z" fill="#5BC9C3"/>
<path d="M60.5325 93.5201H73.2294V92.7749H60.5325V93.5201Z" fill="#1A9D95"/>
<path d="M60.5325 93.1451H73.2294V92.4047H60.5325V93.1451Z" fill="#5BC9C3"/>
<path d="M63.8076 89.7372H69.9543V81.5542H63.8076V89.7372Z" fill="#0D706A"/>
<path d="M63.8076 116.403H69.9543V96.2921H63.8076V116.403Z" fill="#5BC9C3"/>
<path d="M61.9758 98.8364V96.3255H62.6546V98.8364H61.9758ZM61.2354 98.8364H60.5566V96.3255H61.2354V98.8364ZM63.3998 96.3255H63.9551V98.8364H63.3998V96.3255ZM59.8114 98.8364H59.1327V96.3255H59.8114V98.8364ZM52.312 105.595H57.4619L59.2561 109.962C55.7579 106.483 52.312 105.595 52.312 105.595ZM39.8287 104.224V103.725H56.4841V104.224H39.8287ZM37.0567 109.962L38.8509 105.595H44.0008C44.0008 105.595 40.5549 106.483 37.0567 109.962ZM36.3827 96.3255H37.0567V98.8364H36.3827V96.3255ZM37.8019 96.3255H38.4807V98.8364H37.8019V96.3255ZM39.2259 96.3255H39.9046V98.8364H39.2259V96.3255ZM40.6451 96.3255H41.3238V98.8364H40.6451V96.3255ZM41.5137 79.4327H41.8554V80.6953H41.5137V79.4327ZM42.069 96.3255H42.7478V98.8364H42.069V96.3255ZM42.2304 79.4327H42.5721V80.6953H42.2304V79.4327ZM44.1717 96.3255V98.8364H43.4882V96.3255H44.1717ZM45.5909 96.3255V98.8364H44.9122V96.3255H45.5909ZM47.0149 96.3255V98.8364H46.3361V96.3255H47.0149ZM48.4388 96.3255V98.8364H47.7553V96.3255H48.4388ZM49.858 96.3255V98.8364H49.1793V96.3255H49.858ZM51.2772 96.3255V98.8364H50.6032V96.3255H51.2772ZM52.7012 96.3255V98.8364H52.0224V96.3255H52.7012ZM47.3756 81.2032H48.9372C49.2837 82.3043 51.1965 88.3466 53.584 95.3193H42.7288C45.1163 88.3466 47.0291 82.3043 47.3756 81.2032ZM42.9424 79.4327H43.2841V80.6953H42.9424V79.4327ZM43.6591 79.4327H44.0008V80.6953H43.6591V79.4327ZM44.3758 79.4327H44.7176V80.6953H44.3758V79.4327ZM45.0925 79.4327H45.4343V80.6953H45.0925V79.4327ZM45.8093 79.4327H46.151V80.6953H45.8093V79.4327ZM46.526 79.4327H46.8677V80.6953H46.526V79.4327ZM47.5797 79.4327V80.6953H47.238V79.4327H47.5797ZM48.6714 79.4327H49.0131V80.6953H48.6714V79.4327ZM48.2964 79.4327V80.6953H47.9547V79.4327H48.2964ZM48.1588 77.9043H47.5797C47.5797 77.9043 48.0686 72.7117 48.1588 68.7436C48.249 72.7117 48.7331 77.9043 48.7331 77.9043H48.1588ZM49.7299 79.4327V80.6953H49.3881V79.4327H49.7299ZM50.1001 79.4327H50.4466V80.6953H50.1001V79.4327ZM50.8168 79.4327H51.1586V80.6953H50.8168V79.4327ZM51.5335 79.4327H51.8753V80.6953H51.5335V79.4327ZM52.2503 79.4327H52.592V80.6953H52.2503V79.4327ZM52.967 79.4327H53.3087V80.6953H52.967V79.4327ZM54.1251 96.3255V98.8364H53.4464V96.3255H54.1251ZM53.6837 79.4327H54.0254V80.6953H53.6837V79.4327ZM54.3957 79.4327H54.7374V80.6953H54.3957V79.4327ZM54.8656 96.3255H55.5443V98.8364H54.8656V96.3255ZM56.2895 96.3255H56.9683V98.8364H56.2895V96.3255ZM57.7087 96.3255H58.3922V98.8364H57.7087V96.3255ZM35.6375 98.8364H34.9588V96.3255H35.6375V98.8364ZM34.2136 98.8364H33.5395V96.3255H34.2136V98.8364ZM32.7943 98.8364H32.3577V96.3255H32.7943V98.8364ZM41.1387 80.6953H40.7969V79.4327H41.1387V80.6953ZM40.422 80.6953H40.2036V79.4327H40.422V80.6953ZM55.1124 79.4327H55.4541V80.6953H55.1124V79.4327ZM55.8291 79.4327H56.1092V80.6953H55.8291V79.4327ZM69.7459 117.063C68.4263 114.011 65.3791 106.929 62.3793 99.8379H64.6956V95.3193H60.4759C57.9318 89.2342 55.7199 83.828 55.0697 81.8344L56.4841 81.2032V78.9248H54.1299C51.6854 73.8223 50.0859 25.4175 49.7156 13.1241L51.3959 11.5435H50.1238C50.1428 11.3916 50.157 11.235 50.157 11.0736C50.157 9.82051 49.4356 8.78103 48.4863 8.58168C48.472 8.26841 48.4625 7.90767 48.4531 7.51371C48.6192 7.40929 48.7426 7.22892 48.7426 7.02008C48.7426 6.79224 48.6097 6.59764 48.4151 6.49796C48.4103 6.32709 48.4008 6.15147 48.3961 5.9711C48.6287 5.87617 48.7948 5.64834 48.7948 5.38253C48.7948 5.09774 48.6097 4.86042 48.3534 4.77973C48.3486 4.64208 48.3439 4.49968 48.3391 4.36204C48.5053 4.29084 48.6239 4.12471 48.6239 3.9301C48.6239 3.726 48.491 3.55513 48.3059 3.49343C48.2584 2.31155 48.2062 1.10593 48.1588 0C48.1066 1.10593 48.0543 2.31155 48.0069 3.49343C47.8265 3.55513 47.6889 3.726 47.6889 3.9301C47.6889 4.12471 47.8075 4.29084 47.9784 4.36204C47.9689 4.49968 47.9642 4.64208 47.9594 4.77973C47.7031 4.86042 47.518 5.09774 47.518 5.38253C47.518 5.64834 47.6841 5.87617 47.9167 5.9711C47.912 6.15147 47.9025 6.32709 47.8977 6.49796C47.7079 6.59764 47.5702 6.79224 47.5702 7.02008C47.5702 7.22892 47.6936 7.40929 47.8645 7.51371C47.8503 7.90767 47.8408 8.26841 47.8265 8.58168C46.8772 8.78103 46.1557 9.82051 46.1557 11.0736C46.1557 11.235 46.17 11.3916 46.189 11.5435H44.9217L46.5972 13.1241C46.2269 25.4175 44.6274 73.8223 42.1829 78.9248H39.8287V81.2032L41.2431 81.8344C40.5928 83.828 38.3857 89.2342 35.8369 95.3193H31.6172V99.8379H33.9335C30.9337 106.929 27.8865 114.011 26.5669 117.063H24.9531V119.64H34.6835V117.063H34.1613C34.5933 116.275 35.0584 115.326 35.5521 114.244C41.0865 105.909 48.1588 106.469 48.1588 106.469C48.1588 106.469 55.2263 105.909 60.7607 114.244C61.2544 115.326 61.7195 116.275 62.1562 117.063H61.6293V119.64H71.3597V117.063H69.7459Z" fill="#4D3A29"/>
</svg>
