<svg width="97" height="120" viewBox="0 0 97 120" fill="none" xmlns="http://www.w3.org/2000/svg">
<path d="M50.9531 104C74.7014 104 93.9531 84.7482 93.9531 61C93.9531 37.2518 74.7014 18 50.9531 18C27.2049 18 7.95312 37.2518 7.95312 61C7.95312 84.7482 27.2049 104 50.9531 104Z" fill="#DEF0E2" stroke="#C8E1CC" stroke-width="6"/>
<path d="M50.011 68.7256L46.4368 113.677L76.6976 114.583L79.7711 74.0363L50.011 68.7256Z" fill="#1A9D95"/>
<path d="M52.5624 26.5331C63.5619 26.8953 74.5349 27.8487 85.4279 29.4467C85.7848 25.4145 86.1364 21.3822 86.4879 17.3552C75.5949 15.7572 64.6166 14.8037 53.6224 14.4415C53.2655 18.4738 52.9139 22.5008 52.5624 26.5331Z" fill="#1A9D95"/>
<path d="M69.8261 17.9571C71.2803 18.0903 71.1205 20.6205 71.1205 20.6205C70.9554 22.5274 70.7849 24.4343 70.6198 26.3413C70.1138 26.2934 69.6077 26.2454 69.107 26.2028C68.601 26.1602 68.0949 26.1122 67.5942 26.075C67.7594 24.168 67.9245 22.2611 68.0949 20.3541C68.0949 20.3541 68.3719 17.8346 69.8261 17.9571Z" fill="white"/>
<path d="M74.9238 18.4312C76.2182 18.5644 76.0531 21.0945 76.0531 21.0945C75.8826 23.0015 75.7175 24.9031 75.5523 26.8154C75.1049 26.7674 74.6521 26.7248 74.2047 26.6822C73.7573 26.6343 73.3098 26.5916 72.8571 26.549C73.0222 24.6368 73.1926 22.7351 73.3578 20.8282C73.3578 20.8282 73.6294 18.3087 74.9238 18.4312Z" fill="white"/>
<path d="M79.526 18.9053C80.6606 19.0331 80.4848 21.5579 80.4848 21.5579C80.3197 23.4649 80.1492 25.3718 79.9841 27.2788C79.5899 27.2362 79.2011 27.1936 78.8069 27.1509C78.4127 27.1083 78.0186 27.0657 77.6244 27.0231C77.7895 25.1162 77.9546 23.2092 78.1251 21.3023C78.1251 21.3023 78.3914 18.7827 79.526 18.9053Z" fill="white"/>
<path d="M83.6329 19.3633C84.6023 19.4805 84.4212 22.0107 84.4212 22.0107C84.2561 23.9176 84.0909 25.8246 83.9205 27.7315C83.5849 27.6889 83.2493 27.6516 82.9084 27.609C82.5728 27.5664 82.2319 27.5238 81.8964 27.4865C82.0615 25.5795 82.2319 23.6726 82.3971 21.7657C82.3971 21.7657 82.6581 19.2461 83.6329 19.3633Z" fill="white"/>
<path d="M64.7286 17.5363C63.4289 17.4351 63.1572 19.9546 63.1572 19.9546C62.9921 21.8615 62.8216 23.7685 62.6565 25.6754C63.1039 25.7074 63.5514 25.7447 64.0041 25.782C64.4516 25.8139 64.9043 25.8512 65.3518 25.8885C65.5222 23.9762 65.6874 22.0693 65.8525 20.1623C65.8525 20.1623 66.0229 17.6375 64.7286 17.5363Z" fill="white"/>
<path d="M60.1102 17.1901C58.9757 17.1208 58.7093 19.635 58.7093 19.635C58.5389 21.5473 58.3737 23.4489 58.2086 25.3612C58.6028 25.3878 58.997 25.4091 59.3911 25.4411C59.7906 25.4624 60.1848 25.489 60.5737 25.521C60.7441 23.6087 60.9092 21.7071 61.0744 19.7948C61.0744 19.7948 61.2555 17.27 60.1102 17.1901Z" fill="white"/>
<path d="M55.9927 16.9237C55.0126 16.8705 54.7516 19.39 54.7516 19.39C54.5865 21.2969 54.416 23.2039 54.2562 25.1108C54.5971 25.1268 54.9327 25.1481 55.2736 25.1694C55.6092 25.1854 55.9501 25.2067 56.291 25.228C56.4615 23.3211 56.6266 21.4141 56.7917 19.5072C56.7917 19.5072 56.9728 16.9823 55.9927 16.9237Z" fill="white"/>
<path d="M57.4363 13.4241C65.9696 13.5733 74.4763 14.3137 82.8978 15.6933C83.2493 11.661 83.6062 7.63403 83.9578 3.60174C75.531 2.22214 67.0243 1.48173 58.491 1.33791C58.1394 5.36487 57.7878 9.39716 57.4363 13.4241Z" fill="#1A9D95"/>
<path d="M71.0833 4.07047C72.6972 4.21962 72.5161 7.0321 72.5161 7.0321C72.3297 9.14678 72.1433 12.9181 71.9622 15.0381C71.3975 14.9848 70.8382 14.9369 70.2789 14.8889C69.7143 14.841 69.155 14.7877 68.5957 14.7398C68.7821 12.6198 68.9632 8.84849 69.1497 6.7338C69.1497 6.7338 69.464 3.93197 71.0833 4.07047Z" fill="white"/>
<path d="M76.1809 4.54992C77.6138 4.69374 77.4273 7.50089 77.4273 7.50089C77.2462 9.6209 77.0598 13.3922 76.8733 15.5122C76.3726 15.4589 75.8773 15.411 75.3766 15.3631C74.8758 15.3098 74.3751 15.2618 73.8798 15.2139C74.0662 13.0939 74.2526 9.32794 74.4337 7.20792C74.4337 7.20792 74.7374 4.4061 76.1809 4.54992Z" fill="white"/>
<path d="M80.7778 5.01867C82.0349 5.15716 81.8432 7.96965 81.8432 7.96965C81.6567 10.0897 81.4703 13.8556 81.2892 15.9756C80.8524 15.9277 80.4156 15.8744 79.9788 15.8318C79.542 15.7839 79.1052 15.7359 78.6685 15.688C78.8496 13.5733 79.036 9.80202 79.2224 7.682C79.2224 7.682 79.5154 4.8855 80.7778 5.01867Z" fill="white"/>
<path d="M65.9749 3.64432C64.5367 3.53779 64.2331 6.33962 64.2331 6.33962C64.0467 8.45431 63.8603 12.2256 63.6738 14.3456C64.1745 14.3829 64.6752 14.4202 65.1759 14.4628C65.6767 14.4947 66.172 14.5374 66.6781 14.58C66.8592 12.46 67.0456 8.68868 67.232 6.57399C67.232 6.57399 67.4185 3.76151 65.9749 3.64432Z" fill="white"/>
<path d="M61.3675 3.30346C60.0997 3.22356 59.8067 6.02539 59.8067 6.02539C59.6203 8.14008 59.4339 11.9114 59.2474 14.0314C59.6896 14.058 60.1263 14.09 60.5685 14.1166C61.0052 14.1486 61.442 14.1805 61.8788 14.2072C62.0652 12.0925 62.2517 8.32118 62.4381 6.20117C62.4381 6.20117 62.6299 3.39401 61.3675 3.30346Z" fill="white"/>
<path d="M51.4491 39.2691C62.4487 39.6313 73.4269 40.5848 84.3146 42.1828C84.6715 38.1505 85.0231 34.1236 85.3746 30.0913C74.4816 28.4933 63.5033 27.5398 52.5038 27.1776C52.1522 31.2099 51.806 35.2368 51.4491 39.2691Z" fill="#1A9D95"/>
<path d="M68.7129 30.6932C70.1671 30.8263 70.0073 33.3565 70.0073 33.3565C69.8368 35.2635 69.6717 37.1704 69.5066 39.0774C69.0059 39.0294 68.4945 38.9868 67.9938 38.9389C67.4931 38.8962 66.9817 38.8536 66.4757 38.811C66.6462 36.9041 66.8113 34.9971 66.9817 33.0902C66.9817 33.0902 67.2587 30.5707 68.7129 30.6932Z" fill="white"/>
<path d="M73.8105 31.1725C75.1049 31.3004 74.9398 33.8305 74.9398 33.8305C74.7693 35.7375 74.6042 37.6444 74.4337 39.5514C73.9863 39.5035 73.5389 39.4608 73.0914 39.4129C72.644 39.3703 72.1912 39.3277 71.7438 39.2851C71.9089 37.3781 72.0794 35.4658 72.2445 33.5642C72.2445 33.5642 72.5161 31.0447 73.8105 31.1725Z" fill="white"/>
<path d="M78.4127 31.6413C79.5473 31.7692 79.3715 34.294 79.3715 34.294C79.2011 36.2063 79.0413 38.1079 78.8708 40.0202C78.4766 39.9722 78.0878 39.9296 77.6936 39.887C77.2995 39.8444 76.9053 39.8018 76.5111 39.7592C76.6762 37.8522 76.8467 35.9453 77.0118 34.0383C77.0118 34.0383 77.2781 31.5188 78.4127 31.6413Z" fill="white"/>
<path d="M82.5196 32.0994C83.489 32.2166 83.3132 34.7467 83.3132 34.7467C83.1428 36.6537 82.9777 38.5606 82.8125 40.4676C82.4716 40.4303 82.1361 40.3877 81.7951 40.3451C81.4596 40.3025 81.124 40.2652 80.7831 40.2279C80.9482 38.3156 81.1133 36.4087 81.2838 34.5017C81.2838 34.5017 81.5395 31.9822 82.5196 32.0994Z" fill="white"/>
<path d="M63.61 30.2671C62.3156 30.1712 62.0439 32.6907 62.0439 32.6907C61.8735 34.5976 61.7083 36.5046 61.5432 38.4115C61.9907 38.4488 62.4434 38.4808 62.8909 38.5181C63.3436 38.55 63.7911 38.5873 64.2385 38.6246C64.409 36.7176 64.5741 34.8107 64.7392 32.8984C64.7392 32.8984 64.9043 30.3736 63.61 30.2671Z" fill="white"/>
<path d="M58.9971 29.9261C57.8572 29.8515 57.5962 32.371 57.5962 32.371C57.4257 34.2833 57.2606 36.1903 57.0955 38.0919C57.4896 38.1185 57.8838 38.1452 58.278 38.1771C58.6775 38.1984 59.0717 38.2304 59.4658 38.257C59.631 36.3447 59.8014 34.4431 59.9665 32.5308C59.9665 32.5308 60.137 30.006 58.9971 29.9261Z" fill="white"/>
<path d="M54.8795 29.6598C53.8994 29.6065 53.6384 32.1261 53.6384 32.1261C53.4733 34.033 53.3081 35.9399 53.1377 37.8469C53.4786 37.8629 53.8195 37.8842 54.1604 37.9055C54.5013 37.9215 54.8369 37.9428 55.1778 37.9641C55.3429 36.0571 55.5134 34.1502 55.6785 32.2379C55.6785 32.2379 55.8596 29.7184 54.8795 29.6598Z" fill="white"/>
<path d="M50.3358 52.0052C61.3354 52.3674 72.3137 53.3209 83.2014 54.9189C83.5583 50.8866 83.9098 46.8596 84.2614 42.8273C73.3683 41.2347 62.3901 40.2759 51.3958 39.9136C51.0389 43.9459 50.6927 47.9782 50.3358 52.0052Z" fill="#1A9D95"/>
<path d="M67.5996 43.4292C69.0538 43.5624 68.894 46.0926 68.894 46.0926C68.7289 47.9995 68.5584 49.9065 68.3933 51.8134C67.8873 51.7708 67.3812 51.7229 66.8805 51.6803C66.3798 51.6323 65.8738 51.5897 65.3624 51.5418C65.5329 49.6401 65.698 47.7332 65.8685 45.8262C65.8685 45.8262 66.1454 43.3067 67.5996 43.4292Z" fill="white"/>
<path d="M72.6972 43.9033C73.9969 44.0365 73.8265 46.5667 73.8265 46.5667C73.656 48.4736 73.4909 50.3805 73.3258 52.2875C72.8783 52.2396 72.4256 52.1969 71.9781 52.149C71.5307 52.1064 71.0833 52.0638 70.6305 52.0212C70.7956 50.1142 70.9607 48.2073 71.1312 46.3003C71.1312 46.3003 71.4029 43.7808 72.6972 43.9033Z" fill="white"/>
<path d="M77.2994 44.3774C78.434 44.5052 78.2582 47.0301 78.2582 47.0301C78.0931 48.937 77.9227 50.844 77.7575 52.7509C77.3687 52.7083 76.9745 52.6657 76.5803 52.6231C76.1862 52.5805 75.792 52.5378 75.3978 52.4952C75.563 50.5883 75.7281 48.6813 75.8985 46.7744C75.8985 46.7744 76.1649 44.2549 77.2994 44.3774Z" fill="white"/>
<path d="M81.4063 44.8355C82.3811 44.9526 82.2 47.4828 82.2 47.4828C82.0348 49.3898 81.8644 51.2967 81.6939 53.2037C81.3584 53.1664 81.0174 53.1238 80.6819 53.0811C80.3463 53.0385 80.0054 53.0012 79.6698 52.9586C79.8349 51.0517 80.0054 49.1501 80.1705 47.2378C80.1705 47.2378 80.4262 44.7183 81.4063 44.8355Z" fill="white"/>
<path d="M62.502 43.0084C61.2023 42.9072 60.9306 45.432 60.9306 45.432C60.7602 47.3337 60.5951 49.2406 60.4299 51.1476C60.8774 51.1848 61.3301 51.2168 61.7776 51.2488C62.2303 51.286 62.6778 51.3233 63.1306 51.3606C63.2904 49.4537 63.4608 47.5467 63.6259 45.6398C63.6259 45.6398 63.7964 43.1096 62.502 43.0084Z" fill="white"/>
<path d="M57.8891 42.6622C56.7492 42.5877 56.4829 45.1125 56.4829 45.1125C56.3178 47.0195 56.1473 48.9211 55.9822 50.8334C56.3764 50.8547 56.7705 50.8866 57.1647 50.9133C57.5589 50.9399 57.9584 50.9612 58.3472 50.9932C58.5177 49.0862 58.6881 47.1793 58.8533 45.2723C58.8533 45.2723 59.029 42.7421 57.8891 42.6622Z" fill="white"/>
<path d="M53.7662 42.3959C52.7861 42.3426 52.5251 44.8621 52.5251 44.8621C52.3547 46.7691 52.1895 48.676 52.0244 50.583C52.3706 50.5989 52.7062 50.6202 53.0471 50.6416C53.3827 50.6575 53.7236 50.6788 54.0645 50.7001C54.235 48.7932 54.4001 46.8863 54.5652 44.9793C54.5652 44.9793 54.7463 42.4545 53.7662 42.3959Z" fill="white"/>
<path d="M49.2225 64.7412C60.2274 65.1035 71.2004 66.0569 82.0934 67.6549C82.445 63.6226 82.7965 59.5957 83.1481 55.5634C72.2604 53.9707 61.2821 53.0172 50.2772 52.6497C49.9257 56.682 49.5794 60.7143 49.2225 64.7412Z" fill="#1A9D95"/>
<path d="M66.4863 56.1653C67.9404 56.2985 67.7806 58.8286 67.7806 58.8286C67.6102 60.7356 67.4451 62.6425 67.2799 64.5495C66.7792 64.5069 66.2679 64.4589 65.7672 64.4163C65.2665 64.3684 64.7551 64.3258 64.2544 64.2831C64.4195 62.3762 64.5846 60.4639 64.7551 58.5623C64.7551 58.5623 65.0321 56.0428 66.4863 56.1653Z" fill="white"/>
<path d="M71.5893 56.6394C72.8783 56.7725 72.7132 59.3027 72.7132 59.3027C72.5428 61.2097 72.3776 63.1166 72.2125 65.0236C71.7651 64.9756 71.3123 64.933 70.8649 64.8904C70.4174 64.8478 69.9647 64.7998 69.5172 64.7572C69.6877 62.8503 69.8528 60.9433 70.0179 59.0364C70.0179 59.0364 70.2896 56.5169 71.5893 56.6394Z" fill="white"/>
<path d="M76.1862 57.1135C77.3207 57.2413 77.145 59.7715 77.145 59.7715C76.9798 61.6784 76.8094 63.5854 76.6443 65.4923C76.2501 65.4444 75.8612 65.4018 75.4671 65.3591C75.0729 65.3165 74.6787 65.2739 74.2845 65.2313C74.4497 63.3244 74.6201 61.4174 74.7853 59.5105C74.7853 59.5105 75.0516 56.9909 76.1862 57.1135Z" fill="white"/>
<path d="M80.293 57.5715C81.2678 57.694 81.0867 60.2189 81.0867 60.2189C80.9162 62.1258 80.7511 64.0328 80.5807 65.945C80.2451 65.8971 79.9095 65.8598 79.5739 65.8172C79.233 65.7746 78.8921 65.7373 78.5565 65.6947C78.7216 63.7877 78.8921 61.8808 79.0572 59.9738C79.0572 59.9738 79.3182 57.4597 80.293 57.5715Z" fill="white"/>
<path d="M61.3887 55.7445C60.089 55.6433 59.8174 58.1628 59.8174 58.1628C59.6469 60.0697 59.4818 61.982 59.3167 63.8836C59.7641 63.9209 60.2169 63.9529 60.6643 63.9902C61.1171 64.0221 61.5645 64.0594 62.0119 64.0967C62.1824 62.1897 62.3475 60.2828 62.518 58.3758C62.518 58.3758 62.6778 55.8457 61.3887 55.7445Z" fill="white"/>
<path d="M56.7758 55.3983C55.6359 55.3237 55.3696 57.8486 55.3696 57.8486C55.2045 59.7555 55.034 61.6625 54.8689 63.5694C55.2631 63.596 55.6572 63.6227 56.0514 63.644C56.4509 63.6706 56.8451 63.7026 57.2393 63.7292C57.4044 61.8223 57.5748 59.91 57.74 58.0084C57.74 58.0084 57.9104 55.4782 56.7758 55.3983Z" fill="white"/>
<path d="M52.653 55.1319C51.6728 55.0787 51.4118 57.5982 51.4118 57.5982C51.2467 59.5051 51.0763 61.4121 50.9111 63.319C51.252 63.3403 51.5929 63.3563 51.9339 63.3776C52.2748 63.3936 52.6103 63.4149 52.9512 63.4362C53.1164 61.5293 53.2868 59.6223 53.452 57.7154C53.452 57.7154 53.6331 55.1905 52.653 55.1319Z" fill="white"/>
<path d="M48.1093 77.4773C59.1088 77.8395 70.0871 78.793 80.9748 80.391C81.3317 76.3587 81.6832 72.3317 82.0348 68.2995C71.1418 66.7068 60.1688 65.7533 49.1693 65.3858C48.8177 69.4181 48.4608 73.445 48.1093 77.4773Z" fill="#1A9D95"/>
<path d="M65.3731 68.9067C66.8273 69.0345 66.6675 71.5647 66.6675 71.5647C66.5024 73.4716 66.3319 75.3786 66.1668 77.2855C65.6608 77.2376 65.1547 77.195 64.654 77.147C64.1533 77.1044 63.6473 77.0618 63.1412 77.0192C63.3064 75.1122 63.4715 73.2053 63.6419 71.2983C63.6419 71.2983 63.9189 68.7788 65.3731 68.9067Z" fill="white"/>
<path d="M70.4707 69.3807C71.7704 69.5086 71.5999 72.0387 71.5999 72.0387C71.4295 73.9457 71.2644 75.8526 71.0992 77.7596C70.6465 77.7116 70.199 77.669 69.7516 77.6264C69.3041 77.5785 68.8567 77.5359 68.4039 77.4933C68.5691 75.5863 68.7395 73.6794 68.9046 71.7724C68.9046 71.7724 69.1763 69.2529 70.4707 69.3807Z" fill="white"/>
<path d="M75.0729 69.8495C76.2075 69.9773 76.0317 72.5022 76.0317 72.5022C75.8666 74.4144 75.6961 76.3214 75.531 78.2283C75.1421 78.1857 74.748 78.1378 74.3485 78.0952C73.9596 78.0526 73.5654 78.0099 73.1713 77.9673C73.3364 76.0604 73.5068 74.1534 73.672 72.2465C73.672 72.2465 73.9383 69.7323 75.0729 69.8495Z" fill="white"/>
<path d="M79.1797 70.3076C80.1492 70.4301 79.9681 72.9549 79.9681 72.9549C79.8083 74.8619 79.6378 76.7688 79.4727 78.6758C79.1318 78.6332 78.7962 78.5959 78.4606 78.5533C78.1197 78.5106 77.7841 78.4734 77.4432 78.4307C77.6084 76.5238 77.7788 74.6168 77.9439 72.7099C77.9439 72.7099 78.205 70.1957 79.1797 70.3076Z" fill="white"/>
<path d="M60.2754 68.4805C58.9757 68.3793 58.7041 70.8988 58.7041 70.8988C58.5389 72.8058 58.3685 74.7127 58.2034 76.625C58.6561 76.657 59.1036 76.6889 59.551 76.7209C60.0038 76.7582 60.4512 76.7955 60.904 76.8328C61.0691 74.9258 61.2342 73.0189 61.4047 71.1119C61.4047 71.1119 61.5698 68.5817 60.2754 68.4805Z" fill="white"/>
<path d="M55.6626 68.1344C54.5227 68.0598 54.2563 70.5846 54.2563 70.5846C54.0912 72.4916 53.9207 74.3985 53.7556 76.3055C54.1498 76.3321 54.544 76.3534 54.9435 76.3854C55.3376 76.4067 55.7318 76.4386 56.126 76.4653C56.2911 74.5583 56.4562 72.6514 56.6267 70.7444C56.6267 70.7444 56.7971 68.2196 55.6626 68.1344Z" fill="white"/>
<path d="M51.5397 67.868C50.5596 67.8147 50.2986 70.3342 50.2986 70.3342C50.1334 72.2412 49.9683 74.1481 49.7979 76.0551C50.1388 76.0711 50.4797 76.0924 50.8206 76.1137C51.1615 76.1297 51.4971 76.151 51.8433 76.1723C52.0084 74.2653 52.1735 72.3584 52.3387 70.4514C52.3387 70.4514 52.5198 67.9213 51.5397 67.868Z" fill="white"/>
<path d="M46.9961 90.2187C57.9957 90.5756 68.9739 91.5344 79.8616 93.1271C80.2185 89.1001 80.5701 85.0678 80.9216 81.0355C70.0286 79.4428 59.0557 78.4894 48.0561 78.1272C47.7045 82.1541 47.3477 86.1864 46.9961 90.2187Z" fill="#1A9D95"/>
<path d="M64.2652 81.6427C65.714 81.7706 65.5542 84.3007 65.5542 84.3007C65.3891 86.2077 65.2186 88.1146 65.0535 90.0216C64.5475 89.979 64.0414 89.931 63.5407 89.8884C63.0347 89.8458 62.5287 89.7979 62.028 89.7552C62.1931 87.8483 62.3635 85.9413 62.5233 84.0344C62.5233 84.0344 62.811 81.5149 64.2652 81.6427Z" fill="white"/>
<path d="M69.3627 82.1168C70.6518 82.2447 70.4867 84.7749 70.4867 84.7749C70.3215 86.6818 70.1511 88.5887 69.9859 90.4957C69.5385 90.4478 69.0857 90.4051 68.6383 90.3625C68.1909 90.3146 67.7434 90.272 67.2906 90.2294C67.4611 88.3224 67.6262 86.4155 67.7914 84.5085C67.7914 84.5085 68.0683 81.9943 69.3627 82.1168Z" fill="white"/>
<path d="M73.9596 82.5856C75.0942 82.7134 74.9184 85.2436 74.9184 85.2436C74.7533 87.1505 74.5828 89.0575 74.4177 90.9644C74.0289 90.9218 73.6294 90.8739 73.2405 90.8313C72.8463 90.7886 72.4522 90.746 72.058 90.7034C72.2284 88.7965 72.3936 86.8895 72.5587 84.9826C72.5587 84.9826 72.825 82.4631 73.9596 82.5856Z" fill="white"/>
<path d="M78.0664 83.0436C79.0412 83.1662 78.8601 85.691 78.8601 85.691C78.6897 87.5979 78.5245 89.5049 78.3594 91.4118C78.0185 91.3746 77.6829 91.3319 77.342 91.2893C77.0011 91.252 76.6709 91.2094 76.33 91.1721C76.4951 89.2652 76.6602 87.3529 76.8307 85.446C76.8307 85.446 77.0917 82.9318 78.0664 83.0436Z" fill="white"/>
<path d="M59.1568 81.2166C57.8625 81.1154 57.5908 83.6402 57.5908 83.6402C57.4257 85.5418 57.2552 87.4541 57.0901 89.3557C57.5429 89.393 57.9903 89.425 58.4377 89.4623C58.8852 89.4942 59.3379 89.5315 59.7907 89.5688C59.9558 87.6619 60.121 85.7549 60.2914 83.848C60.2914 83.848 60.4565 81.3178 59.1568 81.2166Z" fill="white"/>
<path d="M54.5493 80.8757C53.4094 80.8011 53.143 83.3206 53.143 83.3206C52.9779 85.2276 52.8075 87.1345 52.6423 89.0415C53.0365 89.0681 53.4307 89.0947 53.8302 89.1214C54.219 89.148 54.6185 89.1693 55.0127 89.2013C55.1778 87.2943 55.3483 85.3874 55.5134 83.4804C55.5134 83.4804 55.6839 80.9503 54.5493 80.8757Z" fill="white"/>
<path d="M50.4264 80.6041C49.4463 80.5508 49.1853 83.0703 49.1853 83.0703C49.0202 84.9773 48.855 86.8842 48.6846 88.7912C49.0308 88.8071 49.3664 88.8284 49.7073 88.8497C50.0482 88.8657 50.3838 88.887 50.7247 88.9083C50.8898 87.0067 51.0603 85.0944 51.2254 83.1875C51.2254 83.1875 51.4065 80.6627 50.4264 80.6041Z" fill="white"/>
<path d="M50.7994 13.8236C50.7461 14.4575 51.2202 14.9902 51.8541 15.0115C64.0202 15.4856 76.1543 16.5402 88.2086 18.2288C88.8424 18.3193 89.3964 17.8826 89.455 17.2487C89.5083 16.6095 89.0448 16.0236 88.411 15.933C76.3567 14.2391 64.2172 13.1844 52.0565 12.7157C51.4226 12.6891 50.858 13.1898 50.7994 13.8236Z" fill="#0D706A"/>
<path d="M49.6275 27.2735C49.5689 27.9127 50.0429 28.4454 50.6821 28.4667C62.8376 28.9354 74.9771 29.9954 87.0313 31.684C87.6652 31.7745 88.2245 31.3324 88.2778 30.6985C88.331 30.0647 87.8676 29.4787 87.2337 29.3882C75.1848 27.6943 63.04 26.6396 50.8792 26.1709C50.2453 26.1442 49.6807 26.6396 49.6275 27.2735Z" fill="#0D706A"/>
<path d="M48.4983 40.1853C48.445 40.8192 48.9137 41.3519 49.5529 41.3732C61.7137 41.8419 73.8532 42.9019 85.9021 44.5905C86.536 44.681 87.0953 44.2442 87.1486 43.605C87.2018 42.9712 86.7384 42.3852 86.1045 42.2947C74.0503 40.6008 61.9161 39.5461 49.7554 39.0774C49.1162 39.0507 48.5515 39.5514 48.4983 40.1853Z" fill="#0D706A"/>
<path d="M47.417 52.5432C47.3637 53.177 47.8324 53.7044 48.4716 53.731C60.6324 54.2051 72.7719 55.2598 84.8262 56.9536C85.46 57.0389 86.014 56.6021 86.0726 55.9682C86.1259 55.329 85.6571 54.7378 85.0286 54.6525C72.9743 52.964 60.8348 51.904 48.6741 51.4299C48.0349 51.4086 47.4756 51.9093 47.417 52.5432Z" fill="#0D706A"/>
<path d="M46.293 65.4497C46.2344 66.0836 46.7085 66.6163 47.3423 66.6429C59.5084 67.1116 71.6426 68.1663 83.6968 69.8602C84.3307 69.9454 84.8847 69.5086 84.9433 68.8694C84.9966 68.2409 84.5278 67.6496 83.8993 67.5591C71.845 65.8705 59.7055 64.8105 47.5448 64.3418C46.9056 64.3151 46.3463 64.8105 46.293 65.4497Z" fill="#0D706A"/>
<path d="M45.1638 78.3562C45.1105 78.9901 45.5793 79.5174 46.2185 79.5441C58.3793 80.0181 70.5187 81.0728 82.5677 82.7614C83.2015 82.8519 83.7555 82.4098 83.8141 81.7759C83.8674 81.1421 83.4039 80.5561 82.7701 80.4656C70.7158 78.7717 58.5763 77.717 46.4156 77.2483C45.7764 77.2216 45.2171 77.7223 45.1638 78.3562Z" fill="#0D706A"/>
<path d="M44.0611 90.9591C44.0079 91.593 44.4766 92.1256 45.1158 92.147C57.2766 92.621 69.4161 93.6757 81.465 95.3696C82.0989 95.4601 82.6582 95.018 82.7114 94.3842C82.7647 93.7503 82.3013 93.159 81.6674 93.0738C69.6185 91.3799 57.479 90.3199 45.3129 89.8512C44.679 89.8299 44.1144 90.3252 44.0611 90.9591Z" fill="#0D706A"/>
<path d="M57.202 0.805221C57.1594 1.26331 57.5057 1.65216 57.9691 1.66814C66.8167 2.01437 75.6483 2.78141 84.416 4.01188C84.8741 4.0758 85.2842 3.7562 85.3215 3.29278C85.3641 2.83468 85.0179 2.40322 84.5598 2.3393C75.7921 1.11417 66.9605 0.341801 58.1129 0.000893921C57.6495 -0.0204128 57.2393 0.341802 57.202 0.805221Z" fill="#0D706A"/>
<path d="M64.9202 97.8198C64.9202 97.8198 65.1173 94.6931 63.3222 94.5333C61.5272 94.3788 61.1809 97.4896 61.1809 97.4896C61.0211 99.3326 60.2381 107.221 59.8066 111.696H63.5779C64.0094 107.173 64.7551 99.6149 64.9202 97.8198Z" fill="white"/>
<path d="M70.3748 98.3419C70.3748 98.3419 70.5826 95.2204 68.9846 95.0606C67.3866 94.9062 67.051 98.0116 67.051 98.0116C66.8965 99.7854 66.1668 107.158 65.73 111.696H69.0858C69.5279 107.136 70.2257 100.073 70.3748 98.3419Z" fill="white"/>
<path d="M75.2806 98.8586C75.2806 98.8586 75.499 95.7372 74.0981 95.5827C72.6972 95.4335 72.3669 98.5443 72.3669 98.5443C72.2178 100.249 71.536 107.131 71.0939 111.696H74.0395C74.487 107.136 75.1368 100.526 75.2806 98.8586Z" fill="white"/>
<path d="M59.045 97.3085C59.045 97.3085 59.2528 94.1871 57.6548 94.0593C56.0514 93.9367 55.7158 97.0475 55.7158 97.0475C55.5507 98.9545 54.7198 107.323 54.299 111.696H57.6548C58.0809 107.259 58.8852 99.1782 59.045 97.3085Z" fill="white"/>
<path d="M53.7183 96.8983C53.7183 96.8983 53.9314 93.7769 52.5304 93.681C51.1189 93.5852 50.7939 96.7013 50.7939 96.7013C50.6235 98.6561 49.7552 107.434 49.3451 111.696H52.2907C52.7062 107.365 53.5532 98.8266 53.7183 96.8983Z" fill="white"/>
<path d="M42.9531 113.214C42.9531 114.05 43.6882 114.727 44.5884 114.727H79.9788C80.8843 114.727 81.6141 114.05 81.6141 113.214C81.6141 112.378 80.8843 111.696 79.9788 111.696H44.5884C43.6882 111.696 42.9531 112.378 42.9531 113.214Z" fill="#0D706A"/>
<path d="M0.953125 115.536C0.953125 115.536 17.1142 119.632 49.3353 119.654C71.2545 119.67 91.3201 115.542 94.5267 114.263L90.9206 88.0719C90.9206 88.0719 88.9124 79.2562 53.4954 79.8954L52.7923 83.6188L45.5586 84.0023L44.2057 80.3642L43.3854 80.1777L34.7029 56C34.7029 56 9.71549 59.8192 6.65799 69.1143L0.953125 115.536Z" fill="#C78650"/>
<path d="M2.10364 106.183C2.10364 106.183 25.6369 102.667 54.0706 102.656C82.515 102.64 93.2802 105.208 93.2802 105.208L93.0086 102.065C93.0086 102.065 76.1656 98.7146 54.2464 99.1407C32.3218 99.5668 14.9942 99.961 2.42856 103.514L2.10364 106.183Z" fill="#A3612A"/>
<path d="M43.7316 104.366C41.063 104.494 40.7806 107.935 40.7806 107.935V115.627C42.8314 115.685 44.8502 115.749 46.6879 115.803V107.935C46.6879 107.935 46.4056 104.494 43.7316 104.366Z" fill="white"/>
<path d="M34.7029 104.659C32.0343 104.792 31.752 108.239 31.752 108.239V115.355C33.5897 115.408 35.6031 115.467 37.6592 115.531V108.239C37.6592 108.239 37.3769 104.792 34.7029 104.659Z" fill="white"/>
<path d="M19.9054 105.202C19.9054 105.202 18.3021 104.915 18.0624 107.86V114.849L21.4501 115.02L21.5673 107.978C21.5673 107.978 21.5087 105.245 19.9054 105.202Z" fill="white"/>
<path d="M26.4999 104.936C26.4999 104.936 24.4225 104.915 24.3053 107.978V115.169C24.9552 115.195 25.5517 115.211 26.0897 115.222C26.7929 115.233 27.6078 115.254 28.5187 115.27V108.095C28.5187 108.095 28.4601 105.096 26.4999 104.936Z" fill="white"/>
<path d="M14.2591 105.607C14.2591 105.607 12.6292 105.73 12.5386 108.388C12.4374 111.381 12.4481 114.354 12.4481 114.481C13.4655 114.556 14.5042 114.62 15.5322 114.689L15.5695 108.153C15.5695 108.153 15.6281 105.852 14.2591 105.607Z" fill="white"/>
<path d="M10.9939 108.446C10.9939 108.446 11.1164 105.911 9.98187 105.959C9.98187 105.959 8.85261 105.799 8.73543 108.505L8.43713 114.199C8.44779 114.199 8.45844 114.199 8.46909 114.199L10.5838 114.348L10.9939 108.446Z" fill="white"/>
<path d="M7.37174 108.212C7.37174 108.212 7.46762 106.39 6.70591 106.39C6.70591 106.39 6.00279 106.444 5.76842 108.153L5.1665 113.954C5.43816 113.975 5.72048 113.997 6.00812 114.018L6.88169 114.071L7.37174 108.212Z" fill="white"/>
<path d="M4.34083 106.737C4.34083 106.737 3.62706 106.566 3.38736 108.622C3.15298 110.684 2.67358 113.762 2.67358 113.762C2.68956 113.762 2.71087 113.762 2.73218 113.768L3.95198 113.858C3.96264 113.864 3.97329 113.864 3.97862 113.864L4.69772 108.212C4.69772 108.212 4.86817 106.8 4.34083 106.737Z" fill="white"/>
<path d="M53.8843 104.366C51.2103 104.494 50.928 107.935 50.928 107.935V115.93C52.803 115.984 54.1559 116.01 54.6939 116.01C54.9869 116.01 55.738 115.978 56.8353 115.914V107.935C56.8353 107.935 56.5583 104.494 53.8843 104.366Z" fill="white"/>
<path d="M62.6466 104.659C59.9726 104.792 59.6903 108.239 59.6903 108.239V115.739C61.3842 115.632 63.403 115.499 65.5976 115.339V108.239C65.5976 108.239 65.3206 104.792 62.6466 104.659Z" fill="white"/>
<path d="M76.6185 105.202C75.0152 105.314 75.0738 108.042 75.0738 108.042L75.4573 114.599C76.5919 114.508 77.7211 114.418 78.8397 114.322L78.5681 107.786C78.2112 104.856 76.6185 105.202 76.6185 105.202Z" fill="white"/>
<path d="M70.642 105.202C68.6924 105.447 68.7563 108.441 68.7563 108.441L69.0333 115.094C70.4076 114.993 71.8192 114.886 73.2361 114.774L72.9644 108.153C72.7194 105.101 70.642 105.202 70.642 105.202Z" fill="white"/>
<path d="M81.5084 105.549C80.166 105.895 80.3951 108.185 80.3951 108.185L80.8692 114.151C81.9238 114.061 82.9519 113.97 83.9426 113.88C83.8734 112.953 83.6923 110.577 83.4313 108.201C83.149 105.559 81.5084 105.549 81.5084 105.549Z" fill="white"/>
<path d="M85.5352 105.591C84.406 105.629 84.7096 108.148 84.7096 108.148L85.5193 113.73C86.265 113.661 86.9788 113.587 87.6659 113.517L86.9681 108.042C86.6485 105.352 85.5352 105.591 85.5352 105.591Z" fill="white"/>
<path d="M88.8378 105.783C88.0761 105.842 88.3105 107.653 88.3105 107.653L89.2107 113.358C89.8179 113.288 90.3932 113.224 90.9206 113.16L89.9085 107.477C89.541 105.794 88.8378 105.783 88.8378 105.783Z" fill="white"/>
<path d="M92.3109 107.77C91.9168 105.74 91.2243 105.964 91.2243 105.964C90.697 106.06 90.9739 107.461 90.9739 107.461L92.1032 113.011C92.5933 112.942 93.0247 112.878 93.3923 112.82C93.323 112.495 92.6732 109.693 92.3109 107.77Z" fill="white"/>
<path d="M44.3815 85.5417C41.9046 85.6908 41.6436 89.542 41.6436 89.542V95.9074L44.3815 96.0033L47.1194 95.9074V89.542C47.1194 89.542 46.8637 85.6908 44.3815 85.5417Z" fill="white"/>
<path d="M35.4753 86.0957C32.9931 86.2448 32.7321 90.096 32.7321 90.096V96.2163H38.2132V90.096C38.2132 90.096 37.9522 86.2448 35.4753 86.0957Z" fill="white"/>
<path d="M19.1011 97.8676V91.5395C19.3248 88.2477 20.8163 88.5619 20.8163 88.5619C22.2971 88.6099 22.3557 91.6674 22.3557 91.6674L22.2438 97.6332L19.1011 97.8676Z" fill="white"/>
<path d="M29.5574 96.9088V90.8844C29.5574 90.8844 29.5041 87.5339 27.6877 87.3528C27.6877 87.3528 25.7594 87.3315 25.6476 90.7565V97.1325L29.5574 96.9088Z" fill="white"/>
<path d="M16.7095 98.5388L16.9225 92.6475C16.9225 92.6475 16.9811 90.0694 15.7134 89.7924C15.7134 89.7924 14.2006 89.9362 14.1154 92.9085C14.0142 96.3335 13.8544 98.7785 13.8544 98.7785L16.7095 98.5388Z" fill="white"/>
<path d="M11.7982 99.3697L12.1818 94.2508C12.1818 94.2508 12.2936 91.4117 11.2443 91.4649C11.2443 91.4649 10.2002 91.2892 10.0884 94.3147L9.8114 99.6201L11.7982 99.3697Z" fill="white"/>
<path d="M8.30393 100.089L8.75137 94.922C8.75137 94.922 8.84193 92.8765 8.13348 92.8765C8.13348 92.8765 7.48363 92.9458 7.26523 94.8527L6.70593 100.297L8.30393 100.089Z" fill="white"/>
<path d="M5.51277 101.053L6.08805 96.1205C6.08805 96.1205 6.24785 94.5385 5.75779 94.4692C5.75779 94.4692 5.09729 94.2722 4.87357 96.5786C4.65517 98.885 4.39417 101.266 4.39417 101.266L5.51277 101.053Z" fill="white"/>
<path d="M20.5499 81.4668V74.9257C20.7683 71.6338 22.2598 71.9481 22.2598 71.9481C23.7459 71.996 23.8045 75.0535 23.8045 75.0535L23.7779 80.8063L20.5499 81.4668Z" fill="white"/>
<path d="M30.5587 79.4427V74.0574C30.5587 74.0574 30.5054 70.7069 28.689 70.5205C28.689 70.5205 26.7555 70.5045 26.6489 73.9296V80.0872L30.5587 79.4427Z" fill="white"/>
<path d="M36.6578 78.1696V72.7843C36.6578 72.7843 36.6046 69.4285 34.7882 69.2474C34.7882 69.2474 32.8599 69.2314 32.748 72.6512V78.8141L36.6578 78.1696Z" fill="white"/>
<path d="M18.2594 82.351L18.4565 76.8805C18.4565 76.8805 18.5098 74.3078 17.3273 74.0308C17.3273 74.0308 15.9104 74.1693 15.8305 77.1469C15.7399 80.5666 15.5854 83.0115 15.5854 83.0115L18.2594 82.351Z" fill="white"/>
<path d="M13.5773 83.7093L13.9395 78.5957C13.9395 78.5957 14.0407 75.7566 13.0606 75.8099C13.0606 75.8099 12.0805 75.6288 11.9793 78.6596L11.7183 84.3911L13.5773 83.7093Z" fill="white"/>
<path d="M10.0404 85.286L10.4612 80.1138C10.4612 80.1138 10.5465 78.0737 9.88594 78.0737C9.88594 78.0737 9.27338 78.1376 9.07096 80.0499L8.54895 85.9146L10.0404 85.286Z" fill="white"/>
<path d="M7.16402 86.7829L7.70202 81.845C7.70202 81.845 7.85116 80.263 7.39307 80.1991C7.39307 80.1991 6.77517 80.002 6.57276 82.3085C6.36502 84.6096 6.12 87.2037 6.12 87.2037L7.16402 86.7829Z" fill="white"/>
<path d="M53.3996 85.4671C55.7433 85.6163 55.9936 89.4675 55.9936 89.4675V95.8275L53.3996 95.9287L50.8108 95.8275V89.4675C50.8108 89.4675 51.0558 85.6163 53.3996 85.4671Z" fill="white"/>
<path d="M61.8263 86.0211C64.17 86.1702 64.4151 90.0214 64.4151 90.0214V96.1418H59.2375V90.0214C59.2375 90.0214 59.4826 86.1702 61.8263 86.0211Z" fill="white"/>
<path d="M77.3055 97.7931V91.4597C77.0978 88.1731 75.6916 88.4874 75.6916 88.4874C74.2853 88.5406 74.2321 91.5928 74.2321 91.5928L74.3386 97.5587L77.3055 97.7931Z" fill="white"/>
<path d="M67.4193 96.8342V90.8098C67.4193 90.8098 67.4673 87.4593 69.1878 87.2782C69.1878 87.2782 71.0148 87.2569 71.116 90.6819V97.058L67.4193 96.8342Z" fill="white"/>
<path d="M79.5641 98.1446L79.3671 92.248C79.3671 92.248 79.3138 89.6752 80.5123 89.3982C80.5123 89.3982 81.9452 89.542 82.0251 92.5143C82.1156 95.9394 82.2701 98.3843 82.2701 98.3843L79.5641 98.1446Z" fill="white"/>
<path d="M84.2143 98.5494L83.8468 93.4305C83.8468 93.4305 83.7456 90.5914 84.7363 90.6446C84.7363 90.6446 85.7271 90.4689 85.8283 93.4944L86.0946 98.7998L84.2143 98.5494Z" fill="white"/>
<path d="M87.5169 99.2685L87.0961 94.1017C87.0961 94.1017 87.0108 92.0562 87.6767 92.0562C87.6767 92.0562 88.2946 92.1255 88.497 94.0324L89.0297 99.4763L87.5169 99.2685Z" fill="white"/>
<path d="M90.159 99.9183L89.6103 94.9752C89.6103 94.9752 89.4612 93.3985 89.9299 93.3346C89.9299 93.3346 90.5478 93.1375 90.7609 95.4386C90.9686 97.7451 91.219 100.121 91.219 100.121L90.159 99.9183Z" fill="white"/>
<path d="M65.3631 83.8212H63.4882V81.1419H65.3631V83.8212Z" fill="white"/>
<path d="M71.2545 84.2526H69.6511V81.7704H71.2545V84.2526Z" fill="white"/>
<path d="M77.327 85.302H76.0006V83.0169H77.327V85.302Z" fill="white"/>
<path d="M83.0425 86.9586H81.9878V84.8759H83.0425V86.9586Z" fill="white"/>
<path d="M88.3105 88.8496H87.5328V86.9693H88.3105V88.8496Z" fill="white"/>
<path d="M27.4692 62.3068L29.3336 62.3441L29.4774 59.4677L27.6131 59.4304L27.4692 62.3068Z" fill="white"/>
<path d="M21.7112 64.0433L23.2559 64.0699L23.3891 61.4279L21.839 61.3959L21.7112 64.0433Z" fill="white"/>
<path d="M15.7772 66.5415L17.0024 66.5681L17.1195 64.1551L15.8997 64.1285L15.7772 66.5415Z" fill="white"/>
<path d="M11.0365 69.3593L11.9367 69.3753L12.0486 67.1967L11.143 67.1754L11.0365 69.3593Z" fill="white"/>
<path d="M5.3103 80.0979C5.3103 80.0979 13.7691 69.6949 39.0867 67.9051L37.9255 64.0539C37.9255 64.0539 15.3884 65.6786 5.72578 76.6994L5.3103 80.0979Z" fill="#A3612A"/>
<path d="M3.95736 90.4742C3.95736 90.4742 8.3199 83.6987 44.2802 80.0606L45.6385 83.6987C45.6385 83.6987 10.4666 86.2981 3.49927 94.1869L3.95736 90.4742Z" fill="#A3612A"/>
</svg>
