<svg width="93" height="115" viewBox="0 0 93 115" fill="none" xmlns="http://www.w3.org/2000/svg">
<path d="M46.5267 109C70.275 109 89.5267 89.7482 89.5267 66C89.5267 42.2518 70.275 23 46.5267 23C22.7785 23 3.52673 42.2518 3.52673 66C3.52673 89.7482 22.7785 109 46.5267 109Z" fill="#DEF0E2" stroke="#C8E1CC" stroke-width="6"/>
<path d="M68.3829 50.2686C68.3829 49.0737 59.1586 48.1064 47.7848 48.1064C36.4047 48.1064 27.1868 49.0737 27.1868 50.2686C27.1868 51.4635 36.4047 52.4308 47.7848 52.4308C59.1586 52.4308 68.3829 51.4635 68.3829 50.2686Z" fill="#0B0D0B"/>
<path d="M66.1385 46.608L47.7848 44.8188L29.4312 46.608C29.4312 74.3692 18.6896 96.3012 18.6896 96.3012H76.8801C76.8801 96.3012 66.1385 74.3692 66.1385 46.608Z" fill="#C78650"/>
<path d="M56.5665 46.608H39.0032C39.0032 74.3692 33.8694 96.3012 33.8694 96.3012H61.7065C61.7065 96.3012 56.5665 74.3692 56.5665 46.608Z" fill="#E6A36A"/>
<path d="M76.8801 112.417H18.6896V96.3012L33.8695 94.512H61.7065L76.8801 96.3012V112.417Z" fill="#A3612A"/>
<path d="M28.9823 107.27L23.836 107.631V100.019L28.9823 99.6584V107.27Z" fill="white"/>
<path d="M24.2849 100.436V107.15L28.5334 106.853V100.139L24.2849 100.436ZM23.3871 108.111V99.6015L29.4312 99.1779V107.688L23.3871 108.111Z" fill="#4D3A29"/>
<path d="M24.2849 107.182L28.5334 101.593V106.822L24.2849 107.182Z" fill="#CCEBF5"/>
<path d="M71.7337 107.631L66.5873 107.27V99.6584L71.7337 100.019V107.631Z" fill="white"/>
<path d="M67.0363 106.853L71.2848 107.15V100.436L67.0363 100.139V106.853ZM72.1826 108.111L66.1385 107.688V99.1779L72.1826 99.6015V108.111Z" fill="#4D3A29"/>
<path d="M67.0363 106.822L71.2848 101.953V107.182L67.0363 106.822Z" fill="#CCEBF5"/>
<path d="M47.7848 26.4778C31.7135 39.1856 27.1868 50.2686 27.1868 50.2686C29.3174 48.4794 47.7848 48.4225 47.7848 48.4225C47.7848 48.4225 66.2522 48.4794 68.3829 50.2686C68.3829 50.2686 63.8561 39.1856 47.7848 26.4778Z" fill="#4D3A29"/>
<path d="M50.358 61.9079H45.2053V54.2959H50.358V61.9079Z" fill="white"/>
<path d="M45.6542 61.459H49.9091V54.7448H45.6542V61.459ZM50.8069 62.3568H44.7628V53.847H50.8069V62.3568Z" fill="#4D3A29"/>
<path d="M45.6542 61.459L49.9028 56.2305V61.459H45.6542Z" fill="#CCEBF5"/>
<path d="M50.3517 75.5135H45.2053V67.9015H50.3517V75.5135Z" fill="white"/>
<path d="M45.6542 75.0646H49.9091V68.3503H45.6542V75.0646ZM50.8069 75.9624H44.7628V67.4526H50.8069V75.9624Z" fill="#4D3A29"/>
<path d="M45.6542 75.0646L49.9028 69.8361V75.0646H45.6542Z" fill="#CCEBF5"/>
<path d="M50.3517 89.1191H45.2053V81.507H50.3517V89.1191Z" fill="white"/>
<path d="M45.6542 88.6702H49.9028V81.9559H45.6542V88.6702ZM50.8006 89.568H44.7565V81.0645H50.8006V89.568Z" fill="#4D3A29"/>
<path d="M45.6542 88.6702L49.9028 83.4417V88.6702H45.6542Z" fill="#CCEBF5"/>
<path d="M59.1966 107.27H54.0502V99.6584H59.1966V107.27Z" fill="white"/>
<path d="M54.4928 106.822H58.7477V100.107H54.4928V106.822ZM59.6455 107.719H53.6014V99.2158H59.6455V107.719Z" fill="#4D3A29"/>
<path d="M54.4928 106.822L58.7414 101.593V106.822H54.4928Z" fill="#CCEBF5"/>
<path d="M41.5195 107.27H36.3731V99.6584H41.5195V107.27Z" fill="white"/>
<path d="M36.822 106.822H41.0769V100.107H36.822V106.822ZM41.9683 107.719H35.9242V99.2158H41.9683V107.719Z" fill="#4D3A29"/>
<path d="M36.822 106.822L41.0705 101.593V106.822H36.822Z" fill="#CCEBF5"/>
<path d="M43.7639 111.974H47.7848V102.042H43.7639V111.974Z" fill="#D91100"/>
<path d="M44.2064 111.525H47.336V102.491H44.2064V111.525ZM48.2337 112.417H43.315V101.593H48.2337V112.417Z" fill="#4D3A29"/>
<path d="M51.8058 111.974H47.7849V102.042H51.8058V111.974Z" fill="#D91100"/>
<path d="M48.2337 111.525H51.3632V102.491H48.2337V111.525ZM52.2547 112.417H47.3359V101.593H52.2547V112.417Z" fill="#4D3A29"/>
<path d="M76.8801 114.238H18.6896V111.525H76.8801V114.238Z" fill="#4D3A29"/>
<path d="M50.4718 38.781C50.4718 40.2604 49.2706 41.4616 47.7848 41.4616C46.2991 41.4616 45.0978 40.2604 45.0978 38.781C45.0978 37.2952 46.2991 36.0877 47.7848 36.0877C49.2706 36.0877 50.4718 37.2952 50.4718 38.781Z" fill="#D91100"/>
<path d="M42.7207 29.2786L42.0885 29.9108L14.7066 2.52892L15.3388 1.90301L42.7207 29.2786Z" fill="#D91100"/>
<path d="M44.6174 27.3819L43.9851 28.0141L16.6033 0.63223L17.2355 0L44.6174 27.3819Z" fill="#D91100"/>
<path d="M17.5516 0.948344L13.4421 5.06416L12.8036 4.43193L16.9194 0.316114L17.5516 0.948344Z" fill="#D91100"/>
<path d="M19.4546 2.85135L15.3388 6.96085L14.7066 6.32862L18.8224 2.2128L19.4546 2.85135Z" fill="#D91100"/>
<path d="M21.3513 4.74804L17.2355 8.86386L16.6033 8.23163L20.7191 4.11581L21.3513 4.74804Z" fill="#D91100"/>
<path d="M23.2543 6.65106L19.1385 10.7605L18.5063 10.1283L22.6158 6.0125L23.2543 6.65106Z" fill="#D91100"/>
<path d="M25.151 8.54775L21.0352 12.6636L20.403 12.0313L24.5188 7.91552L25.151 8.54775Z" fill="#D91100"/>
<path d="M27.0477 10.4444L22.9319 14.5602L22.2997 13.928L26.4155 9.8122L27.0477 10.4444Z" fill="#D91100"/>
<path d="M28.9507 12.3474L24.8349 16.4569L24.2027 15.8247L28.3185 11.7152L28.9507 12.3474Z" fill="#D91100"/>
<path d="M30.8474 14.2441L26.7379 18.3599L26.0994 17.7277L30.2152 13.6119L30.8474 14.2441Z" fill="#D91100"/>
<path d="M32.7504 16.1408L28.6346 20.2566L28.0024 19.6244L32.1182 15.5086L32.7504 16.1408Z" fill="#D91100"/>
<path d="M34.6471 18.0438L30.5313 22.1597L29.899 21.5274L34.0149 17.4116L34.6471 18.0438Z" fill="#D91100"/>
<path d="M36.5501 19.9405L32.4343 24.0563L31.7958 23.4241L35.9179 19.3083L36.5501 19.9405Z" fill="#D91100"/>
<path d="M38.4468 21.8435L34.331 25.953L33.6987 25.3208L37.8145 21.2113L38.4468 21.8435Z" fill="#D91100"/>
<path d="M40.3435 23.7402L36.234 27.856L35.5955 27.2238L39.7113 23.108L40.3435 23.7402Z" fill="#D91100"/>
<path d="M42.2465 25.6432L38.1307 29.7527L37.4985 29.1205L41.6143 25.0047L42.2465 25.6432Z" fill="#D91100"/>
<path d="M44.2949 27.6917L40.1791 31.8075L39.5469 31.1752L43.6627 27.0594L44.2949 27.6917Z" fill="#D91100"/>
<path d="M40.8177 31.1816L38.2887 33.7105L12.1713 5.06416L13.4421 3.7997L40.8177 31.1816Z" fill="#A80003"/>
<path d="M47.4687 37.8263L46.8365 38.4585L37.4542 29.0762L38.0865 28.444L47.4687 37.8263Z" fill="#A80003"/>
<path d="M38.2887 43.8451L38.921 44.4774L11.5391 71.8592L10.9069 71.2207L38.2887 43.8451Z" fill="#D91100"/>
<path d="M36.3921 41.9421L37.0243 42.5743L9.64242 69.9562L9.01019 69.324L36.3921 41.9421Z" fill="#D91100"/>
<path d="M9.95852 69.0079L14.0743 73.1237L13.4421 73.7559L9.32629 69.6401L9.95852 69.0079Z" fill="#D91100"/>
<path d="M11.8553 67.1112L15.9711 71.2207L15.3388 71.8592L11.223 67.7434L11.8553 67.1112Z" fill="#D91100"/>
<path d="M13.7582 65.2082L17.8677 69.324L17.2355 69.9562L13.1197 65.8404L13.7582 65.2082Z" fill="#D91100"/>
<path d="M15.6549 63.3115L19.7708 67.4273L19.1385 68.0532L15.0227 63.9437L15.6549 63.3115Z" fill="#D91100"/>
<path d="M17.5579 61.4085L21.6674 65.5243L21.0352 66.1565L16.9194 62.047L17.5579 61.4085Z" fill="#D91100"/>
<path d="M19.4546 59.5118L23.5704 63.6276L22.9319 64.2598L18.8224 60.144L19.4546 59.5118Z" fill="#D91100"/>
<path d="M21.3513 57.6088L25.4672 61.7246L24.8349 62.3568L20.7191 58.2473L21.3513 57.6088Z" fill="#D91100"/>
<path d="M23.2543 55.7121L27.3702 59.8279L26.7379 60.4601L22.6158 56.3443L23.2543 55.7121Z" fill="#D91100"/>
<path d="M25.151 53.8154L29.2668 57.9249L28.6346 58.5571L24.5188 54.4476L25.151 53.8154Z" fill="#D91100"/>
<path d="M27.0477 51.9124L31.1635 56.0282L30.5313 56.6604L26.4155 52.5509L27.0477 51.9124Z" fill="#D91100"/>
<path d="M28.9507 50.0157L33.0665 54.1315L32.4343 54.7637L28.3121 50.6479L28.9507 50.0157Z" fill="#D91100"/>
<path d="M30.8474 48.1127L34.9632 52.2285L34.331 52.8607L30.2151 48.7512L30.8474 48.1127Z" fill="#D91100"/>
<path d="M32.7504 46.216L36.8662 50.3318L36.2277 50.964L32.1182 46.8482L32.7504 46.216Z" fill="#D91100"/>
<path d="M34.6471 44.3193L38.7629 48.4288L38.1307 49.0673L34.0149 44.9515L34.6471 44.3193Z" fill="#D91100"/>
<path d="M36.6955 42.2646L40.8113 46.3804L40.1791 47.0126L36.0633 42.8968L36.6955 42.2646Z" fill="#D91100"/>
<path d="M40.1855 45.7418L42.7207 48.2707L14.0744 74.3881L12.8036 73.1237L40.1855 45.7418Z" fill="#A80003"/>
<path d="M46.8365 39.0971L47.4687 39.7293L38.0865 49.1116L37.4542 48.4794L46.8365 39.0971Z" fill="#A80003"/>
<path d="M57.2809 33.7105L56.6487 33.0783L84.0306 5.69639L84.6628 6.32862L57.2809 33.7105Z" fill="#D91100"/>
<path d="M59.184 35.6135L58.5454 34.9813L85.9273 7.5994L86.5595 8.23163L59.184 35.6135Z" fill="#D91100"/>
<path d="M85.6111 8.54774L81.4953 4.43193L82.1275 3.7997L86.2433 7.91551L85.6111 8.54774Z" fill="#D91100"/>
<path d="M83.7144 10.4444L79.5986 6.32862L80.2309 5.69639L84.3467 9.8122L83.7144 10.4444Z" fill="#D91100"/>
<path d="M81.8114 12.3474L77.6956 8.23163L78.3342 7.5994L82.45 11.7152L81.8114 12.3474Z" fill="#D91100"/>
<path d="M79.9148 14.2441L75.799 10.1283L76.4312 9.49609L80.547 13.6119L79.9148 14.2441Z" fill="#D91100"/>
<path d="M78.0117 16.1408L73.9022 12.0313L74.5345 11.3991L78.6503 15.5086L78.0117 16.1408Z" fill="#D91100"/>
<path d="M76.1151 18.0438L71.9993 13.928L72.6378 13.2958L76.7473 17.4116L76.1151 18.0438Z" fill="#D91100"/>
<path d="M74.2184 19.9405L70.1025 15.8247L70.7348 15.1925L74.8506 19.3083L74.2184 19.9405Z" fill="#D91100"/>
<path d="M72.3153 21.8435L68.1995 17.7277L68.8318 17.0955L72.9539 21.2113L72.3153 21.8435Z" fill="#D91100"/>
<path d="M70.4187 23.7402L66.3029 19.6244L66.9351 18.9922L71.0509 23.108L70.4187 23.7402Z" fill="#D91100"/>
<path d="M68.5156 25.6432L64.4061 21.5274L65.0384 20.8889L69.1542 25.0047L68.5156 25.6432Z" fill="#D91100"/>
<path d="M66.619 27.5399L62.5032 23.4241L63.1354 22.7919L67.2512 26.9077L66.619 27.5399Z" fill="#D91100"/>
<path d="M64.7223 29.4429L60.6064 25.3208L61.2387 24.6886L65.3545 28.8044L64.7223 29.4429Z" fill="#D91100"/>
<path d="M62.8192 31.3396L58.7034 27.2238L59.342 26.5916L63.4515 30.7074L62.8192 31.3396Z" fill="#D91100"/>
<path d="M60.9226 33.2363L56.8068 29.1205L57.439 28.4883L61.5548 32.6041L60.9226 33.2363Z" fill="#D91100"/>
<path d="M58.8678 35.2911L54.7583 31.1752L55.3905 30.543L59.5 34.6525L58.8678 35.2911Z" fill="#D91100"/>
<path d="M55.3842 31.8138L52.849 29.2786L81.4953 3.16747L82.7661 4.43193L55.3842 31.8138Z" fill="#A80003"/>
<path d="M48.7332 38.4585L48.101 37.8263L57.4832 28.444L58.1155 29.0762L48.7332 38.4585Z" fill="#A80003"/>
<path d="M49.397 38.781C49.397 39.6661 48.67 40.3868 47.7849 40.3868C46.8934 40.3868 46.1727 39.6661 46.1727 38.781C46.1727 37.8895 46.8934 37.1688 47.7849 37.1688C48.67 37.1688 49.397 37.8895 49.397 38.781Z" fill="#A80003"/>
<path d="M52.849 48.2707L53.4812 47.6385L80.8631 75.0204L80.2309 75.6526L52.849 48.2707Z" fill="#D91100"/>
<path d="M50.9523 50.1737L51.5846 49.5415L78.9664 76.9234L78.3342 77.5556L50.9523 50.1737Z" fill="#D91100"/>
<path d="M78.0181 76.6009L82.1276 72.4851L82.7661 73.1237L78.6503 77.2395L78.0181 76.6009Z" fill="#D91100"/>
<path d="M76.1151 74.7043L80.2309 70.5948L80.8631 71.2207L76.7473 75.3365L76.1151 74.7043Z" fill="#D91100"/>
<path d="M74.2184 72.8076L78.3342 68.6917L78.9664 69.324L74.8506 73.4398L74.2184 72.8076Z" fill="#D91100"/>
<path d="M72.3154 70.9109L76.4312 66.7951L77.0634 67.4273L72.9539 71.5431L72.3154 70.9109Z" fill="#D91100"/>
<path d="M70.4186 69.0079L74.5345 64.8921L75.1667 65.5243L71.0509 69.6401L70.4186 69.0079Z" fill="#D91100"/>
<path d="M68.5156 67.1112L72.6378 62.9954L73.27 63.6276L69.1542 67.7434L68.5156 67.1112Z" fill="#D91100"/>
<path d="M66.619 65.2082L70.7348 61.0924L71.367 61.7246L67.2512 65.8404L66.619 65.2082Z" fill="#D91100"/>
<path d="M64.7223 63.3115L68.8318 59.1957L69.4703 59.8279L65.3545 63.9437L64.7223 63.3115Z" fill="#D91100"/>
<path d="M62.8193 61.4085L66.9351 57.299L67.5673 57.9312L63.4515 62.047L62.8193 61.4085Z" fill="#D91100"/>
<path d="M60.9225 59.5118L65.0384 55.396L65.6706 56.0282L61.5548 60.144L60.9225 59.5118Z" fill="#D91100"/>
<path d="M59.0195 57.6088L63.1353 53.4993L63.7676 54.1315L59.6581 58.2473L59.0195 57.6088Z" fill="#D91100"/>
<path d="M57.1229 55.7121L61.2387 51.5963L61.8709 52.2285L57.7551 56.3443L57.1229 55.7121Z" fill="#D91100"/>
<path d="M55.2198 53.8154L59.3357 49.6996L59.9742 50.3318L55.8584 54.4476L55.2198 53.8154Z" fill="#D91100"/>
<path d="M53.3232 51.9124L57.439 47.7966L58.0712 48.4288L53.9554 52.5446L53.3232 51.9124Z" fill="#D91100"/>
<path d="M51.2747 49.864L55.3905 45.7481L56.0228 46.3804L51.9069 50.4962L51.2747 49.864Z" fill="#D91100"/>
<path d="M54.7457 46.374L57.2809 43.8451L83.3983 72.4851L82.1275 73.7559L54.7457 46.374Z" fill="#A80003"/>
<path d="M48.101 39.7293L48.7332 39.0971L58.1155 48.4794L57.4832 49.1116L48.101 39.7293Z" fill="#A80003"/>
</svg>
