<svg width="93" height="119" viewBox="0 0 93 119" fill="none" xmlns="http://www.w3.org/2000/svg">
<path d="M46.3899 99C70.1381 99 89.3899 79.7482 89.3899 56C89.3899 32.2518 70.1381 13 46.3899 13C22.6416 13 3.38989 32.2518 3.38989 56C3.38989 79.7482 22.6416 99 46.3899 99Z" fill="#DEF0E2" stroke="#C8E1CC" stroke-width="6"/>
<path d="M49.2705 22.8113H43.313L36.4617 59.1505H56.1219L49.2705 22.8113Z" fill="#D91100"/>
<path d="M49.2705 18.6415H43.313V22.8113H49.2705V18.6415Z" fill="#0D706A"/>
<path d="M56.1219 72.8533H36.4617V59.1505H56.1219V72.8533Z" fill="#D91100"/>
<path d="M57.4452 59.8946H35.1383V58.1767H57.4452V59.8946Z" fill="#D91100"/>
<path d="M53.9197 54.816C55.3979 54.816 56.5964 56.369 56.5964 58.2766H57.4453C57.4453 55.7598 55.8673 53.7174 53.9197 53.7174C51.9722 53.7174 50.3942 55.7598 50.3942 58.2766H51.2431C51.2431 56.369 52.4416 54.816 53.9197 54.816Z" fill="#F7B32A"/>
<path d="M53.9197 54.816C52.4415 54.816 51.243 56.369 51.243 58.2766H51.9571C51.9571 56.8784 52.836 55.7448 53.9197 55.7448C54.9983 55.7448 55.8772 56.8784 55.8772 58.2766H56.5963C56.5963 56.369 55.3978 54.816 53.9197 54.816Z" fill="white"/>
<path d="M53.9197 56.7435C54.5739 56.7435 55.1082 57.4327 55.1082 58.2766H55.8772C55.8772 56.8784 54.9983 55.7448 53.9197 55.7448C52.836 55.7448 51.9572 56.8784 51.9572 58.2766H52.7312C52.7312 57.4327 53.2605 56.7435 53.9197 56.7435Z" fill="#F7B32A"/>
<path d="M53.9197 56.7435C53.2605 56.7435 52.7312 57.4327 52.7312 58.2766H55.1082C55.1082 57.4327 54.5739 56.7435 53.9197 56.7435Z" fill="white"/>
<path d="M48.8311 54.816C50.3092 54.816 51.5077 56.369 51.5077 58.2766H52.3567C52.3567 55.7598 50.7786 53.7174 48.8311 53.7174C46.8885 53.7174 45.3055 55.7598 45.3055 58.2766H46.1545C46.1545 56.369 47.358 54.816 48.8311 54.816Z" fill="#F7B32A"/>
<path d="M48.831 54.816C47.3579 54.816 46.1544 56.369 46.1544 58.2766H46.8735C46.8735 56.8784 47.7474 55.7448 48.831 55.7448C49.9147 55.7448 50.7936 56.8784 50.7936 58.2766H51.5077C51.5077 56.369 50.3092 54.816 48.831 54.816Z" fill="white"/>
<path d="M48.8311 56.7435C49.4902 56.7435 50.0196 57.4327 50.0196 58.2766H50.7936C50.7936 56.8784 49.9147 55.7448 48.8311 55.7448C47.7474 55.7448 46.8735 56.8784 46.8735 58.2766H47.6426C47.6426 57.4327 48.1769 56.7435 48.8311 56.7435Z" fill="#F7B32A"/>
<path d="M48.8311 56.7435C48.1769 56.7435 47.6426 57.4327 47.6426 58.2766H50.0196C50.0196 57.4327 49.4903 56.7435 48.8311 56.7435Z" fill="white"/>
<path d="M43.7475 54.816C45.2256 54.816 46.4241 56.369 46.4241 58.2766H47.273C47.273 55.7598 45.695 53.7174 43.7475 53.7174C41.7999 53.7174 40.2219 55.7598 40.2219 58.2766H41.0709C41.0709 56.369 42.2693 54.816 43.7475 54.816Z" fill="#F7B32A"/>
<path d="M43.7476 54.816C42.2694 54.816 41.0709 56.369 41.0709 58.2766H41.79C41.79 56.8784 42.6689 55.7448 43.7476 55.7448C44.8312 55.7448 45.7101 56.8784 45.7101 58.2766H46.4242C46.4242 56.369 45.2257 54.816 43.7476 54.816Z" fill="white"/>
<path d="M43.7475 56.7435C44.4016 56.7435 44.936 57.4327 44.936 58.2766H45.71C45.71 56.8784 44.8311 55.7448 43.7475 55.7448C42.6688 55.7448 41.7899 56.8784 41.7899 58.2766H42.5589C42.5589 57.4327 43.0933 56.7435 43.7475 56.7435Z" fill="#F7B32A"/>
<path d="M43.7475 56.7435C43.0933 56.7435 42.559 57.4327 42.559 58.2766H44.936C44.936 57.4327 44.4016 56.7435 43.7475 56.7435Z" fill="white"/>
<path d="M38.6639 54.816C40.137 54.816 41.3405 56.369 41.3405 58.2766H42.1894C42.1894 55.7598 40.6064 53.7174 38.6639 53.7174C36.7163 53.7174 35.1383 55.7598 35.1383 58.2766H35.9822C35.9822 56.369 37.1807 54.816 38.6639 54.816Z" fill="#F7B32A"/>
<path d="M38.6639 54.816C37.1808 54.816 35.9823 56.369 35.9823 58.2766H36.7014C36.7014 56.8784 37.5803 55.7448 38.6639 55.7448C39.7426 55.7448 40.6215 56.8784 40.6215 58.2766H41.3406C41.3406 56.369 40.1371 54.816 38.6639 54.816Z" fill="white"/>
<path d="M38.6639 56.7435C39.3181 56.7435 39.8524 57.4327 39.8524 58.2766H40.6215C40.6215 56.8784 39.7426 55.7448 38.6639 55.7448C37.5803 55.7448 36.7014 56.8784 36.7014 58.2766H37.4754C37.4754 57.4327 38.0048 56.7435 38.6639 56.7435Z" fill="#F7B32A"/>
<path d="M38.6638 56.7435C38.0047 56.7435 37.4753 57.4327 37.4753 58.2766H39.8523C39.8523 57.4327 39.318 56.7435 38.6638 56.7435Z" fill="white"/>
<path d="M53.1407 73.6972C53.2405 73.7721 53.3304 73.857 53.4253 73.9469C53.6101 74.1317 53.7699 74.3464 53.9147 74.5811C53.7649 74.9406 53.655 75.3301 53.5801 75.7396C53.2555 74.8008 52.5314 74.1466 51.6875 74.1466C50.9135 74.1466 50.2393 74.7009 49.8848 75.5149C49.8049 75.1354 49.685 74.7808 49.5452 74.4513C49.665 74.2665 49.7999 74.1017 49.9497 73.9469C50.0396 73.857 50.1345 73.7721 50.2293 73.6972C50.3692 73.5873 50.514 73.4925 50.6688 73.4176C50.7736 73.3626 50.8835 73.3177 50.9984 73.2827C51.1931 73.2178 51.3979 73.1779 51.6126 73.1679C51.6376 73.1679 51.6625 73.1629 51.6875 73.1629C51.7125 73.1629 51.7374 73.1679 51.7624 73.1679C51.9721 73.1779 52.1769 73.2178 52.3766 73.2827C52.4915 73.3177 52.6013 73.3626 52.7062 73.4126C52.856 73.4925 53.0008 73.5873 53.1407 73.6972ZM54.3841 72.3189C54.7137 72.3189 55.0033 72.4787 55.228 72.7434C54.9434 72.9781 54.6837 73.2627 54.454 73.5873C54.2043 73.2328 53.9197 72.9282 53.6001 72.6785C53.8148 72.4588 54.0895 72.3189 54.3841 72.3189ZM48.9859 72.3189C49.2855 72.3189 49.5602 72.4588 49.7749 72.6785C49.4853 72.9032 49.2206 73.1729 48.9859 73.4875C48.7562 73.1729 48.4915 72.9032 48.2019 72.6785C48.4166 72.4588 48.6913 72.3189 48.9859 72.3189ZM47.0483 72.0942C46.9884 71.9095 46.9235 71.7347 46.8436 71.5649C47.3679 70.7809 48.127 70.2765 48.9859 70.2765C49.8498 70.2765 50.6089 70.7809 51.1332 71.5649C51.2281 71.7047 51.313 71.8545 51.3929 72.0143C51.2381 72.0293 51.0783 72.0543 50.9285 72.0942C50.8086 72.1242 50.6838 72.1691 50.5639 72.2141C50.1844 71.6348 49.6251 71.2603 48.9859 71.2603C48.3517 71.2603 47.7924 71.6348 47.4079 72.2141C47.293 72.1691 47.1682 72.1242 47.0483 72.0942ZM45.5352 72.0942C45.4104 72.1292 45.2856 72.1691 45.1707 72.2141C44.7862 71.6348 44.2269 71.2603 43.5927 71.2603C42.9535 71.2603 42.3942 71.6348 42.0147 72.2141C41.8948 72.1691 41.775 72.1292 41.6501 72.0942C41.5902 71.9095 41.5253 71.7347 41.4504 71.5649C41.9697 70.7809 42.7338 70.2765 43.5927 70.2765C44.4516 70.2765 45.2156 70.7809 45.735 71.5649C45.8299 71.7047 45.9198 71.8545 45.9947 72.0143C45.8399 72.0293 45.6851 72.0543 45.5352 72.0942ZM43.5927 73.4875C43.358 73.1729 43.0983 72.9032 42.8087 72.6785C43.0234 72.4588 43.2931 72.3189 43.5927 72.3189C43.8923 72.3189 44.162 72.4588 44.3767 72.6785C44.0871 72.9032 43.8224 73.1729 43.5927 73.4875ZM38.1945 73.4875C37.9648 73.1729 37.7001 72.9032 37.4105 72.6785C37.6252 72.4588 37.8949 72.3189 38.1945 72.3189C38.4941 72.3189 38.7638 72.4588 38.9785 72.6785C38.6889 72.9032 38.4242 73.1729 38.1945 73.4875ZM54.3841 70.2765C55.0433 70.2765 55.6375 70.5761 56.1219 71.0605V69.6623C55.6026 69.3127 55.0133 69.108 54.3841 69.108C53.3204 69.108 52.3666 69.6823 51.6875 70.6011C51.0084 69.6823 50.0496 69.108 48.9859 69.108C47.9272 69.108 46.9684 69.6823 46.2893 70.6011C45.6101 69.6823 44.6514 69.108 43.5927 69.108C42.529 69.108 41.5752 69.6823 40.8961 70.6011C40.2119 69.6823 39.2581 69.108 38.1945 69.108C37.5703 69.108 36.981 69.3127 36.4617 69.6623V71.0605C36.9411 70.5761 37.5403 70.2765 38.1945 70.2765C39.0584 70.2765 39.8174 70.7809 40.3418 71.5649C40.4317 71.7047 40.5216 71.8545 40.6015 72.0143C40.4417 72.0293 40.2869 72.0543 40.137 72.0942C40.0122 72.1292 39.8923 72.1691 39.7725 72.2141C39.393 71.6348 38.8287 71.2603 38.1945 71.2603C37.5603 71.2603 37.001 71.6348 36.6165 72.2141C36.5665 72.1941 36.5116 72.1791 36.4617 72.1591V73.3926C36.6315 73.4725 36.7962 73.5774 36.956 73.6972C37.0509 73.7721 37.1458 73.857 37.2357 73.9469C37.3805 74.0967 37.5153 74.2665 37.6402 74.4513C37.8899 74.8258 38.0796 75.2652 38.1945 75.7446C38.2794 76.0942 38.3343 76.4537 38.3343 76.8333H39.6327C39.6327 75.9344 40.197 75.2003 40.8961 75.2003C41.5902 75.2003 42.1545 75.9344 42.1545 76.8333H42.9735C42.9735 76.3539 42.8636 75.9044 42.6938 75.5099C42.3393 74.7009 41.6701 74.1466 40.8961 74.1466C40.1221 74.1466 39.4529 74.7009 39.0934 75.5099C39.0085 75.1354 38.8986 74.7808 38.7538 74.4513C38.8736 74.2665 39.0085 74.0967 39.1583 73.9469C39.2482 73.857 39.338 73.7721 39.4379 73.6972C39.5777 73.5873 39.7226 73.4925 39.8724 73.4176C39.9822 73.3626 40.0921 73.3177 40.202 73.2827C40.4017 73.2178 40.6065 73.1779 40.8212 73.1679C40.8461 73.1679 40.8661 73.1629 40.8961 73.1629C40.9211 73.1629 40.941 73.1679 40.966 73.1679C41.1807 73.1779 41.3855 73.2178 41.5852 73.2827C41.6951 73.3177 41.8049 73.3626 41.9148 73.4176C42.0646 73.4925 42.2094 73.5873 42.3493 73.6972C42.4491 73.7721 42.539 73.857 42.6289 73.9469C42.7787 74.0967 42.9135 74.2665 43.0384 74.4513C43.2831 74.8258 43.4728 75.2652 43.5927 75.7446C43.6726 76.0942 43.7325 76.4537 43.7325 76.8333H45.0259C45.0259 75.9344 45.5952 75.2003 46.2893 75.2003C46.9834 75.2003 47.5527 75.9344 47.5527 76.8333H48.3717C48.3717 76.3539 48.2618 75.9044 48.092 75.5099C47.7325 74.7009 47.0633 74.1466 46.2893 74.1466C45.5153 74.1466 44.8461 74.7009 44.4916 75.5149C44.4067 75.1354 44.2918 74.7808 44.147 74.4513C44.2718 74.2665 44.4017 74.1017 44.5515 73.9469C44.6414 73.857 44.7362 73.7721 44.8311 73.6972C44.971 73.5873 45.1158 73.4925 45.2706 73.4176C45.3754 73.3626 45.4903 73.3177 45.6002 73.2827C45.7999 73.2178 46.0047 73.1779 46.2144 73.1679C46.2394 73.1679 46.2643 73.1629 46.2893 73.1629C46.3143 73.1629 46.3392 73.1679 46.3642 73.1679C46.5789 73.1779 46.7837 73.2178 46.9784 73.2827C47.0933 73.3177 47.2031 73.3626 47.308 73.4126C47.4628 73.4925 47.6076 73.5873 47.7475 73.6922C47.8423 73.7721 47.9372 73.857 48.0271 73.9469C48.1769 74.0967 48.3117 74.2665 48.4316 74.4513C48.6813 74.8208 48.871 75.2602 48.9859 75.7446C49.0708 76.0892 49.1307 76.4537 49.1307 76.8333H50.4241C50.4241 75.9344 50.9884 75.2003 51.6875 75.2003C52.3816 75.2003 52.9459 75.9344 52.9459 76.8333H54.3841C54.3841 76.5586 54.4091 76.2939 54.454 76.0393C54.5439 75.4949 54.7387 75.0056 54.9933 74.5811C55.1382 74.3464 55.3029 74.1317 55.4827 73.9469C55.5376 73.8969 55.5826 73.837 55.6325 73.7921C55.7873 73.6572 55.9471 73.5374 56.1219 73.4475V72.2091C56.077 72.229 56.037 72.249 55.9971 72.269C55.6175 71.6548 55.0383 71.2603 54.3841 71.2603C53.7499 71.2603 53.1906 71.6348 52.8061 72.2141C52.6862 72.1691 52.5664 72.1242 52.4415 72.0942C52.3866 71.9095 52.3167 71.7347 52.2418 71.5649C52.7611 70.7809 53.5252 70.2765 54.3841 70.2765Z" fill="#F7B32A"/>
<path d="M36.4617 74.4662V75.7946C36.6414 76.0792 36.7563 76.4387 36.7563 76.8332H37.5753C37.5753 76.3538 37.4654 75.9044 37.2956 75.5099C37.1009 75.0655 36.8112 74.7009 36.4617 74.4662Z" fill="#F7B32A"/>
<path d="M55.1432 76.8332H55.9622C55.9622 76.5536 56.0221 76.2889 56.122 76.0592V74.5661C55.7724 74.8408 55.4977 75.2552 55.328 75.7396C55.2131 76.0742 55.1432 76.4437 55.1432 76.8332Z" fill="#F7B32A"/>
<path d="M54.3841 70.2765C53.5252 70.2765 52.7612 70.7809 52.2418 71.5649C52.3167 71.7347 52.3866 71.9094 52.4416 72.0942C52.5664 72.1242 52.6863 72.1691 52.8061 72.2141C53.1906 71.6348 53.7499 71.2603 54.3841 71.2603C55.0383 71.2603 55.6176 71.6548 55.9971 72.269C56.037 72.249 56.077 72.229 56.1219 72.2091V71.0605C55.6375 70.5761 55.0433 70.2765 54.3841 70.2765Z" fill="white"/>
<path d="M55.228 72.7434C55.0033 72.4787 54.7137 72.3189 54.3841 72.3189C54.0895 72.3189 53.8148 72.4588 53.6001 72.6785C53.9197 72.9282 54.2043 73.2328 54.454 73.5873C54.6837 73.2627 54.9434 72.9781 55.228 72.7434Z" fill="white"/>
<path d="M47.4079 72.2141C47.7924 71.6348 48.3517 71.2603 48.9859 71.2603C49.6251 71.2603 50.1844 71.6348 50.5639 72.2141C50.6838 72.1691 50.8086 72.1242 50.9285 72.0942C51.0783 72.0543 51.2381 72.0293 51.3929 72.0143C51.313 71.8545 51.2281 71.7047 51.1332 71.5649C50.6089 70.7809 49.8498 70.2765 48.9859 70.2765C48.127 70.2765 47.368 70.7809 46.8436 71.5649C46.9235 71.7347 46.9884 71.9094 47.0484 72.0942C47.1682 72.1242 47.2931 72.1691 47.4079 72.2141Z" fill="white"/>
<path d="M48.9859 72.3189C48.6913 72.3189 48.4166 72.4588 48.2019 72.6785C48.4915 72.9032 48.7562 73.1729 48.9859 73.4875C49.2206 73.1729 49.4853 72.9032 49.7749 72.6785C49.5602 72.4588 49.2855 72.3189 48.9859 72.3189Z" fill="white"/>
<path d="M42.0147 72.2141C42.3943 71.6348 42.9535 71.2603 43.5927 71.2603C44.2269 71.2603 44.7862 71.6348 45.1708 72.2141C45.2856 72.1691 45.4105 72.1292 45.5353 72.0942C45.6851 72.0543 45.8399 72.0293 45.9947 72.0143C45.9198 71.8545 45.8299 71.7047 45.735 71.5649C45.2157 70.7809 44.4517 70.2765 43.5927 70.2765C42.7338 70.2765 41.9698 70.7809 41.4504 71.5649C41.5253 71.7347 41.5903 71.9094 41.6502 72.0942C41.775 72.1292 41.8949 72.1691 42.0147 72.2141Z" fill="white"/>
<path d="M43.5927 72.3189C43.2931 72.3189 43.0234 72.4588 42.8087 72.6785C43.0984 72.9032 43.358 73.1729 43.5927 73.4875C43.8224 73.1729 44.0871 72.9032 44.3767 72.6785C44.162 72.4588 43.8924 72.3189 43.5927 72.3189Z" fill="white"/>
<path d="M38.1945 71.2603C38.8287 71.2603 39.393 71.6348 39.7725 72.2141C39.8923 72.1691 40.0122 72.1292 40.137 72.0942C40.2869 72.0543 40.4417 72.0293 40.6015 72.0143C40.5216 71.8545 40.4317 71.7047 40.3418 71.5649C39.8174 70.7809 39.0584 70.2765 38.1945 70.2765C37.5403 70.2765 36.9411 70.5761 36.4617 71.0605V72.1591C36.5116 72.1791 36.5665 72.1941 36.6165 72.2141C37.001 71.6348 37.5603 71.2603 38.1945 71.2603Z" fill="white"/>
<path d="M38.1945 72.3189C37.8949 72.3189 37.6253 72.4588 37.4105 72.6785C37.7002 72.9032 37.9648 73.1729 38.1945 73.4875C38.4242 73.1729 38.6889 72.9032 38.9785 72.6785C38.7638 72.4588 38.4942 72.3189 38.1945 72.3189Z" fill="white"/>
<path d="M53.1406 73.6972C53.0008 73.5873 52.856 73.4925 52.7062 73.4126C52.6013 73.3626 52.4915 73.3177 52.3766 73.2827C52.1769 73.2178 51.9721 73.1779 51.7624 73.1679C51.7374 73.1679 51.7124 73.1629 51.6875 73.1629C51.6625 73.1629 51.6375 73.1679 51.6126 73.1679C51.3978 73.1779 51.1931 73.2178 50.9983 73.2827C50.8835 73.3177 50.7736 73.3626 50.6688 73.4176C50.5139 73.4925 50.3691 73.5873 50.2293 73.6972C50.1344 73.7721 50.0395 73.857 49.9497 73.9469C49.7998 74.1017 49.665 74.2665 49.5452 74.4512C49.685 74.7808 49.8048 75.1354 49.8847 75.5149C50.2393 74.7009 50.9134 74.1466 51.6875 74.1466C52.5314 74.1466 53.2555 74.8008 53.5801 75.7396C53.655 75.3301 53.7649 74.9406 53.9147 74.5811C53.7698 74.3464 53.61 74.1317 53.4253 73.9469C53.3304 73.857 53.2405 73.7721 53.1406 73.6972Z" fill="white"/>
<path d="M51.6875 75.2003C50.9884 75.2003 50.4241 75.9344 50.4241 76.8332H52.9459C52.9459 75.9344 52.3816 75.2003 51.6875 75.2003Z" fill="white"/>
<path d="M48.4316 74.4512C48.3117 74.2665 48.1769 74.0967 48.0271 73.9469C47.9372 73.857 47.8423 73.7721 47.7474 73.6922C47.6076 73.5873 47.4628 73.4925 47.308 73.4126C47.2031 73.3626 47.0933 73.3177 46.9784 73.2827C46.7837 73.2178 46.5789 73.1779 46.3642 73.1679C46.3392 73.1679 46.3142 73.1629 46.2893 73.1629C46.2643 73.1629 46.2393 73.1679 46.2144 73.1679C46.0046 73.1779 45.7999 73.2178 45.6001 73.2827C45.4903 73.3177 45.3754 73.3626 45.2706 73.4176C45.1158 73.4925 44.9709 73.5873 44.8311 73.6972C44.7362 73.7721 44.6413 73.857 44.5515 73.9469C44.4017 74.1017 44.2718 74.2665 44.147 74.4512C44.2918 74.7808 44.4066 75.1354 44.4915 75.5149C44.8461 74.7009 45.5152 74.1466 46.2893 74.1466C47.0633 74.1466 47.7325 74.7009 48.092 75.5099C48.2618 75.9044 48.3717 76.3539 48.3717 76.8333H49.1307C49.1307 76.4537 49.0708 76.0892 48.9859 75.7446C48.871 75.2602 48.6813 74.8208 48.4316 74.4512Z" fill="white"/>
<path d="M46.2893 75.2003C45.5952 75.2003 45.0259 75.9344 45.0259 76.8332H47.5527C47.5527 75.9344 46.9834 75.2003 46.2893 75.2003Z" fill="white"/>
<path d="M43.0384 74.4512C42.9135 74.2665 42.7787 74.0967 42.6289 73.9469C42.539 73.857 42.4491 73.7721 42.3493 73.6972C42.2094 73.5873 42.0646 73.4925 41.9148 73.4176C41.8049 73.3626 41.6951 73.3177 41.5852 73.2827C41.3855 73.2178 41.1807 73.1779 40.966 73.1679C40.941 73.1679 40.9211 73.1629 40.8961 73.1629C40.8661 73.1629 40.8461 73.1679 40.8212 73.1679C40.6065 73.1779 40.4017 73.2178 40.202 73.2827C40.0921 73.3177 39.9822 73.3626 39.8724 73.4176C39.7226 73.4925 39.5777 73.5873 39.4379 73.6972C39.338 73.7721 39.2482 73.857 39.1583 73.9469C39.0085 74.0967 38.8736 74.2665 38.7538 74.4512C38.8986 74.7808 39.0085 75.1354 39.0934 75.5099C39.4529 74.7009 40.1221 74.1466 40.8961 74.1466C41.6701 74.1466 42.3393 74.7009 42.6938 75.5099C42.8636 75.9044 42.9735 76.3539 42.9735 76.8333H43.7325C43.7325 76.4537 43.6726 76.0942 43.5927 75.7446C43.4728 75.2652 43.2831 74.8258 43.0384 74.4512Z" fill="white"/>
<path d="M40.8961 75.2003C40.197 75.2003 39.6327 75.9344 39.6327 76.8332H42.1545C42.1545 75.9344 41.5902 75.2003 40.8961 75.2003Z" fill="white"/>
<path d="M37.6402 74.4512C37.5153 74.2665 37.3805 74.0967 37.2357 73.9469C37.1458 73.857 37.0509 73.7721 36.956 73.6972C36.7962 73.5773 36.6315 73.4725 36.4617 73.3926V74.4662C36.8112 74.7009 37.1009 75.0655 37.2956 75.5099C37.4654 75.9044 37.5753 76.3538 37.5753 76.8332H38.3343C38.3343 76.4537 38.2794 76.0942 38.1945 75.7446C38.0796 75.2652 37.8899 74.8258 37.6402 74.4512Z" fill="white"/>
<path d="M36.4617 76.8332H36.7563C36.7563 76.4387 36.6414 76.0792 36.4617 75.7946V76.8332Z" fill="white"/>
<path d="M55.4828 73.9469C55.303 74.1316 55.1382 74.3464 54.9934 74.5811C54.7387 75.0055 54.544 75.4949 54.4541 76.0392C54.4091 76.2939 54.3842 76.5586 54.3842 76.8332H55.1432C55.1432 76.4437 55.2131 76.0742 55.328 75.7396C55.4978 75.2552 55.7724 74.8408 56.122 74.5661V73.4475C55.9472 73.5374 55.7874 73.6572 55.6326 73.7921C55.5826 73.837 55.5377 73.8969 55.4828 73.9469Z" fill="white"/>
<path d="M56.122 76.8332V76.0592C56.0221 76.2889 55.9622 76.5536 55.9622 76.8332H56.122Z" fill="white"/>
<path d="M34.5041 54.786C32.7164 53.198 31.5479 51.3903 30.7838 49.7723C29.7651 47.2205 30.0697 45.1531 30.0697 45.1531H28.7064C28.7064 45.1531 29.0061 47.2205 27.9873 49.7723C27.2233 51.3903 26.0598 53.198 24.267 54.786C19.6628 58.8809 17.7902 63.5749 22.0498 66.9008H36.7213C40.986 63.5749 39.1083 58.8809 34.5041 54.786Z" fill="#0D706A"/>
<path d="M30.664 44.469C30.664 45.1781 30.0947 45.7474 29.3856 45.7474C28.6815 45.7474 28.1072 45.1781 28.1072 44.469C28.1072 43.7599 28.6815 43.1906 29.3856 43.1906C30.0947 43.1906 30.664 43.7599 30.664 44.469Z" fill="#F7B32A"/>
<path d="M29.7351 45.9421H29.036V36.3892H29.7351V45.9421Z" fill="#F7B32A"/>
<path d="M31.0584 37.4728V38.1769H27.7177V37.4728H31.0584Z" fill="#F7B32A"/>
<path d="M24.1222 67.7097C24.1222 67.7097 21.8251 65.4925 21.8251 62.0868C21.8251 58.6811 23.3282 57.0182 24.6765 55.6749C26.0198 54.3266 28.0422 52.0295 28.1571 51.0807H27.6827C27.6827 51.0807 27.6028 52.3091 24.3169 55.4352C21.0311 58.5613 20.5167 59.7498 20.5167 62.2466C20.5167 64.7385 22.8538 67.7097 22.8538 67.7097H24.1222Z" fill="white"/>
<path d="M28.5166 51.0807C28.5166 51.0807 27.8025 53.2579 26.0997 55.3952C24.4018 57.5325 23.4081 59.4751 23.4081 61.5325C23.4081 63.5899 24.8313 66.681 25.4255 67.7097H26.8138C26.8138 67.7097 25.2308 63.1155 25.2707 61.6524C25.3057 60.1842 25.7451 57.967 26.7738 56.1493C27.8025 54.3266 28.9112 51.0807 28.9112 51.0807H28.5166Z" fill="white"/>
<path d="M34.6539 67.7097C34.6539 67.7097 36.951 65.4925 36.951 62.0868C36.951 58.6811 35.4479 57.0182 34.0996 55.6749C32.7513 54.3266 30.7339 52.0295 30.614 51.0807H31.0884C31.0884 51.0807 31.1683 52.3091 34.4542 55.4352C37.74 58.5613 38.2544 59.7498 38.2544 62.2466C38.2544 64.7385 35.9173 67.7097 35.9173 67.7097H34.6539Z" fill="white"/>
<path d="M30.2595 51.0807C30.2595 51.0807 30.9686 53.2579 32.6714 55.3952C34.3743 57.5325 35.368 59.4751 35.368 61.5325C35.368 63.5899 33.9398 66.681 33.3456 67.7097H31.9623C31.9623 67.7097 33.5453 63.1155 33.5054 61.6524C33.4654 60.1842 33.031 57.967 32.0023 56.1493C30.9686 54.3266 29.86 51.0807 29.86 51.0807H30.2595Z" fill="white"/>
<path d="M29.6253 51.0807H29.1459C29.1459 51.0807 26.5741 62.6411 28.7514 67.7097H30.0198C32.197 62.6411 29.6253 51.0807 29.6253 51.0807Z" fill="white"/>
<path d="M21.6154 80.7483H36.7213V66.9008H21.6154V80.7483Z" fill="#D91100"/>
<path d="M15.9425 65.5924C14.3645 64.1892 13.3358 62.5962 12.6617 61.168C11.7628 58.9108 12.0275 57.0881 12.0275 57.0881H10.824C10.824 57.0881 11.0887 58.9108 10.1898 61.168C9.51563 62.5962 8.48693 64.1892 6.90892 65.5924C2.84404 69.2078 1.19112 73.3476 4.95138 76.2839H17.9001C21.6653 73.3476 20.0074 69.2078 15.9425 65.5924Z" fill="#F7B32A"/>
<path d="M11.7378 59.4701H11.1185V51.0357H11.7378V59.4701Z" fill="#F7B32A"/>
<path d="M12.9014 51.9995V52.6187H9.95508V51.9995H12.9014Z" fill="#F7B32A"/>
<path d="M6.6143 65.8671C5.3459 66.7609 4.13742 67.6248 3.02882 69.5374C1.08127 72.9082 4.20733 75.6348 4.20733 75.6348C3.9177 75.2802 4.08748 75.5798 3.87775 75.2353C1.66553 72.4937 3.21358 69.0031 6.6143 65.8671Z" fill="#5BC9C3"/>
<path d="M7.30844 66.1167C11.1786 63.2154 11.1186 60.0494 11.1186 60.0494H10.7791C10.7791 60.0494 10.4894 62.5912 8.50693 64.3889C7.86774 64.9782 7.23353 65.4276 6.61432 65.8671C3.2136 69.0031 1.66555 72.4937 3.87776 75.2353C1.76043 71.7446 3.78787 68.7584 7.30844 66.1167Z" fill="#5BC9C3"/>
<path d="M8.11242 67.7846C12.4969 65.2179 11.9676 60.0494 11.9676 60.0494H11.603C11.5381 63.3902 9.20105 65.6074 8.07746 66.3664C6.95388 67.1305 4.58186 69.0431 3.95765 71.7447C3.32844 74.4512 5.14116 76.264 5.14116 76.264L6.12991 76.229C6.12991 76.229 3.72294 70.3564 8.11242 67.7846Z" fill="#5BC9C3"/>
<path d="M8.77156 69.867C6.1948 72.8333 7.18855 76.264 7.18855 76.264H8.93136C8.93136 76.264 9.13111 72.8333 11.9875 69.4026C13.7902 67.2403 13.5455 64.0843 13.1161 62.0469C12.9513 61.7522 12.7965 61.4526 12.6617 61.168C12.5069 60.7785 12.392 60.4039 12.2921 60.0494C13.2809 64.9083 11.3433 66.8958 8.77156 69.867Z" fill="#5BC9C3"/>
<path d="M13.7203 63.0356C14.0549 64.0244 14.3995 65.4576 14.5443 67.4251C14.8539 71.48 10.4894 76.264 10.4894 76.264H11.9725C17.3857 72.9681 16.4119 67.1704 16.0574 65.6973C16.0174 65.6623 15.9825 65.6274 15.9425 65.5924C15.0287 64.7784 14.3046 63.9045 13.7203 63.0356Z" fill="#5BC9C3"/>
<path d="M19.563 70.3015C19.0936 69.128 18.2596 67.9295 17.161 66.7709C19.0886 71.9943 14.799 75.5599 13.8302 76.2839H16.1423C18.2496 74.9057 19.523 71.9993 19.563 70.3015Z" fill="#5BC9C3"/>
<path d="M20.0025 72.5436C19.2684 74.676 17.9051 75.9144 17.4457 76.2839H17.9001C19.3183 75.1753 19.9675 73.9019 20.0025 72.5436Z" fill="#5BC9C3"/>
<path d="M12.2921 60.0494C11.8477 58.3365 12.0275 57.0881 12.0275 57.0881H10.824C10.824 57.0881 11.0038 58.3365 10.5593 60.0494H12.2921Z" fill="#5BC9C3"/>
<path d="M12.5568 56.4839C12.5568 57.1081 12.0525 57.6125 11.4233 57.6125C10.804 57.6125 10.2947 57.1081 10.2947 56.4839C10.2947 55.8597 10.804 55.3553 11.4233 55.3553C12.0525 55.3553 12.5568 55.8597 12.5568 56.4839Z" fill="#F7B32A"/>
<path d="M17.935 89.8169H5.14111V76.264H17.935V89.8169Z" fill="#D91100"/>
<path d="M73.2953 60.2292C74.8733 58.8259 75.902 57.2329 76.5762 55.7997C77.475 53.5476 77.2104 51.7199 77.2104 51.7199H78.4138C78.4138 51.7199 78.1442 53.5476 79.0431 55.7997C79.7222 57.2329 80.7459 58.8259 82.3289 60.2292C86.3938 63.8446 88.0467 67.9844 84.2815 70.9207H71.3378C67.5725 67.9844 69.2254 63.8446 73.2953 60.2292Z" fill="#D91100"/>
<path d="M77.5 52.419H78.1192V43.9846H77.5V52.419Z" fill="#F7B32A"/>
<path d="M76.3364 44.9484V45.5676H79.2827V44.9484H76.3364Z" fill="#F7B32A"/>
<path d="M82.6285 60.4988C83.8919 61.3977 85.1004 62.2566 86.204 64.1692C88.1566 67.5449 85.0305 70.2715 85.0305 70.2715C85.3202 69.917 85.1504 70.2166 85.3601 69.872C87.5723 67.1255 86.0243 63.6349 82.6285 60.4988Z" fill="#5BC9C3"/>
<path d="M81.9295 60.7485C78.0594 57.8521 78.1193 54.6811 78.1193 54.6811H78.4539C78.4539 54.6811 78.7485 57.2229 80.726 59.0257C81.3702 59.6099 82.0044 60.0594 82.6286 60.4988C86.0244 63.6349 87.5724 67.1255 85.3602 69.872C87.4775 66.3814 85.4551 63.3902 81.9295 60.7485Z" fill="#5BC9C3"/>
<path d="M81.1255 62.4214C76.741 59.8496 77.2654 54.6811 77.2654 54.6811H77.6299C77.6948 58.0269 80.0369 60.2441 81.1605 61.0032C82.2791 61.7622 84.6561 63.6748 85.2803 66.3814C85.9095 69.083 84.0968 70.8957 84.0968 70.8957L83.108 70.8658C83.108 70.8658 85.515 64.9932 81.1255 62.4214Z" fill="#5BC9C3"/>
<path d="M80.4664 64.4988C83.0382 67.465 82.0494 70.8957 82.0494 70.8957H80.3016C80.3016 70.8957 80.1019 67.465 77.2505 64.0394C75.4477 61.8721 75.6924 58.7211 76.1219 56.6836C76.2867 56.384 76.4415 56.0894 76.5763 55.7997C76.7311 55.4152 76.851 55.0407 76.9408 54.6811C75.9571 59.54 77.8946 61.5325 80.4664 64.4988Z" fill="#5BC9C3"/>
<path d="M75.5175 57.6674C75.1829 58.6561 74.8383 60.0943 74.6935 62.0618C74.3839 66.1117 78.7484 70.8957 78.7484 70.8957H77.2653C71.8521 67.6049 72.8259 61.8072 73.1804 60.334C73.2154 60.2991 73.2553 60.2641 73.2953 60.2292C74.2091 59.4152 74.9332 58.5413 75.5175 57.6674Z" fill="#5BC9C3"/>
<path d="M69.6748 64.9332C70.1442 63.7597 70.9732 62.5662 72.0768 61.4077C70.1492 66.6261 74.4388 70.1966 75.4076 70.9207H73.0905C70.9881 69.5424 69.7148 66.6361 69.6748 64.9332Z" fill="#5BC9C3"/>
<path d="M69.2305 67.1754C69.9645 69.3127 71.3278 70.5512 71.7922 70.9207H71.3378C69.9196 69.8121 69.2704 68.5337 69.2305 67.1754Z" fill="#5BC9C3"/>
<path d="M76.9407 54.6811C77.3901 52.9733 77.2103 51.7199 77.2103 51.7199H78.4138C78.4138 51.7199 78.234 52.9733 78.6785 54.6811H76.9407Z" fill="#5BC9C3"/>
<path d="M76.681 51.1206C76.681 51.7448 77.1854 52.2492 77.8096 52.2492C78.4338 52.2492 78.9382 51.7448 78.9382 51.1206C78.9382 50.4964 78.4338 49.992 77.8096 49.992C77.1854 49.992 76.681 50.4964 76.681 51.1206Z" fill="#F7B32A"/>
<path d="M71.2979 84.4536H84.0967V70.8957H71.2979V84.4536Z" fill="#D91100"/>
<path d="M35.9823 105.312H55.9621V76.8332H35.9823V105.312Z" fill="#D91100"/>
<path d="M83.3826 83.4799C84.8758 83.4799 86.0892 85.0329 86.0892 86.9405H86.9531C86.9531 84.4237 85.3502 82.3813 83.3826 82.3813C81.4051 82.3813 79.8121 84.4237 79.8121 86.9405H80.6711C80.6711 85.0329 81.8845 83.4799 83.3826 83.4799Z" fill="#0D706A"/>
<path d="M83.3826 83.4799C81.8845 83.4799 80.671 85.0329 80.671 86.9405H81.3951C81.3951 85.5423 82.284 84.4037 83.3826 84.4037C84.4762 84.4037 85.3651 85.5423 85.3651 86.9405H86.0892C86.0892 85.0329 84.8757 83.4799 83.3826 83.4799Z" fill="white"/>
<path d="M83.3826 85.4075C84.0468 85.4075 84.5861 86.0966 84.5861 86.9405H85.3651C85.3651 85.5423 84.4763 84.4037 83.3826 84.4037C82.284 84.4037 81.3951 85.5423 81.3951 86.9405H82.1742C82.1742 86.0966 82.7185 85.4075 83.3826 85.4075Z" fill="#0D706A"/>
<path d="M83.3826 85.4074C82.7184 85.4074 82.1741 86.0966 82.1741 86.9405H84.586C84.586 86.0966 84.0467 85.4074 83.3826 85.4074Z" fill="white"/>
<path d="M78.2291 83.4799C79.7272 83.4799 80.9407 85.0329 80.9407 86.9405H81.7996C81.7996 84.4237 80.2016 82.3813 78.2291 82.3813C76.2566 82.3813 74.6586 84.4237 74.6586 86.9405H75.5175C75.5175 85.0329 76.736 83.4799 78.2291 83.4799Z" fill="#0D706A"/>
<path d="M78.229 83.4799C76.7359 83.4799 75.5175 85.0329 75.5175 86.9405H76.2465C76.2465 85.5423 77.1354 84.4037 78.229 84.4037C79.3227 84.4037 80.2165 85.5423 80.2165 86.9405H80.9406C80.9406 85.0329 79.7272 83.4799 78.229 83.4799Z" fill="white"/>
<path d="M78.2291 85.4075C78.8932 85.4075 79.4376 86.0966 79.4376 86.9405H80.2166C80.2166 85.5423 79.3227 84.4037 78.2291 84.4037C77.1355 84.4037 76.2466 85.5423 76.2466 86.9405H77.0256C77.0256 86.0966 77.5649 85.4075 78.2291 85.4075Z" fill="#0D706A"/>
<path d="M78.2291 85.4074C77.565 85.4074 77.0256 86.0966 77.0256 86.9405H79.4376C79.4376 86.0966 78.8933 85.4074 78.2291 85.4074Z" fill="white"/>
<path d="M73.0805 83.4799C74.5736 83.4799 75.7871 85.0329 75.7871 86.9405H76.651C76.651 84.4237 75.053 82.3813 73.0805 82.3813C71.108 82.3813 69.51 84.4237 69.51 86.9405H70.3689C70.3689 85.0329 71.5824 83.4799 73.0805 83.4799Z" fill="#0D706A"/>
<path d="M73.0806 83.4799C71.5825 83.4799 70.369 85.0329 70.369 86.9405H71.0931C71.0931 85.5423 71.982 84.4037 73.0806 84.4037C74.1742 84.4037 75.0631 85.5423 75.0631 86.9405H75.7872C75.7872 85.0329 74.5737 83.4799 73.0806 83.4799Z" fill="white"/>
<path d="M73.0805 85.4075C73.7447 85.4075 74.284 86.0966 74.284 86.9405H75.063C75.063 85.5423 74.1741 84.4037 73.0805 84.4037C71.9819 84.4037 71.093 85.5423 71.093 86.9405H71.877C71.877 86.0966 72.4164 85.4075 73.0805 85.4075Z" fill="#0D706A"/>
<path d="M73.0806 85.4074C72.4164 85.4074 71.8771 86.0966 71.8771 86.9405H74.284C74.284 86.0966 73.7447 85.4074 73.0806 85.4074Z" fill="white"/>
<path d="M16.342 86.9405C17.6903 86.9405 18.784 88.114 18.784 89.5622H19.558C19.558 87.6546 18.1198 86.1016 16.342 86.1016C14.5593 86.1016 13.1211 87.6546 13.1211 89.5622H13.8951C13.8951 88.114 14.9887 86.9405 16.342 86.9405Z" fill="#0D706A"/>
<path d="M16.3421 86.9405C14.9888 86.9405 13.8951 88.114 13.8951 89.5622H14.5493C14.5493 88.5036 15.3533 87.6396 16.3421 87.6396C17.3258 87.6396 18.1298 88.5036 18.1298 89.5622H18.784C18.784 88.114 17.6904 86.9405 16.3421 86.9405Z" fill="white"/>
<path d="M16.3421 88.3987C16.9413 88.3987 17.4257 88.918 17.4257 89.5622H18.1298C18.1298 88.5036 17.3258 87.6396 16.3421 87.6396C15.3533 87.6396 14.5493 88.5036 14.5493 89.5622H15.2534C15.2534 88.918 15.7428 88.3987 16.3421 88.3987Z" fill="#0D706A"/>
<path d="M16.342 88.3987C15.7428 88.3987 15.2534 88.918 15.2534 89.5622H17.4257C17.4257 88.918 16.9413 88.3987 16.342 88.3987Z" fill="white"/>
<path d="M11.6979 86.9405C13.0462 86.9405 14.1398 88.114 14.1398 89.5622H14.9138C14.9138 87.6546 13.4756 86.1016 11.6979 86.1016C9.92011 86.1016 8.47693 87.6546 8.47693 89.5622H9.25095C9.25095 88.114 10.3496 86.9405 11.6979 86.9405Z" fill="#0D706A"/>
<path d="M11.6979 86.9405C10.3496 86.9405 9.25098 88.114 9.25098 89.5622H9.91015C9.91015 88.5036 10.7041 87.6396 11.6979 87.6396C12.6867 87.6396 13.4856 88.5036 13.4856 89.5622H14.1398C14.1398 88.114 13.0462 86.9405 11.6979 86.9405Z" fill="white"/>
<path d="M11.6979 88.3987C12.2972 88.3987 12.7865 88.918 12.7865 89.5622H13.4857C13.4857 88.5036 12.6867 87.6396 11.6979 87.6396C10.7042 87.6396 9.91016 88.5036 9.91016 89.5622H10.6093C10.6093 88.918 11.0987 88.3987 11.6979 88.3987Z" fill="#0D706A"/>
<path d="M11.6979 88.3987C11.0986 88.3987 10.6093 88.918 10.6093 89.5622H12.7865C12.7865 88.918 12.2971 88.3987 11.6979 88.3987Z" fill="white"/>
<path d="M7.05371 86.9405C8.40201 86.9405 9.49563 88.114 9.49563 89.5622H10.2697C10.2697 87.6546 8.83147 86.1016 7.05371 86.1016C5.27595 86.1016 3.83276 87.6546 3.83276 89.5622H4.61178C4.61178 88.114 5.70541 86.9405 7.05371 86.9405Z" fill="#0D706A"/>
<path d="M7.05374 86.9405C5.70544 86.9405 4.61182 88.114 4.61182 89.5622H5.261C5.261 88.5036 6.06499 87.6396 7.05374 87.6396C8.0425 87.6396 8.84149 88.5036 8.84149 89.5622H9.49567C9.49567 88.114 8.40204 86.9405 7.05374 86.9405Z" fill="white"/>
<path d="M7.05373 88.3987C7.65297 88.3987 8.13736 88.918 8.13736 89.5622H8.84148C8.84148 88.5036 8.04248 87.6396 7.05373 87.6396C6.06497 87.6396 5.26099 88.5036 5.26099 89.5622H5.97009C5.97009 88.918 6.45448 88.3987 7.05373 88.3987Z" fill="#0D706A"/>
<path d="M7.05373 88.3987C6.45448 88.3987 5.97009 88.918 5.97009 89.5622H8.13736C8.13736 88.918 7.65297 88.3987 7.05373 88.3987Z" fill="white"/>
<path d="M48.961 10.8963C48.0022 9.87257 47.378 8.71403 46.9685 7.67534C46.4192 6.0324 46.579 4.70408 46.579 4.70408H45.8549C45.8549 4.70408 46.0147 6.0324 45.4654 7.67534C45.0609 8.71403 44.4317 9.87257 43.4729 10.8963C41.001 13.523 40.956 16.5392 43.2432 18.6715H49.1907C51.4778 16.5392 51.4328 13.523 48.961 10.8963Z" fill="#F7B32A"/>
<path d="M46.9035 4.33954C46.9035 4.71906 46.5939 5.02367 46.2194 5.02367C45.8399 5.02367 45.5303 4.71906 45.5303 4.33954C45.5303 3.96001 45.8399 3.6504 46.2194 3.6504C46.5939 3.6504 46.9035 3.96001 46.9035 4.33954Z" fill="#F7B32A"/>
<path d="M46.4042 5.12854H46.0247V0H46.4042V5.12854Z" fill="#F7B32A"/>
<path d="M47.1133 0.584265V0.963787H45.3206V0.584265H47.1133Z" fill="#F7B32A"/>
<path d="M66.424 70.9956C64.831 69.5824 63.7923 67.9744 63.1132 66.5312C62.2043 64.2541 62.474 62.4164 62.474 62.4164H61.2605C61.2605 62.4164 61.5252 64.2541 60.6213 66.5312C59.9422 67.9744 58.9035 69.5824 57.3105 70.9956C53.2107 74.641 51.5378 79.7695 55.333 82.7358H68.3965C72.1918 79.7695 70.5239 74.641 66.424 70.9956Z" fill="#5BC9C3"/>
<path d="M63.0082 61.8072C63.0082 62.4364 62.4938 62.9457 61.8646 62.9457C61.2354 62.9457 60.7261 62.4364 60.7261 61.8072C60.7261 61.178 61.2354 60.6686 61.8646 60.6686C62.4938 60.6686 63.0082 61.178 63.0082 61.8072Z" fill="#F7B32A"/>
<path d="M62.1793 63.1155H61.55V54.6112H62.1793V63.1155Z" fill="#F7B32A"/>
<path d="M63.3528 55.58V56.2092H60.3766V55.58H63.3528Z" fill="#F7B32A"/>
<path d="M61.6799 62.9607C61.6799 64.4538 61.6549 65.3577 61.7598 66.2616C61.605 67.1804 61.4901 67.6648 61.1056 68.5936C61.0257 67.6798 61.0407 67.2054 61.0956 66.3015C61.4202 65.3827 61.57 64.4788 61.6799 62.9607Z" fill="#F7B32A"/>
<path d="M55.4078 80.988C55.0932 81.4824 54.8834 81.832 54.7186 82.1815C54.9034 82.3713 55.1081 82.556 55.3329 82.7358H57.1406C56.5064 82.1466 56.0769 81.7221 55.4078 80.988Z" fill="#F7B32A"/>
<path d="M53.2656 78.2015C53.2506 78.2165 53.2406 78.2315 53.2256 78.2465C53.1757 79.425 53.4603 80.5586 54.1744 81.5423C54.3542 81.2227 54.5739 80.8931 54.8786 80.4487C54.1345 79.5748 53.7899 79.1154 53.2656 78.2015Z" fill="#F7B32A"/>
<path d="M58.5189 82.7358H61.2355C60.7211 82.1216 60.3516 81.6971 59.7224 80.9481C59.1781 81.7021 58.8785 82.1316 58.5189 82.7358Z" fill="#F7B32A"/>
<path d="M55.8323 80.4387C56.5663 81.3176 56.9858 81.7421 57.7948 82.5411C58.2642 81.7271 58.5738 81.2926 59.228 80.4038C58.5189 79.5249 58.1693 79.0704 57.5701 78.1516C56.826 79.0854 56.4515 79.5498 55.8323 80.4387Z" fill="#F7B32A"/>
<path d="M56.0819 75.2702C55.1681 76.199 54.6987 76.6784 53.8447 77.6173C54.3141 78.5411 54.6287 79.0005 55.3279 79.8894C55.992 78.9855 56.3815 78.5161 57.1606 77.5773C56.6062 76.6535 56.3765 76.1891 56.0819 75.2702Z" fill="#F7B32A"/>
<path d="M55.8722 74.6959C55.6675 73.832 55.6325 73.3726 55.7524 72.5986C54.6138 73.9469 53.8048 75.41 53.4353 76.8382C53.4653 76.9082 53.4852 76.9681 53.5152 77.043C54.4291 76.0992 54.9234 75.6248 55.8722 74.6959Z" fill="#F7B32A"/>
<path d="M62.5438 82.7358H65.3253C64.9408 82.1016 64.6262 81.6722 64.0469 80.9031C63.4327 81.6771 63.0632 82.1066 62.5438 82.7358Z" fill="#F7B32A"/>
<path d="M60.1818 80.3938C60.8809 81.2727 61.2504 81.6971 61.8946 82.5011C62.5338 81.6871 62.8933 81.2527 63.5825 80.3588C62.9083 79.4849 62.5438 79.0255 61.8696 78.1066C61.2055 79.0405 60.8459 79.5049 60.1818 80.3938Z" fill="#F7B32A"/>
<path d="M59.9322 75.2253C59.233 76.1591 58.8435 76.6285 58.0895 77.5673C58.6638 78.4912 59.0083 78.9556 59.6975 79.8445C60.3666 78.9406 60.7312 78.4712 61.4003 77.5324C60.7461 76.6085 60.4365 76.1441 59.9322 75.2253Z" fill="#F7B32A"/>
<path d="M56.6912 74.6859C56.9558 75.5998 57.1756 76.0692 57.6949 76.993C58.4739 76.0542 58.8784 75.5798 59.5925 74.651C59.1481 73.7371 58.9833 73.2827 58.8235 72.4238C58.0345 73.2977 57.59 73.7571 56.6912 74.6859Z" fill="#F7B32A"/>
<path d="M58.7087 71.8845C58.6388 71.0455 58.7387 70.671 58.9784 69.7821C58.1294 70.686 57.5602 71.0655 56.4815 71.9244C56.3017 72.7734 56.3167 73.2178 56.5015 74.1217C57.4403 73.2028 57.8997 72.7484 58.7087 71.8845Z" fill="#F7B32A"/>
<path d="M66.5737 82.7358H68.3964C68.6661 82.5211 68.9058 82.2964 69.1205 82.0617C68.9407 81.7071 68.716 81.3575 68.3815 80.8582C67.6923 81.6472 67.2579 82.0816 66.5737 82.7358Z" fill="#F7B32A"/>
<path d="M64.5364 80.3538C65.2055 81.2277 65.5251 81.6572 66.0095 82.4562C66.8085 81.6422 67.223 81.2077 67.9371 80.3139C67.2979 79.435 66.9184 78.9805 66.1593 78.0617C65.5801 78.9955 65.2355 79.4599 64.5364 80.3538Z" fill="#F7B32A"/>
<path d="M63.7723 75.1753C63.2829 76.1092 62.9783 76.5836 62.3341 77.5224C63.0083 78.4462 63.3778 78.9106 64.0619 79.7995C64.7411 78.8907 65.0757 78.4262 65.63 77.4874C64.8709 76.5586 64.4764 76.0942 63.7723 75.1753Z" fill="#F7B32A"/>
<path d="M60.4115 74.641C60.9009 75.5549 61.2105 76.0193 61.8597 76.9481C62.5089 76.0043 62.8085 75.5299 63.2929 74.6011C62.6187 73.6922 62.3141 73.2428 61.8447 72.3789C61.3753 73.2528 61.0707 73.7122 60.4115 74.641Z" fill="#F7B32A"/>
<path d="M60.072 74.0767C60.7511 73.1579 61.0607 72.7084 61.5351 71.8495C61.1356 71.0056 61.0158 70.6261 60.8959 69.7372C60.4215 70.641 60.072 71.0206 59.3379 71.8845C59.4827 72.7284 59.6425 73.1729 60.072 74.0767Z" fill="#F7B32A"/>
<path d="M60.821 69.1679C60.7611 68.264 60.786 67.7946 60.8609 66.8758C60.4714 67.8096 60.2217 68.289 59.4877 69.2128C59.2929 70.1167 59.178 70.5362 59.238 71.3601C59.997 70.5212 60.3516 70.0967 60.821 69.1679Z" fill="#F7B32A"/>
<path d="M70.4989 78.0817C70.4789 78.0567 70.4639 78.0367 70.4389 78.0118C69.9496 78.9506 69.625 79.415 68.9009 80.3089C69.2255 80.7533 69.4502 81.0829 69.6449 81.4075C70.3241 80.4038 70.5838 79.2702 70.4989 78.0817Z" fill="#F7B32A"/>
<path d="M67.5825 75.1254C67.3129 76.0592 67.0882 76.5386 66.5588 77.4774C67.3478 78.4013 67.7473 78.8607 68.4315 79.7546C69.1106 78.8457 69.4102 78.3763 69.8497 77.4375C68.9758 76.5136 68.4964 76.0442 67.5825 75.1254Z" fill="#F7B32A"/>
<path d="M64.1018 74.5961C64.8259 75.5099 65.2254 75.9743 66.0144 76.9032C66.5188 75.9594 66.7285 75.4849 66.9682 74.5561C66.0693 73.6473 65.6199 73.1928 64.8359 72.3339C64.6961 73.2128 64.5313 73.6672 64.1018 74.5961Z" fill="#F7B32A"/>
<path d="M63.6174 74.0318C64.0369 73.1129 64.1967 72.6585 64.3266 71.8046C63.5925 70.9606 63.2529 70.5861 62.7835 69.6922C62.6686 70.6011 62.5538 70.9806 62.1493 71.8395C62.6237 72.6835 62.9333 73.1279 63.6174 74.0318Z" fill="#F7B32A"/>
<path d="M62.4989 69.1279C62.1094 68.2191 62.0045 67.7497 61.8497 66.8308C61.6949 67.7647 61.5851 68.2391 61.1906 69.1629C61.3254 70.0718 61.4402 70.4962 61.8447 71.3152C62.2492 70.4812 62.3641 70.0518 62.4989 69.1279Z" fill="#F7B32A"/>
<path d="M67.7722 74.5511C68.726 75.46 69.2254 75.9244 70.1542 76.8532C70.1842 76.7683 70.2042 76.6984 70.2341 76.6235C69.8246 75.1903 68.9857 73.7371 67.8172 72.4038C67.972 73.2028 67.957 73.6672 67.7722 74.5511Z" fill="#F7B32A"/>
<path d="M64.9408 71.7946C65.7448 72.6385 66.1993 73.083 67.1381 73.9868C67.2929 73.068 67.2979 72.6186 67.0831 71.7596C66.0145 70.9207 65.4502 70.5412 64.6362 69.6423C64.8759 70.5562 64.9958 70.9407 64.9408 71.7946Z" fill="#F7B32A"/>
<path d="M62.8584 69.118C63.3178 70.0268 63.6574 70.4563 64.4165 71.2752C64.4564 70.4413 64.3366 70.0068 64.1368 69.083C63.4327 68.1692 63.188 67.6997 62.8135 66.7859C62.8934 67.7147 62.9183 68.1941 62.8584 69.118Z" fill="#F7B32A"/>
<path d="M62.0345 62.8858C62.1393 64.3639 62.2792 65.3177 62.5888 66.2166C62.6437 67.1355 62.6587 67.6149 62.5788 68.5487C62.2043 67.6298 62.0944 67.1604 61.9446 66.2566C62.0544 65.3377 62.0295 64.3889 62.0345 62.8858Z" fill="#F7B32A"/>
<path d="M86.8482 105.312H68.2516V86.9405H86.8482V105.312Z" fill="#D91100"/>
<path d="M19.5629 105.312H3.82275V89.2226H19.5629V105.312Z" fill="#D91100"/>
<path d="M39.4679 105.312H18.5093V80.3588H39.4679V105.312Z" fill="#D91100"/>
<path d="M73.0556 101.163H71.7922V90.9704H73.0556V101.163Z" fill="#F7B32A"/>
<path d="M76.7359 101.163H75.4725V90.9704H76.7359V101.163Z" fill="#F7B32A"/>
<path d="M80.4164 101.163H79.1479V90.9704H80.4164V101.163Z" fill="#F7B32A"/>
<path d="M84.0966 101.163H82.8282V90.9704H84.0966V101.163Z" fill="#F7B32A"/>
<path d="M41.1957 90.4611H39.9573V80.2689H41.1957V90.4611Z" fill="#F7B32A"/>
<path d="M44.7912 90.4611H43.5577V80.2689H44.7912V90.4611Z" fill="#F7B32A"/>
<path d="M48.3916 90.4611H47.1532V80.2689H48.3916V90.4611Z" fill="#F7B32A"/>
<path d="M51.9921 90.4611H50.7537V80.2689H51.9921V90.4611Z" fill="#F7B32A"/>
<path d="M41.1957 67.2553H39.9573V61.0631H41.1957V67.2553Z" fill="#F7B32A"/>
<path d="M44.7912 67.2553H43.5577V61.0631H44.7912V67.2553Z" fill="#F7B32A"/>
<path d="M48.3916 67.2553H47.1532V61.0631H48.3916V67.2553Z" fill="#F7B32A"/>
<path d="M51.9921 67.2553H50.7537V61.0631H51.9921V67.2553Z" fill="#F7B32A"/>
<path d="M41.1957 103.03H39.9573V92.8381H41.1957V103.03Z" fill="#F7B32A"/>
<path d="M44.7912 103.03H43.5577V92.8381H44.7912V103.03Z" fill="#F7B32A"/>
<path d="M48.3916 103.03H47.1532V92.8381H48.3916V103.03Z" fill="#F7B32A"/>
<path d="M51.9921 103.03H50.7537V92.8381H51.9921V103.03Z" fill="#F7B32A"/>
<path d="M6.95878 103.03H5.72034V92.8381H6.95878V103.03Z" fill="#F7B32A"/>
<path d="M10.5594 103.03H9.31592V92.8381H10.5594V103.03Z" fill="#F7B32A"/>
<path d="M14.1548 103.03H12.9164V92.8381H14.1548V103.03Z" fill="#F7B32A"/>
<path d="M17.7553 103.03H16.5168V92.8381H17.7553V103.03Z" fill="#F7B32A"/>
<path d="M76.2666 80.5236H73.7548V73.3926H76.2666V80.5236Z" fill="#F7B32A"/>
<path d="M81.0655 80.5236H78.5537V73.3926H81.0655V80.5236Z" fill="#F7B32A"/>
<path d="M35.2782 84.139C36.6065 84.139 37.6901 85.5473 37.6901 87.2851H38.4591C38.4591 84.993 37.0359 83.1403 35.2782 83.1403C33.5154 83.1403 32.0922 84.993 32.0922 87.2851H32.8562C32.8562 85.5473 33.9448 84.139 35.2782 84.139Z" fill="#F7B32A"/>
<path d="M35.2782 84.139C33.9448 84.139 32.8562 85.5473 32.8562 87.2851H33.5054C33.5054 86.0117 34.2994 84.983 35.2782 84.983C36.2519 84.983 37.0409 86.0117 37.0409 87.2851H37.6901C37.6901 85.5473 36.6065 84.139 35.2782 84.139Z" fill="white"/>
<path d="M35.2781 85.8868C35.8674 85.8868 36.3468 86.5111 36.3468 87.2851H37.0409C37.0409 86.0117 36.2519 84.983 35.2781 84.983C34.2994 84.983 33.5054 86.0117 33.5054 87.2851H34.1995C34.1995 86.5111 34.6839 85.8868 35.2781 85.8868Z" fill="#F7B32A"/>
<path d="M35.2781 85.8868C34.6839 85.8868 34.1995 86.5111 34.1995 87.2851H36.3468C36.3468 86.5111 35.8674 85.8868 35.2781 85.8868Z" fill="white"/>
<path d="M30.6839 84.139C32.0172 84.139 33.1009 85.5473 33.1009 87.2851H33.8649C33.8649 84.993 32.4417 83.1403 30.6839 83.1403C28.9261 83.1403 27.4979 84.993 27.4979 87.2851H28.267C28.267 85.5473 29.3456 84.139 30.6839 84.139Z" fill="#F7B32A"/>
<path d="M30.6839 84.139C29.3456 84.139 28.267 85.5473 28.267 87.2851H28.9112C28.9112 86.0117 29.7052 84.983 30.6839 84.983C31.6577 84.983 32.4517 86.0117 32.4517 87.2851H33.1009C33.1009 85.5473 32.0172 84.139 30.6839 84.139Z" fill="white"/>
<path d="M30.6839 85.8868C31.2732 85.8868 31.7575 86.5111 31.7575 87.2851H32.4517C32.4517 86.0117 31.6577 84.983 30.6839 84.983C29.7051 84.983 28.9111 86.0117 28.9111 87.2851H29.6053C29.6053 86.5111 30.0847 85.8868 30.6839 85.8868Z" fill="#F7B32A"/>
<path d="M30.684 85.8868C30.0847 85.8868 29.6053 86.5111 29.6053 87.2851H31.7576C31.7576 86.5111 31.2732 85.8868 30.684 85.8868Z" fill="white"/>
<path d="M26.0898 84.139C27.4231 84.139 28.5068 85.5473 28.5068 87.2851H29.2708C29.2708 84.993 27.8476 83.1403 26.0898 83.1403C24.332 83.1403 22.9038 84.993 22.9038 87.2851H23.6728C23.6728 85.5473 24.7565 84.139 26.0898 84.139Z" fill="#F7B32A"/>
<path d="M26.0897 84.139C24.7564 84.139 23.6727 85.5473 23.6727 87.2851H24.3169C24.3169 86.0117 25.1159 84.983 26.0897 84.983C27.0635 84.983 27.8575 86.0117 27.8575 87.2851H28.5066C28.5066 85.5473 27.423 84.139 26.0897 84.139Z" fill="white"/>
<path d="M26.0898 85.8868C26.679 85.8868 27.1634 86.5111 27.1634 87.2851H27.8576C27.8576 86.0117 27.0636 84.983 26.0898 84.983C25.116 84.983 24.317 86.0117 24.317 87.2851H25.0161C25.0161 86.5111 25.4955 85.8868 26.0898 85.8868Z" fill="#F7B32A"/>
<path d="M26.0898 85.8868C25.4955 85.8868 25.0161 86.5111 25.0161 87.2851H27.1634C27.1634 86.5111 26.679 85.8868 26.0898 85.8868Z" fill="white"/>
<path d="M21.4956 84.139C22.8289 84.139 23.9125 85.5473 23.9125 87.2851H24.6815C24.6815 84.993 23.2533 83.1403 21.4956 83.1403C19.7378 83.1403 18.3096 84.993 18.3096 87.2851H19.0786C19.0786 85.5473 20.1622 84.139 21.4956 84.139Z" fill="#F7B32A"/>
<path d="M21.4956 84.139C20.1622 84.139 19.0786 85.5473 19.0786 87.2851H19.7278C19.7278 86.0117 20.5218 84.983 21.4956 84.983C22.4743 84.983 23.2633 86.0117 23.2633 87.2851H23.9125C23.9125 85.5473 22.8289 84.139 21.4956 84.139Z" fill="white"/>
<path d="M21.4956 85.8868C22.0848 85.8868 22.5692 86.5111 22.5692 87.2851H23.2633C23.2633 86.0117 22.4743 84.983 21.4956 84.983C20.5218 84.983 19.7278 86.0117 19.7278 87.2851H20.4219C20.4219 86.5111 20.9013 85.8868 21.4956 85.8868Z" fill="#F7B32A"/>
<path d="M21.4955 85.8868C20.9013 85.8868 20.4219 86.5111 20.4219 87.2851H22.5692C22.5692 86.5111 22.0848 85.8868 21.4955 85.8868Z" fill="white"/>
<path d="M35.393 77.3176C36.7313 77.3176 37.81 78.7309 37.81 80.4637H38.579C38.579 78.1766 37.1508 76.3239 35.393 76.3239C33.6352 76.3239 32.212 78.1766 32.212 80.4637H32.9761C32.9761 78.7309 34.0597 77.3176 35.393 77.3176Z" fill="#5BC9C3"/>
<path d="M35.393 77.3176C34.0597 77.3176 32.9761 78.7309 32.9761 80.4637H33.6253C33.6253 79.1953 34.4143 78.1616 35.393 78.1616C36.3718 78.1616 37.1658 79.1953 37.1658 80.4637H37.81C37.81 78.7309 36.7313 77.3176 35.393 77.3176Z" fill="white"/>
<path d="M35.393 79.0654C35.9873 79.0654 36.4667 79.6946 36.4667 80.4637H37.1658C37.1658 79.1953 36.3718 78.1616 35.393 78.1616C34.4143 78.1616 33.6252 79.1953 33.6252 80.4637H34.3194C34.3194 79.6946 34.8038 79.0654 35.393 79.0654Z" fill="#5BC9C3"/>
<path d="M35.393 79.0654C34.8037 79.0654 34.3193 79.6946 34.3193 80.4637H36.4666C36.4666 79.6946 35.9872 79.0654 35.393 79.0654Z" fill="white"/>
<path d="M30.7988 77.3176C32.1371 77.3176 33.2207 78.7309 33.2207 80.4637H33.9848C33.9848 78.1766 32.5616 76.3239 30.7988 76.3239C29.046 76.3239 27.6178 78.1766 27.6178 80.4637H28.3818C28.3818 78.7309 29.4655 77.3176 30.7988 77.3176Z" fill="#5BC9C3"/>
<path d="M30.7988 77.3176C29.4655 77.3176 28.3818 78.7309 28.3818 80.4637H29.031C29.031 79.1953 29.825 78.1616 30.7988 78.1616C31.7776 78.1616 32.5716 79.1953 32.5716 80.4637H33.2207C33.2207 78.7309 32.1371 77.3176 30.7988 77.3176Z" fill="white"/>
<path d="M30.7988 79.0654C31.393 79.0654 31.8774 79.6946 31.8774 80.4637H32.5715C32.5715 79.1953 31.7775 78.1616 30.7988 78.1616C29.825 78.1616 29.031 79.1953 29.031 80.4637H29.7251C29.7251 79.6946 30.2095 79.0654 30.7988 79.0654Z" fill="#5BC9C3"/>
<path d="M30.7987 79.0654C30.2095 79.0654 29.7251 79.6946 29.7251 80.4637H31.8774C31.8774 79.6946 31.393 79.0654 30.7987 79.0654Z" fill="white"/>
<path d="M26.2095 77.3176C27.5429 77.3176 28.6265 78.7309 28.6265 80.4637H29.3905C29.3905 78.1766 27.9673 76.3239 26.2095 76.3239C24.4518 76.3239 23.0236 78.1766 23.0236 80.4637H23.7926C23.7926 78.7309 24.8712 77.3176 26.2095 77.3176Z" fill="#5BC9C3"/>
<path d="M26.2096 77.3176C24.8712 77.3176 23.7926 78.7309 23.7926 80.4637H24.4368C24.4368 79.1953 25.2308 78.1616 26.2096 78.1616C27.1833 78.1616 27.9773 79.1953 27.9773 80.4637H28.6265C28.6265 78.7309 27.5429 77.3176 26.2096 77.3176Z" fill="white"/>
<path d="M26.2095 79.0654C26.7988 79.0654 27.2782 79.6946 27.2782 80.4637H27.9773C27.9773 79.1953 27.1833 78.1616 26.2095 78.1616C25.2308 78.1616 24.4368 79.1953 24.4368 80.4637H25.1309C25.1309 79.6946 25.6153 79.0654 26.2095 79.0654Z" fill="#5BC9C3"/>
<path d="M26.2096 79.0654C25.6154 79.0654 25.131 79.6946 25.131 80.4637H27.2783C27.2783 79.6946 26.7989 79.0654 26.2096 79.0654Z" fill="white"/>
<path d="M21.6154 77.3176C22.9488 77.3176 24.0324 78.7309 24.0324 80.4637H24.8014C24.8014 78.1766 23.3732 76.3239 21.6154 76.3239C19.8576 76.3239 18.4294 78.1766 18.4294 80.4637H19.1985C19.1985 78.7309 20.2821 77.3176 21.6154 77.3176Z" fill="#5BC9C3"/>
<path d="M21.6153 77.3176C20.282 77.3176 19.1984 78.7309 19.1984 80.4637H19.8426C19.8426 79.1953 20.6415 78.1616 21.6153 78.1616C22.5941 78.1616 23.3831 79.1953 23.3831 80.4637H24.0323C24.0323 78.7309 22.9486 77.3176 21.6153 77.3176Z" fill="white"/>
<path d="M21.6154 79.0654C22.2097 79.0654 22.6891 79.6946 22.6891 80.4637H23.3832C23.3832 79.1953 22.5942 78.1616 21.6154 78.1616C20.6416 78.1616 19.8427 79.1953 19.8427 80.4637H20.5418C20.5418 79.6946 21.0212 79.0654 21.6154 79.0654Z" fill="#5BC9C3"/>
<path d="M21.6154 79.0654C21.0211 79.0654 20.5417 79.6946 20.5417 80.4637H22.689C22.689 79.6946 22.2096 79.0654 21.6154 79.0654Z" fill="white"/>
<path d="M35.2782 102.166C36.6065 102.166 37.6901 103.58 37.6901 105.312H38.4591C38.4591 103.02 37.0359 101.168 35.2782 101.168C33.5154 101.168 32.0922 103.02 32.0922 105.312H32.8562C32.8562 103.58 33.9448 102.166 35.2782 102.166Z" fill="#5BC9C3"/>
<path d="M35.2782 102.166C33.9448 102.166 32.8562 103.58 32.8562 105.312H33.5054C33.5054 104.044 34.2994 103.01 35.2782 103.01C36.2519 103.01 37.0409 104.044 37.0409 105.312H37.6901C37.6901 103.58 36.6065 102.166 35.2782 102.166Z" fill="white"/>
<path d="M35.2781 103.914C35.8674 103.914 36.3468 104.543 36.3468 105.312H37.0409C37.0409 104.044 36.2519 103.01 35.2781 103.01C34.2994 103.01 33.5054 104.044 33.5054 105.312H34.1995C34.1995 104.543 34.6839 103.914 35.2781 103.914Z" fill="#5BC9C3"/>
<path d="M35.2781 103.914C34.6839 103.914 34.1995 104.543 34.1995 105.312H36.3468C36.3468 104.543 35.8674 103.914 35.2781 103.914Z" fill="white"/>
<path d="M30.6839 102.166C32.0172 102.166 33.1009 103.58 33.1009 105.312H33.8649C33.8649 103.02 32.4417 101.168 30.6839 101.168C28.9261 101.168 27.4979 103.02 27.4979 105.312H28.267C28.267 103.58 29.3456 102.166 30.6839 102.166Z" fill="#5BC9C3"/>
<path d="M30.6839 102.166C29.3456 102.166 28.267 103.58 28.267 105.312H28.9112C28.9112 104.044 29.7052 103.01 30.6839 103.01C31.6577 103.01 32.4517 104.044 32.4517 105.312H33.1009C33.1009 103.58 32.0172 102.166 30.6839 102.166Z" fill="white"/>
<path d="M30.6839 103.914C31.2732 103.914 31.7575 104.543 31.7575 105.312H32.4517C32.4517 104.044 31.6577 103.01 30.6839 103.01C29.7051 103.01 28.9111 104.044 28.9111 105.312H29.6053C29.6053 104.543 30.0847 103.914 30.6839 103.914Z" fill="#5BC9C3"/>
<path d="M30.684 103.914C30.0847 103.914 29.6053 104.543 29.6053 105.312H31.7576C31.7576 104.543 31.2732 103.914 30.684 103.914Z" fill="white"/>
<path d="M26.0898 102.166C27.4231 102.166 28.5068 103.58 28.5068 105.312H29.2708C29.2708 103.02 27.8476 101.168 26.0898 101.168C24.332 101.168 22.9038 103.02 22.9038 105.312H23.6728C23.6728 103.58 24.7565 102.166 26.0898 102.166Z" fill="#5BC9C3"/>
<path d="M26.0897 102.166C24.7564 102.166 23.6727 103.58 23.6727 105.312H24.3169C24.3169 104.044 25.1159 103.01 26.0897 103.01C27.0635 103.01 27.8575 104.044 27.8575 105.312H28.5066C28.5066 103.58 27.423 102.166 26.0897 102.166Z" fill="white"/>
<path d="M26.0898 103.914C26.679 103.914 27.1634 104.543 27.1634 105.312H27.8576C27.8576 104.044 27.0636 103.01 26.0898 103.01C25.116 103.01 24.317 104.044 24.317 105.312H25.0161C25.0161 104.543 25.4955 103.914 26.0898 103.914Z" fill="#5BC9C3"/>
<path d="M26.0898 103.914C25.4955 103.914 25.0161 104.543 25.0161 105.312H27.1634C27.1634 104.543 26.679 103.914 26.0898 103.914Z" fill="white"/>
<path d="M21.4956 102.166C22.8289 102.166 23.9125 103.58 23.9125 105.312H24.6815C24.6815 103.02 23.2533 101.168 21.4956 101.168C19.7378 101.168 18.3096 103.02 18.3096 105.312H19.0786C19.0786 103.58 20.1622 102.166 21.4956 102.166Z" fill="#5BC9C3"/>
<path d="M21.4956 102.166C20.1622 102.166 19.0786 103.58 19.0786 105.312H19.7278C19.7278 104.044 20.5218 103.01 21.4956 103.01C22.4743 103.01 23.2633 104.044 23.2633 105.312H23.9125C23.9125 103.58 22.8289 102.166 21.4956 102.166Z" fill="white"/>
<path d="M21.4956 103.914C22.0848 103.914 22.5692 104.543 22.5692 105.312H23.2633C23.2633 104.044 22.4743 103.01 21.4956 103.01C20.5218 103.01 19.7278 104.044 19.7278 105.312H20.4219C20.4219 104.543 20.9013 103.914 21.4956 103.914Z" fill="#5BC9C3"/>
<path d="M21.4955 103.914C20.9013 103.914 20.4219 104.543 20.4219 105.312H22.5692C22.5692 104.543 22.0848 103.914 21.4955 103.914Z" fill="white"/>
<path d="M22.8288 99.4148H20.4069V89.2226H22.8288V99.4148Z" fill="#F7B32A"/>
<path d="M29.4754 99.4148H27.0535V89.2226H29.4754V99.4148Z" fill="#F7B32A"/>
<path d="M8.8764 83.9243H6.93884V77.7771H8.8764V83.9243Z" fill="#F7B32A"/>
<path d="M12.0823 83.9243H10.1498V77.7771H12.0823V83.9243Z" fill="#F7B32A"/>
<path d="M15.2933 83.9243H13.3557V77.7771H15.2933V83.9243Z" fill="#F7B32A"/>
<path d="M36.1172 99.4148H33.7002V89.2226H36.1172V99.4148Z" fill="#F7B32A"/>
<path d="M86.9531 118.346H3.82275V114.266H86.9531V118.346Z" fill="#D91100"/>
<path d="M69.0057 105.208H55.3329V82.7358H69.0057V105.208Z" fill="#D91100"/>
<path d="M67.118 94.3662C68.5562 94.3662 69.7248 95.8593 69.7248 97.697H70.5537C70.5537 95.27 69.0156 93.3075 67.118 93.3075C65.2204 93.3075 63.6774 95.27 63.6774 97.697H64.5063C64.5063 95.8593 65.6749 94.3662 67.118 94.3662Z" fill="#0D706A"/>
<path d="M67.1181 94.3662C65.6749 94.3662 64.5063 95.8593 64.5063 97.697H65.2055C65.2055 96.3487 66.0594 95.26 67.1181 95.26C68.1717 95.26 69.0307 96.3487 69.0307 97.697H69.7248C69.7248 95.8593 68.5562 94.3662 67.1181 94.3662Z" fill="white"/>
<path d="M67.118 96.2188C67.7572 96.2188 68.2766 96.883 68.2766 97.697H69.0306C69.0306 96.3487 68.1717 95.26 67.118 95.26C66.0594 95.26 65.2054 96.3487 65.2054 97.697H65.9595C65.9595 96.883 66.4788 96.2188 67.118 96.2188Z" fill="#0D706A"/>
<path d="M67.118 96.2188C66.4788 96.2188 65.9595 96.883 65.9595 97.697H68.2766C68.2766 96.883 67.7572 96.2188 67.118 96.2188Z" fill="white"/>
<path d="M62.1593 94.3662C63.5975 94.3662 64.766 95.8593 64.766 97.697H65.595C65.595 95.27 64.0569 93.3075 62.1593 93.3075C60.2617 93.3075 58.7186 95.27 58.7186 97.697H59.5476C59.5476 95.8593 60.7161 94.3662 62.1593 94.3662Z" fill="#0D706A"/>
<path d="M62.1593 94.3662C60.7161 94.3662 59.5476 95.8593 59.5476 97.697H60.2467C60.2467 96.3487 61.1007 95.26 62.1593 95.26C63.213 95.26 64.0669 96.3487 64.0669 97.697H64.766C64.766 95.8593 63.5975 94.3662 62.1593 94.3662Z" fill="white"/>
<path d="M62.1593 96.2188C62.7985 96.2188 63.3178 96.883 63.3178 97.697H64.0669C64.0669 96.3487 63.213 95.26 62.1593 95.26C61.1006 95.26 60.2467 96.3487 60.2467 97.697H60.9958C60.9958 96.883 61.5201 96.2188 62.1593 96.2188Z" fill="#0D706A"/>
<path d="M62.1593 96.2188C61.5201 96.2188 60.9957 96.883 60.9957 97.697H63.3178C63.3178 96.883 62.7985 96.2188 62.1593 96.2188Z" fill="white"/>
<path d="M57.1956 94.3662C58.6387 94.3662 59.8073 95.8593 59.8073 97.697H60.6362C60.6362 95.27 59.0982 93.3075 57.1956 93.3075C55.3029 93.3075 53.7599 95.27 53.7599 97.697H54.5888C54.5888 95.8593 55.7574 94.3662 57.1956 94.3662Z" fill="#0D706A"/>
<path d="M57.1956 94.3662C55.7574 94.3662 54.5889 95.8593 54.5889 97.697H55.288C55.288 96.3487 56.1469 95.26 57.1956 95.26C58.2543 95.26 59.1082 96.3487 59.1082 97.697H59.8073C59.8073 95.8593 58.6388 94.3662 57.1956 94.3662Z" fill="white"/>
<path d="M57.1956 96.2188C57.8398 96.2188 58.3591 96.883 58.3591 97.697H59.1082C59.1082 96.3487 58.2542 95.26 57.1956 95.26C56.1469 95.26 55.288 96.3487 55.288 97.697H56.042C56.042 96.883 56.5564 96.2188 57.1956 96.2188Z" fill="#0D706A"/>
<path d="M57.1955 96.2188C56.5563 96.2188 56.042 96.883 56.042 97.697H58.3591C58.3591 96.883 57.8397 96.2188 57.1955 96.2188Z" fill="white"/>
<path d="M70.354 106.086H53.7599V97.697H70.354V106.086Z" fill="#5BC9C3"/>
<path d="M86.9531 114.266H3.82275V105.312H86.9531V114.266Z" fill="#0D706A"/>
<path d="M9.95505 114.266V109.028C9.95505 107.699 8.87641 106.626 7.54808 106.626C6.21975 106.626 5.14111 107.699 5.14111 109.028V114.266H9.95505Z" fill="#5BC9C3"/>
<path d="M16.8314 114.266V109.028C16.8314 107.699 15.7577 106.626 14.4244 106.626C13.0961 106.626 12.0175 107.699 12.0175 109.028V114.266H16.8314Z" fill="#5BC9C3"/>
<path d="M23.7077 114.266V109.028C23.7077 107.699 22.6341 106.626 21.3058 106.626C19.9774 106.626 18.8988 107.699 18.8988 109.028V114.266H23.7077Z" fill="#5BC9C3"/>
<path d="M30.5891 114.266V109.028C30.5891 107.699 29.5104 106.626 28.1821 106.626C26.8538 106.626 25.7751 107.699 25.7751 109.028V114.266H30.5891Z" fill="#5BC9C3"/>
<path d="M37.4654 114.266V109.028C37.4654 107.699 36.3918 106.626 35.0635 106.626C33.7351 106.626 32.6565 107.699 32.6565 109.028V114.266H37.4654Z" fill="#5BC9C3"/>
<path d="M44.3468 114.266V109.028C44.3468 107.699 43.2681 106.626 41.9398 106.626C40.6115 106.626 39.5328 107.699 39.5328 109.028V114.266H44.3468Z" fill="#5BC9C3"/>
<path d="M51.2231 114.266V109.028C51.2231 107.699 50.1495 106.626 48.8162 106.626C47.4878 106.626 46.4142 107.699 46.4142 109.028V114.266H51.2231Z" fill="#5BC9C3"/>
<path d="M58.0995 114.266V109.028C58.0995 107.699 57.0258 106.626 55.6975 106.626C54.3692 106.626 53.2905 107.699 53.2905 109.028V114.266H58.0995Z" fill="#5BC9C3"/>
<path d="M64.9808 114.266V109.028C64.9808 107.699 63.9022 106.626 62.5739 106.626C61.2455 106.626 60.1719 107.699 60.1719 109.028V114.266H64.9808Z" fill="#5BC9C3"/>
<path d="M71.862 114.266V109.028C71.862 107.699 70.7834 106.626 69.4551 106.626C68.1267 106.626 67.0481 107.699 67.0481 109.028V114.266H71.862Z" fill="#5BC9C3"/>
<path d="M78.7385 114.266V109.028C78.7385 107.699 77.6599 106.626 76.3315 106.626C75.0032 106.626 73.9246 107.699 73.9246 109.028V114.266H78.7385Z" fill="#5BC9C3"/>
<path d="M85.6147 114.266V109.028C85.6147 107.699 84.5361 106.626 83.2078 106.626C81.8794 106.626 80.8058 107.699 80.8058 109.028V114.266H85.6147Z" fill="#5BC9C3"/>
<path d="M56.4614 91.6796H55.5376V84.983H56.4614V91.6796Z" fill="#F7B32A"/>
<path d="M69.0407 91.6796H68.1168V84.983H69.0407V91.6796Z" fill="#F7B32A"/>
<path d="M59.1781 84.983H58.2493V91.6796H60.077V84.983H59.1781Z" fill="#F7B32A"/>
<path d="M62.3941 84.983H61.4702V91.6796H63.2979V84.983H62.3941Z" fill="#F7B32A"/>
<path d="M65.61 84.983H64.6862V91.6796H66.5139V84.983H65.61Z" fill="#F7B32A"/>
<path d="M27.1834 74.8807V71.1005C27.1834 70.1417 26.5991 69.3627 25.875 69.3627C25.1559 69.3627 24.5717 70.1417 24.5717 71.1005V74.8807H27.1834Z" fill="#F7B32A"/>
<path d="M47.238 55.4002V49.5326C47.238 48.0395 46.8735 46.836 46.4241 46.836C45.9696 46.836 45.6051 48.0395 45.6051 49.5326V55.4002H47.238Z" fill="#F7B32A"/>
<path d="M42.2644 55.4002V49.5326C42.2644 48.0395 41.8999 46.836 41.4504 46.836C40.996 46.836 40.6315 48.0395 40.6315 49.5326V55.4002H42.2644Z" fill="#F7B32A"/>
<path d="M52.5464 55.4002V49.5326C52.5464 48.0395 52.1769 46.836 51.7274 46.836C51.278 46.836 50.9135 48.0395 50.9135 49.5326V55.4002H52.5464Z" fill="#F7B32A"/>
<path d="M33.77 74.8807V71.1005C33.77 70.1417 33.1808 69.3627 32.4617 69.3627C31.7426 69.3627 31.1533 70.1417 31.1533 71.1005V74.8807H33.77Z" fill="#F7B32A"/>
</svg>
