<svg width="92" height="119" viewBox="0 0 92 119" fill="none" xmlns="http://www.w3.org/2000/svg">
<circle cx="45.8169" cy="67.6888" r="42.8169" fill="#DEF0E2" stroke="#C8E1CC" stroke-width="6"/>
<path d="M54.1238 43.608C54.1238 43.608 56.1776 43.9179 57.3069 47.2009C58.4415 50.4891 62.0344 55.4214 62.0344 55.4214L58.0791 61.9295C58.0791 61.9295 53.9189 48.3302 54.1238 43.608Z" fill="#1A9D95"/>
<path d="M52.9208 44.4117H43.3871V35.834H52.9208V44.4117Z" fill="#1A9D95"/>
<path d="M50.5359 44.5535H45.7717V40.2673H50.5359V44.5535Z" fill="#88DBC9"/>
<path d="M68.7577 56.6715L69.2094 57.7799L62.2706 70.2288L54.7014 65.6011L54.8432 64.6872L68.7577 56.6715Z" fill="#1A9D95"/>
<path d="M61.5403 52.3591L68.7576 56.6715L62.0604 68.9997L54.8431 64.6872L61.5403 52.3591Z" fill="#5BC9C3"/>
<path d="M64.5136 66.2105C64.5136 66.2105 65.7795 66.5834 67.6494 64.1619C69.5194 61.7457 69.0099 60.5165 68.348 59.6131C67.6862 58.7096 67.4393 58.6728 66.7827 59.3767C66.1261 60.07 64.0303 61.3149 64.3927 62.2394C64.7499 63.1691 65.4853 63.5789 65.2332 64.246C64.9811 64.9078 64.813 65.7903 64.5136 66.2105Z" fill="#88DBC9"/>
<path d="M37.6301 53.0576C37.6301 53.0576 36.9735 48.95 35.5342 47.7156C34.095 46.4865 35.1088 42.8884 37.6301 38.9856C40.1566 35.0829 41.286 37.1367 42.6202 38.9856C43.9543 40.8346 48.2668 44.6375 53.2044 43.608C53.2044 43.608 50.0002 54.2868 37.6301 53.0576Z" fill="#1A9D95"/>
<path d="M37.6301 63.2952C37.6301 63.2952 38.292 55.4214 37.6301 53.0577C37.6301 53.0577 48.477 51.1089 53.2044 43.608H54.1236C54.1236 43.608 50.9247 57.8271 37.6301 63.2952Z" fill="#5BC9C3"/>
<path d="M36.8684 75.3449C36.8684 75.3449 38.3129 67.6129 37.6301 63.2952C37.6301 63.2952 40.414 62.2499 41.6484 60.2486C41.6484 60.2486 45.8085 60.2486 54.1236 43.608C54.1236 43.608 52.8944 73.3384 36.8684 75.3449Z" fill="#1A9D95"/>
<path d="M59.3553 85.262L60.0487 109.031H36.2539L36.3379 102.864C36.3379 102.864 50.0843 78.4493 59.3553 85.262Z" fill="#5BC9C3"/>
<path d="M36.2539 93.5193C36.2539 93.5193 37.8245 82.4308 36.8685 75.3449C36.8685 75.3449 41.8008 74.7304 43.3451 69.3358C43.3451 69.3358 45.651 68.716 46.7278 64.871C46.7278 64.871 50.888 66.1002 54.1236 43.608C54.1236 43.608 58.9036 78.5754 36.2539 93.5193Z" fill="#5BC9C3"/>
<path d="M54.1235 43.608C54.1235 43.608 61.2094 74.1105 61.2094 82.4308C61.2094 82.4308 61.2094 86.4334 56.2824 87.3631C56.2824 87.3631 53.3566 95.9881 48.4243 95.6782C48.4243 95.6782 41.9057 106.462 34.5099 107.077C34.5099 107.077 36.2538 98.9664 36.2538 93.5193C36.2538 93.5193 56.897 79.3528 54.1235 43.608Z" fill="#1A9D95"/>
<path d="M36.9052 43.2403C36.9052 43.2403 39.4212 41.5122 40.6188 38.266C40.6188 38.266 38.9432 33.507 38.7594 29.6936C38.5808 25.8853 38.7173 19.0358 36.3379 17.3129C34.4154 15.9209 34.5047 22.2189 34.5047 22.2189C34.5047 22.2189 35.2243 27.3456 35.2243 30.2871C35.2243 33.2234 35.4659 38.4446 36.9052 43.2403Z" fill="#88DBC9"/>
<path d="M31.6157 9.20275C31.6157 9.20275 30.4758 6.92833 32.6662 3.7662C32.6662 3.7662 32.1199 5.57838 32.9551 6.18244C33.8008 6.78651 33.8008 7.90533 33.8008 7.90533C33.8008 7.90533 34.9301 2.27968 32.9551 0C32.9551 0 35.9124 2.97304 36.091 5.34726C36.091 5.34726 36.0227 3.53508 36.527 1.95401C36.527 1.95401 36.8211 4.46481 37.2834 4.8325C37.7456 5.20544 38.1711 6.18244 38.087 7.0649C38.087 7.0649 38.1238 5.62566 39.1796 4.27571C39.1796 4.27571 38.502 5.71495 39.1796 6.64468C39.8467 7.57967 39.9727 9.34458 39.1796 10.0852C39.1796 10.0852 31.7838 12.2703 31.6157 9.20275Z" fill="#A80003"/>
<path d="M39.9623 9.20275H30.8856C30.8856 11.3143 32.0044 13.053 33.4384 13.2684C33.7483 14.1823 34.5415 14.8442 35.4765 14.8442C36.4272 14.8442 37.2256 14.1718 37.525 13.2421C38.9065 12.9479 39.9623 11.2566 39.9623 9.20275Z" fill="#1A9D95"/>
<path d="M36.3378 18.8625C36.3378 19.372 35.9281 19.7817 35.4239 19.7817C34.9196 19.7817 34.5046 19.372 34.5046 18.8625V14.2821C34.5046 13.7779 34.9196 13.3629 35.4239 13.3629C35.9281 13.3629 36.3378 13.7779 36.3378 14.2821V18.8625Z" fill="#1A9D95"/>
<path d="M36.3379 20.3858C36.3379 21.4731 35.4554 22.3608 34.3628 22.3608C33.2755 22.3608 32.9394 22.3608 32.3878 20.3858V18.4423C32.787 16.5723 33.2755 16.4673 34.3628 16.4673C35.4554 16.4673 36.3379 17.3497 36.3379 18.4423V20.3858Z" fill="#88DBC9"/>
<path d="M65.627 118.89H30.9539L32.6873 109.031H63.8936L65.627 118.89Z" fill="#1A9D95"/>
<path d="M52.9208 33.5491C52.9208 37.0211 50.7829 39.8418 48.1513 39.8418C45.5249 39.8418 43.3871 37.0211 43.3871 33.5491C43.3871 30.0718 45.5249 28.0232 48.1513 28.0232C50.7829 28.0232 52.9208 30.0718 52.9208 33.5491Z" fill="#1A9D95"/>
<path d="M52.9208 35.4978C52.9208 38.786 50.7829 41.4544 48.1513 41.4544C45.5249 41.4544 43.3871 38.786 43.3871 35.4978C43.3871 32.2096 45.5249 29.5465 48.1513 29.5465C50.7829 29.5465 52.9208 32.2096 52.9208 35.4978Z" fill="#88DBC9"/>
<path d="M48.1513 20.9688L47.3896 28.7796H48.9129L48.1513 20.9688Z" fill="#1A9D95"/>
<path d="M41.8584 22.7075L45.7191 29.5465L46.339 29.1105L46.9693 28.6693L41.8584 22.7075Z" fill="#1A9D95"/>
<path d="M37.7456 27.1775L44.5269 31.1328L44.842 30.4447L45.1624 29.7514L37.7456 27.1775Z" fill="#1A9D95"/>
<path d="M37.1888 31.7999L44.5164 32.5668L44.5216 31.8472L44.5269 31.1328L37.1888 31.7999Z" fill="#1A9D95"/>
<path d="M54.444 22.7075L50.5938 29.5465L49.9635 29.1105L49.3384 28.6693L54.444 22.7075Z" fill="#1A9D95"/>
<path d="M58.5621 27.1775L51.7808 31.1328L51.4604 30.4447L51.14 29.7514L58.5621 27.1775Z" fill="#1A9D95"/>
<path d="M59.1189 31.7999L51.7861 32.5668V31.8472L51.7809 31.1328L59.1189 31.7999Z" fill="#1A9D95"/>
<path d="M43.387 35.5976C43.387 35.5976 48.7763 34.9148 48.4401 29.5622C48.4401 29.5622 42.8144 28.0652 43.387 35.5976Z" fill="#1A9D95"/>
<path d="M47.6786 28.8006C47.6786 28.8006 47.106 34.2635 52.9208 35.834C52.9208 35.834 53.6562 30.9753 51.1401 29.5465C48.6293 28.1178 47.6786 28.8006 47.6786 28.8006Z" fill="#1A9D95"/>
</svg>
